<svg width="35" height="35" viewBox="0 0 35 35" fill="none" xmlns="http://www.w3.org/2000/svg">
<path d="M31.6278 6.62402V7.45332C31.6278 7.69202 31.6278 7.81138 31.6215 7.92637C31.569 8.89256 31.1883 9.81188 30.5422 10.5322C30.4652 10.6179 30.3808 10.7023 30.2121 10.8711C30.0433 11.0399 29.9589 11.1243 29.8731 11.2012C29.1528 11.8473 28.2335 12.2281 27.2673 12.2805C27.1523 12.2868 27.033 12.2868 26.7943 12.2868H23.72C23.4813 12.2868 23.362 12.2868 23.247 12.2805C22.2808 12.2281 21.3615 11.8473 20.6412 11.2012C20.5554 11.1243 20.471 11.0399 20.3022 10.8711" stroke="#0D0D12" stroke-width="2.12353" stroke-linecap="round" stroke-linejoin="round"/>
<path d="M29.5044 11.5789L28.7965 15.1181L27.8166 18.5479C27.5275 19.5597 27.3809 20.6068 27.3809 21.6591V22.0995C27.3809 22.6354 27.4189 23.1707 27.4947 23.7011L28.0887 29.275" stroke="#0D0D12" stroke-width="2.12353" stroke-linecap="round" stroke-linejoin="round"/>
<path d="M5.43762 11.5789L6.14547 15.1181L7.12539 18.5479C7.41449 19.5597 7.56115 20.6068 7.56115 21.6591V22.0995C7.56115 22.6354 7.52311 23.1707 7.44733 23.7011L6.85331 29.275" stroke="#0D0D12" stroke-width="2.12353" stroke-linecap="round" stroke-linejoin="round"/>
<path d="M3.31396 6.62402V7.45332C3.31396 7.69202 3.31396 7.81138 3.32021 7.92637C3.37265 8.89256 3.75344 9.81188 4.39956 10.5322C4.47647 10.6179 4.56086 10.7023 4.72965 10.8711C4.89845 11.0399 4.98283 11.1243 5.06857 11.2012C5.78886 11.8473 6.70818 12.2281 7.67437 12.2805C7.78937 12.2868 7.90872 12.2868 8.14742 12.2868H11.2217C11.4604 12.2868 11.5798 12.2868 11.6948 12.2805C12.6609 12.2281 13.5803 11.8473 14.3006 11.2012C14.3863 11.1243 14.4707 11.0399 14.6395 10.8711" stroke="#0D0D12" stroke-width="2.12353" stroke-linecap="round" stroke-linejoin="round"/>
<path d="M21.718 19.3651H20.3023C18.7385 19.3651 17.4709 18.0975 17.4709 16.5337C17.4709 18.0975 16.2033 19.3651 14.6396 19.3651H13.2239" stroke="#0D0D12" stroke-width="2.12353" stroke-linecap="round" stroke-linejoin="round"/>
<path d="M21.718 26.4434H20.3023C18.7385 26.4434 17.4709 25.1758 17.4709 23.6121C17.4709 25.1758 16.2033 26.4434 14.6396 26.4434H13.2239" stroke="#0D0D12" stroke-width="2.12353" stroke-linecap="round" stroke-linejoin="round"/>
</svg>
