<svg width="166" height="157" viewBox="0 0 166 157" fill="none" xmlns="http://www.w3.org/2000/svg">
<g filter="url(#filter0_d_625_1755)">
<rect x="5.12012" y="24.9144" width="136" height="125.697" rx="12.3636" transform="rotate(-10 5.12012 24.9144)" fill="#FEECBA"/>
<rect x="6.01529" y="25.5412" width="134.455" height="124.152" rx="11.5909" transform="rotate(-10 6.01529 25.5412)" stroke="url(#paint0_linear_625_1755)" stroke-opacity="0.32" stroke-width="1.54545"/>
<path d="M62.6869 91.9474C59.4448 92.5191 56.9813 90.5996 56.3411 86.969L56.3397 86.9611C55.6995 83.3305 57.3608 80.7 60.6029 80.1283C63.1237 79.6839 65.2922 80.9035 66.0473 83.0998L66.0757 83.1683L64.3159 83.4786L64.2404 83.3285C63.6237 82.0559 62.4175 81.4267 60.8797 81.6979C58.7552 82.0725 57.6881 83.9934 58.155 86.641L58.1564 86.6489C58.6232 89.2965 60.2937 90.7511 62.4102 90.3779C63.9322 90.1095 64.8467 89.1309 65.0189 87.6048L65.0301 87.5293L66.7899 87.219L66.796 87.2997C66.8404 89.6376 65.2156 91.5016 62.6869 91.9474ZM71.272 90.3928C69.6073 90.6863 68.3093 89.8608 68.0452 88.3626L68.0424 88.3468C67.7866 86.8961 68.7557 85.8098 70.7085 85.3429L72.9519 84.8084L72.8414 84.1822C72.6793 83.2626 71.9869 82.8126 70.9247 82.9999C69.9339 83.1746 69.4059 83.7499 69.3807 84.4409L69.3774 84.5151L67.7603 84.8002L67.7529 84.7116C67.6188 83.2559 68.669 81.9346 70.7221 81.5726C72.7593 81.2133 74.2415 82.0636 74.5364 83.7362L75.5498 89.4832L73.8296 89.7865L73.5976 88.4706L73.5659 88.4762C73.2403 89.4572 72.3739 90.1985 71.272 90.3928ZM69.7663 88.0183C69.8948 88.7476 70.5784 89.1011 71.4979 88.939C72.7028 88.7265 73.4704 87.7493 73.2789 86.6633L73.1643 86.0133L71.1495 86.4993C70.1301 86.7445 69.6391 87.2969 69.7635 88.0024L69.7663 88.0183ZM77.2454 89.1842L75.2285 77.7456L76.9407 77.4437L78.9576 88.8823L77.2454 89.1842ZM84.2973 88.1124C81.9033 88.5346 80.0496 87.1532 79.5772 84.4739L79.5744 84.458C79.1047 81.7946 80.3915 79.8676 82.7616 79.4497C85.1397 79.0303 87.0144 80.3917 87.4855 83.0631L87.4883 83.0789C87.9621 85.7662 86.6833 87.6917 84.2973 88.1124ZM84.0522 86.6763C85.3919 86.44 86.0607 85.2269 85.7364 83.3878L85.7336 83.372C85.4121 81.5488 84.3543 80.6482 83.0146 80.8844C81.6987 81.1165 81.0047 82.3259 81.3262 84.1491L81.329 84.165C81.6547 86.0119 82.7126 86.9125 84.0522 86.6763ZM89.5148 87.0208L88.0444 78.6816L89.7566 78.3797L90.0082 79.8066L90.0478 79.7996C90.1454 78.7771 90.7354 78.0437 91.6866 77.876C91.9324 77.8326 92.1534 77.8345 92.2923 77.8345L92.5733 79.4279C92.4287 79.3961 92.1205 79.4096 91.7876 79.4683C90.6857 79.6626 90.1312 80.5042 90.3506 81.7487L91.227 86.7189L89.5148 87.0208ZM94.0399 76.3004C93.485 76.3982 92.9628 76.0326 92.8677 75.4936C92.7713 74.9466 93.1369 74.4244 93.6918 74.3266C94.2546 74.2273 94.7689 74.5944 94.8653 75.1413C94.9604 75.6804 94.6027 76.2011 94.0399 76.3004ZM94.8806 86.0747L93.4102 77.7355L95.1224 77.4336L96.5928 85.7728L94.8806 86.0747ZM101.917 85.0057C99.4672 85.4376 97.6899 84.0264 97.2259 81.3946L97.2245 81.3867C96.7646 78.7787 97.9632 76.7692 100.302 76.3569C102.64 75.9445 104.371 77.3721 104.813 79.877L104.915 80.4557L99.0094 81.497C99.3192 83.0688 100.345 83.836 101.709 83.5956C102.724 83.4167 103.305 82.7747 103.409 82.1107L103.421 82.0431L105.046 81.7566L105.046 81.8466C105.01 83.2179 103.938 84.6492 101.917 85.0057ZM100.557 77.7586C99.4472 77.9542 98.7239 78.8583 98.8193 80.28L103.005 79.542C102.608 78.1244 101.675 77.5615 100.557 77.7586ZM110.025 83.5759C107.94 83.9435 106.538 83.1283 106.095 81.637L106.075 81.5671L107.771 81.268L107.801 81.3445C108.095 82.0854 108.745 82.4366 109.8 82.2507C110.83 82.069 111.373 81.5319 111.254 80.8581L111.253 80.8502C111.158 80.3112 110.802 80.0551 109.868 79.9991L108.451 79.9303C106.801 79.8452 105.882 79.2226 105.668 78.0098L105.667 78.0019C105.404 76.5116 106.524 75.2598 108.442 74.9215C110.416 74.5735 111.799 75.4657 112.136 76.8692L112.161 76.963L110.552 77.2467L110.534 77.1926C110.303 76.4815 109.642 76.0748 108.675 76.2453C107.756 76.4075 107.254 76.9455 107.371 77.6114L107.373 77.6193C107.464 78.1345 107.866 78.4232 108.8 78.4793L110.21 78.5494C111.984 78.6453 112.753 79.2045 112.964 80.4014L112.965 80.4094C113.233 81.9313 111.991 83.2293 110.025 83.5759Z" fill="#37394A"/>
<path d="M65.3254 120.918L64.7236 117.506L56.1387 119.019L55.7299 116.701L61.0039 103.989L64.8564 103.309L66.8859 114.819L69.2521 114.402L69.6463 116.638L67.2801 117.055L67.8818 120.467L65.3254 120.918ZM58.2241 116.383L64.3595 115.302L62.6948 105.861L62.6235 105.873L58.2115 116.312L58.2241 116.383ZM78.4065 118.906C74.9701 119.512 72.2132 117.852 71.4764 115.064L71.4394 114.924L73.9839 114.475L74.0126 114.568C74.5111 116.074 76.1238 117.016 78.0382 116.678C80.2022 116.296 81.4481 114.532 81.0729 112.404L81.0687 112.38C80.6857 110.277 78.9135 109.057 76.7851 109.433C75.7269 109.619 74.8658 110.09 74.2852 110.83C74.0124 111.16 73.7976 111.541 73.6388 111.961L71.3083 112.372L70.4081 102.331L80.6339 100.527L81.0301 102.775L72.9565 104.198L73.3915 109.724L73.4509 109.714C74.0205 108.424 75.332 107.519 77.0204 107.221C80.3022 106.642 83.0856 108.591 83.6643 111.873L83.6685 111.897C84.2828 115.381 82.1044 118.254 78.4065 118.906ZM93.09 116.317C88.9878 117.04 85.9366 114.059 84.9764 108.614L84.9722 108.59C84.012 103.144 85.8618 99.3114 89.964 98.588C94.0543 97.8668 97.1152 100.833 98.0755 106.279L98.0797 106.303C99.0399 111.749 97.1803 115.595 93.09 116.317ZM92.6979 114.093C95.1355 113.663 96.1179 110.891 95.3924 106.777L95.3882 106.753C94.6628 102.639 92.7957 100.394 90.3581 100.823C87.9087 101.255 86.934 104.002 87.6595 108.116L87.6636 108.14C88.3891 112.254 90.2485 114.525 92.6979 114.093Z" fill="#37394A"/>
<path d="M104.635 116.018L102.87 106.009L104.077 105.796L105.131 111.775L105.159 111.77L107.76 108.029L109.224 107.771L106.645 111.437L110.593 114.967L109.192 115.214L105.921 112.322L105.362 113.086L105.842 115.805L104.635 116.018ZM113.592 114.581C111.546 114.942 109.992 113.714 109.587 111.418L109.586 111.411C109.185 109.136 110.253 107.446 112.257 107.093C114.054 106.776 115.325 107.782 115.696 108.99L115.712 109.044L114.533 109.252L114.509 109.199C114.202 108.509 113.507 107.974 112.446 108.161C111.19 108.382 110.534 109.571 110.823 111.208L110.824 111.215C111.12 112.893 112.155 113.733 113.404 113.513C114.388 113.339 114.922 112.673 114.981 111.833L114.985 111.775L116.171 111.566L116.173 111.616C116.221 113.023 115.222 114.294 113.592 114.581ZM119.32 113.571C117.884 113.824 116.767 113.127 116.536 111.816L116.534 111.803C116.317 110.575 117.139 109.636 118.779 109.247L120.825 108.764L120.719 108.161C120.564 107.28 119.894 106.848 118.888 107.025C117.959 107.189 117.454 107.735 117.429 108.405L117.427 108.47L116.261 108.675L116.255 108.598C116.15 107.393 117.014 106.254 118.714 105.954C120.42 105.653 121.651 106.388 121.905 107.83L122.785 112.817L121.578 113.03L121.371 111.858L121.343 111.863C121.06 112.728 120.284 113.401 119.32 113.571ZM117.771 111.599C117.893 112.292 118.539 112.629 119.406 112.476C120.543 112.276 121.279 111.338 121.095 110.29L120.991 109.701L119.083 110.159C118.129 110.384 117.65 110.912 117.768 111.585L117.771 111.599ZM123.873 112.625L122.108 102.617L123.315 102.404L125.079 112.413L123.873 112.625Z" fill="#37394A"/>
<path fill-rule="evenodd" clip-rule="evenodd" d="M69.0679 31.5903L70.8141 32.3327C74.8399 34.0417 76.7502 36.5568 77.6276 38.7204C77.7457 39.0107 77.844 39.2912 77.9224 39.5619C78.2678 38.6369 78.4729 37.4624 78.2303 36.0866L77.8546 33.9558L79.7453 35.0076C83.724 37.2207 86.0713 39.4851 87.4797 41.5865C88.8956 43.695 89.3187 45.5726 89.5538 46.9058C90.6201 52.9532 86.4566 58.6986 80.3159 59.7813C74.1752 60.8641 68.2978 56.8892 67.2315 50.8419C66.8257 48.5406 66.8583 46.7794 67.1346 45.2848C67.4091 43.8157 67.9115 42.6537 68.3711 41.5934L68.3843 41.5618C68.8512 40.4835 69.2692 39.5079 69.4966 38.2815C69.7216 37.0659 69.7671 35.5555 69.3974 33.4592L69.0679 31.5903Z" fill="#F99B30"/>
</g>
<defs>
<filter id="filter0_d_625_1755" x="-1.29066" y="-1.90711" width="168.583" height="160.225" filterUnits="userSpaceOnUse" color-interpolation-filters="sRGB">
<feFlood flood-opacity="0" result="BackgroundImageFix"/>
<feColorMatrix in="SourceAlpha" type="matrix" values="0 0 0 0 0 0 0 0 0 0 0 0 0 0 0 0 0 0 127 0" result="hardAlpha"/>
<feOffset dy="3.20539"/>
<feGaussianBlur stdDeviation="3.20539"/>
<feComposite in2="hardAlpha" operator="out"/>
<feColorMatrix type="matrix" values="0 0 0 0 0.215686 0 0 0 0 0.223529 0 0 0 0 0.290196 0 0 0 0.04 0"/>
<feBlend mode="normal" in2="BackgroundImageFix" result="effect1_dropShadow_625_1755"/>
<feBlend mode="normal" in="SourceGraphic" in2="effect1_dropShadow_625_1755" result="shape"/>
</filter>
<linearGradient id="paint0_linear_625_1755" x1="5.12012" y1="87.7629" x2="141.12" y2="87.7629" gradientUnits="userSpaceOnUse">
<stop stop-color="#F99B30" stop-opacity="0.64"/>
<stop offset="0.307692" stop-color="#F99B30"/>
<stop offset="1" stop-color="#F99B30" stop-opacity="0.52"/>
</linearGradient>
</defs>
</svg>
