<svg width="170" height="162" viewBox="0 0 170 162" fill="none" xmlns="http://www.w3.org/2000/svg">
<g filter="url(#filter0_d_625_1763)">
<rect x="4.82886" y="25.9265" width="140" height="129.394" rx="12.7273" transform="rotate(-10 4.82886 25.9265)" fill="#E2FECC"/>
<rect x="5.75036" y="26.5718" width="138.409" height="127.803" rx="11.9318" transform="rotate(-10 5.75036 26.5718)" stroke="url(#paint0_linear_625_1763)" stroke-opacity="0.32" stroke-width="1.59091"/>
<path d="M40.4256 99.701C37.0881 100.289 34.5521 98.3134 33.8931 94.5761L33.8917 94.5679C33.2327 90.8306 34.9428 88.1227 38.2803 87.5342C40.8752 87.0767 43.1075 88.3322 43.8847 90.5931L43.914 90.6636L42.1025 90.9831L42.0247 90.8285C41.3899 89.5185 40.1482 88.8708 38.5652 89.1499C36.3783 89.5356 35.2798 91.513 35.7603 94.2385L35.7618 94.2466C36.2423 96.9721 37.962 98.4694 40.1407 98.0853C41.7074 97.809 42.6488 96.8016 42.8262 95.2306L42.8377 95.1529L44.6493 94.8334L44.6555 94.9165C44.7012 97.3232 43.0287 99.242 40.4256 99.701ZM49.2632 98.1006C47.5495 98.4027 46.2134 97.553 45.9414 96.0107L45.9385 95.9944C45.6752 94.5011 46.6728 93.3828 48.6831 92.9022L50.9924 92.3519L50.8788 91.7073C50.7118 90.7607 49.9991 90.2974 48.9057 90.4902C47.8857 90.6701 47.3422 91.2623 47.3162 91.9737L47.3128 92.05L45.6482 92.3435L45.6405 92.2523C45.5025 90.7538 46.5836 89.3936 48.6971 89.0209C50.7942 88.6512 52.32 89.5264 52.6236 91.2482L53.6668 97.1643L51.896 97.4765L51.6572 96.1219L51.6245 96.1277C51.2894 97.1375 50.3974 97.9006 49.2632 98.1006ZM47.7131 95.6562C47.8455 96.407 48.5491 96.7709 49.4957 96.604C50.736 96.3853 51.5262 95.3793 51.3291 94.2614L51.2111 93.5923L49.137 94.0926C48.0877 94.3449 47.5822 94.9137 47.7102 95.6399L47.7131 95.6562ZM55.347 96.868L53.8333 88.2836L55.5959 87.9728L55.8549 89.4416L55.8957 89.4344C55.9961 88.3818 56.6034 87.6268 57.5826 87.4542C57.8356 87.4096 58.0631 87.4115 58.2062 87.4115L58.4954 89.0517C58.3466 89.0191 58.0293 89.0329 57.6866 89.0934C56.5523 89.2934 55.9815 90.1597 56.2074 91.4408L57.1095 96.5572L55.347 96.868ZM65.3888 95.274C64.1567 95.4913 63.0926 95.0395 62.4097 94.125L62.3689 94.1322L62.625 95.5847L60.8624 95.8955L58.7861 84.1204L60.5487 83.8096L61.3689 88.4609L61.4097 88.4537C61.7453 87.3512 62.6166 86.5665 63.8325 86.3522C65.9868 85.9723 67.7088 87.4356 68.1908 90.1692L68.1922 90.1774C68.6742 92.911 67.5676 94.8899 65.3888 95.274ZM64.6561 93.8383C66.0433 93.5937 66.7112 92.3232 66.3889 90.4953L66.3874 90.4872C66.068 88.6756 65.0045 87.7021 63.6172 87.9467C62.2871 88.1812 61.5449 89.5068 61.8586 91.2857L61.86 91.2939C62.1751 93.081 63.3178 94.0742 64.6561 93.8383ZM73.997 93.7562C71.5326 94.1907 69.6244 92.7687 69.138 90.0106L69.1351 89.9943C68.6517 87.2525 69.9763 85.2688 72.4161 84.8386C74.8642 84.407 76.794 85.8083 77.2789 88.5583L77.2818 88.5746C77.7696 91.3409 76.4532 93.3231 73.997 93.7562ZM73.7447 92.2778C75.1237 92.0346 75.8122 90.7857 75.4784 88.8926L75.4755 88.8763C75.1446 86.9995 74.0556 86.0724 72.6766 86.3156C71.322 86.5545 70.6076 87.7995 70.9385 89.6763L70.9414 89.6926C71.2767 91.5939 72.3656 92.5209 73.7447 92.2778ZM79.4332 92.6209L77.357 80.8459L79.1196 80.5351L79.9311 85.1374L79.9719 85.1302C80.2533 84.0541 81.0732 83.3121 82.3544 83.0862C84.1904 82.7625 85.6398 83.9205 86.0053 85.9931L86.9405 91.2972L85.1779 91.608L84.3017 86.6385C84.0513 85.2186 83.1836 84.4966 81.9433 84.7153C80.7274 84.9297 80.0836 86.0024 80.3196 87.3406L81.1958 92.3101L79.4332 92.6209ZM90.1213 93.6896C89.7786 93.75 89.4042 93.774 89.1848 93.7706L88.9416 92.3915C89.0861 92.3997 89.2959 92.3964 89.5325 92.3546C90.3649 92.2079 90.783 91.907 90.93 91.0228L91.0049 90.5889L86.3645 82.5474L88.274 82.2107L91.668 88.8145L91.7252 88.8044L92.6559 81.4381L94.5164 81.11L92.9018 90.6583C92.579 92.5495 91.8023 93.3932 90.1213 93.6896ZM99.9356 89.1825C97.7487 89.5681 96.0401 88.0857 95.5581 85.352L95.5566 85.3439C95.0746 82.6102 96.1923 80.6462 98.3466 80.2664C99.5625 80.052 100.65 80.4913 101.342 81.4125L101.375 81.4068L100.555 76.7555L102.325 76.4433L104.402 88.2183L102.631 88.5306L102.375 87.0781L102.342 87.0838C102.005 88.1782 101.168 88.9652 99.9356 89.1825ZM100.133 87.5827C101.463 87.3482 102.197 86.024 101.882 84.2369L101.881 84.2288C101.567 82.4498 100.416 81.458 99.0942 81.6911C97.707 81.9357 97.0406 83.2143 97.36 85.0259L97.3615 85.034C97.6838 86.8619 98.7377 87.8287 100.133 87.5827ZM106.18 87.9048L104.666 79.3204L106.429 79.0096L106.688 80.4784L106.728 80.4712C106.829 79.4186 107.436 78.6636 108.415 78.491C108.668 78.4464 108.896 78.4483 109.039 78.4484L109.328 80.0885C109.179 80.0559 108.862 80.0698 108.519 80.1302C107.385 80.3302 106.814 81.1965 107.04 82.4776L107.942 87.594L106.18 87.9048ZM113.999 86.6859C112.286 86.988 110.949 86.1383 110.677 84.596L110.675 84.5797C110.411 83.0864 111.409 81.9681 113.419 81.4875L115.728 80.9372L115.615 80.2926C115.448 79.346 114.735 78.8827 113.642 79.0755C112.622 79.2554 112.078 79.8476 112.052 80.559L112.049 80.6353L110.384 80.9288L110.376 80.8376C110.238 79.339 111.32 77.9789 113.433 77.6062C115.53 77.2365 117.056 78.1117 117.36 79.8335L118.403 85.7495L116.632 86.0618L116.393 84.7072L116.361 84.713C116.025 85.7228 115.133 86.4859 113.999 86.6859ZM112.449 84.2415C112.581 84.9923 113.285 85.3562 114.232 85.1893C115.472 84.9706 116.262 83.9646 116.065 82.8467L115.947 82.1776L113.873 82.6779C112.824 82.9302 112.318 83.499 112.446 84.2252L112.449 84.2415ZM123.124 85.0937C121.427 85.393 120.484 84.8188 120.182 83.1052L119.315 78.1846L118.082 78.4019L117.835 76.9984L119.067 76.7811L118.673 74.5452L120.476 74.2272L120.87 76.4631L122.478 76.1796L122.725 77.5832L121.118 77.8666L121.967 82.6811C122.121 83.5542 122.559 83.7463 123.301 83.6154C123.489 83.5823 123.641 83.5386 123.769 83.4993L124.009 84.862C123.811 84.9306 123.483 85.0304 123.124 85.0937ZM128.901 84.0751C126.379 84.5198 124.55 83.067 124.072 80.3579L124.071 80.3497C123.597 77.665 124.831 75.5964 127.238 75.172C129.646 74.7475 131.428 76.217 131.882 78.7956L131.987 79.3913L125.908 80.4633C126.227 82.0814 127.283 82.8711 128.687 82.6236C129.731 82.4394 130.33 81.7786 130.437 81.0951L130.45 81.0255L132.123 80.7305L132.122 80.8232C132.085 82.2348 130.982 83.7082 128.901 84.0751ZM127.501 76.6149C126.359 76.8163 125.614 77.7469 125.712 79.2104L130.021 78.4507C129.612 76.9915 128.652 76.412 127.501 76.6149ZM137.248 82.6033C135.102 82.9818 133.658 82.1425 133.202 80.6074L133.181 80.5354L134.927 80.2275L134.958 80.3063C135.261 81.069 135.93 81.4305 137.016 81.2392C138.076 81.0521 138.635 80.4992 138.513 79.8056L138.512 79.7975C138.414 79.2426 138.048 78.979 137.087 78.9213L135.627 78.8505C133.929 78.7629 132.983 78.122 132.763 76.8735L132.761 76.8654C132.491 75.3313 133.643 74.0426 135.618 73.6944C137.65 73.3362 139.074 74.2546 139.421 75.6994L139.447 75.7959L137.79 76.088L137.772 76.0323C137.533 75.3003 136.854 74.8816 135.858 75.0572C134.912 75.2241 134.395 75.7779 134.516 76.4634L134.517 76.4715C134.611 77.0019 135.025 77.2991 135.986 77.3568L137.438 77.429C139.264 77.5277 140.055 78.1033 140.273 79.3355L140.274 79.3436C140.55 80.9104 139.272 82.2465 137.248 82.6033Z" fill="#37394A"/>
<path d="M68.7413 125.641C64.9714 126.306 62.1485 124.683 61.3965 121.85L61.3562 121.693L63.9879 121.229L64.0238 121.362C64.4715 122.898 66.1468 123.739 68.3377 123.352C70.492 122.972 71.7371 121.516 71.4349 119.802L71.4306 119.778C71.0788 117.783 69.4381 116.924 67.0757 117.34L64.9337 117.718L64.5581 115.588L66.6267 115.223C68.6464 114.867 69.8079 113.438 69.5187 111.798L69.5144 111.774C69.2144 110.072 67.889 109.284 65.8938 109.635C63.9354 109.981 62.7458 111.251 62.8637 112.921L62.8708 113.033L60.3004 113.487L60.2911 113.362C60.0402 110.365 62.0472 108.004 65.4989 107.395C69.0118 106.776 71.641 108.231 72.1201 110.948L72.1245 110.973C72.5108 113.164 71.203 114.909 69.1286 115.741L69.1394 115.803C71.7753 115.578 73.7897 116.838 74.2257 119.31L74.23 119.335C74.7631 122.358 72.4868 124.981 68.7413 125.641ZM84.126 122.928C79.9032 123.673 76.7623 120.605 75.7738 114.999L75.7695 114.974C74.781 109.368 76.6852 105.423 80.9081 104.678C85.1187 103.936 88.2696 106.99 89.2581 112.596L89.2624 112.62C90.2509 118.226 88.3366 122.186 84.126 122.928ZM83.7224 120.64C86.2317 120.197 87.2429 117.343 86.4962 113.108L86.4919 113.084C85.7451 108.848 83.823 106.537 81.3138 106.979C78.7923 107.424 77.789 110.251 78.5358 114.486L78.5401 114.511C79.2868 118.746 81.201 121.084 83.7224 120.64Z" fill="#37394A"/>
<path d="M99.6444 123.629C97.8094 123.952 96.5004 123.292 96.0637 122.235L96.0381 122.174L97.2876 121.953L97.3275 122.013C97.6576 122.507 98.4224 122.71 99.4363 122.532C100.743 122.301 101.358 121.449 101.156 120.3L100.988 119.35L100.96 119.355C100.662 120.254 99.898 120.934 98.8342 121.121C96.9635 121.451 95.4197 120.17 95.0106 117.849L95.0093 117.842C94.6027 115.536 95.6306 113.809 97.5156 113.476C98.5652 113.291 99.4942 113.716 100.097 114.464L100.126 114.459L99.9042 113.202L101.147 112.983L102.419 120.202C102.723 121.923 101.658 123.274 99.6444 123.629ZM98.9116 119.974C100.175 119.751 100.842 118.522 100.551 116.872L100.55 116.865C100.262 115.23 99.2089 114.311 97.9523 114.533C96.6313 114.766 95.9894 115.969 96.2803 117.618L96.2815 117.625C96.5786 119.31 97.5907 120.207 98.9116 119.974ZM103.54 120.218L102.231 112.792L103.473 112.573L103.695 113.83L103.723 113.825C103.822 112.924 104.369 112.268 105.204 112.12C105.419 112.083 105.611 112.086 105.713 112.082L105.926 113.289C105.82 113.271 105.549 113.282 105.249 113.335C104.285 113.505 103.775 114.287 103.974 115.415L104.783 119.999L103.54 120.218ZM109.583 119.299C108.105 119.56 106.956 118.842 106.718 117.493L106.715 117.479C106.492 116.215 107.338 115.249 109.027 114.848L111.133 114.351L111.024 113.73C110.864 112.823 110.174 112.378 109.139 112.56C108.182 112.729 107.663 113.292 107.637 113.981L107.634 114.048L106.435 114.259L106.428 114.18C106.32 112.94 107.21 111.767 108.959 111.458C110.716 111.149 111.983 111.904 112.244 113.39L113.15 118.523L111.907 118.742L111.695 117.536L111.666 117.541C111.374 118.431 110.576 119.124 109.583 119.299ZM107.989 117.269C108.114 117.983 108.779 118.329 109.672 118.172C110.843 117.966 111.6 117 111.41 115.922L111.303 115.315L109.339 115.786C108.357 116.019 107.864 116.562 107.986 117.255L107.989 117.269ZM114.205 118.337L112.896 110.911L114.138 110.692L114.33 111.778L114.358 111.773C114.564 110.978 115.22 110.354 116.177 110.186C117.191 110.007 118.032 110.396 118.513 111.246L118.542 111.241C118.799 110.276 119.575 109.586 120.618 109.403C122.089 109.143 123.208 109.94 123.469 111.418L124.373 116.544L123.131 116.763L122.277 111.922C122.097 110.901 121.426 110.394 120.448 110.566C119.462 110.74 118.899 111.598 119.078 112.612L119.91 117.331L118.668 117.55L117.79 112.574C117.632 111.674 116.928 111.187 116.006 111.349C115.021 111.523 114.444 112.427 114.627 113.463L115.448 118.118L114.205 118.337Z" fill="#37394A"/>
<g clip-path="url(#clip0_625_1763)">
<path d="M93.6989 38.2574C93.4286 36.7346 92.5653 35.3813 91.2984 34.4942C90.0316 33.6071 88.4646 33.2588 86.9412 33.5256L67.0958 37.0249C65.807 37.2534 64.6325 37.9088 63.7612 38.8856C62.8899 39.8624 62.3724 41.1039 62.292 42.4103C62.2116 43.7168 62.573 45.0124 63.318 46.0886C64.0629 47.1649 65.1482 47.9593 66.3993 48.3441L68.2601 58.8974C68.3822 59.59 68.7745 60.2056 69.3505 60.609C69.9266 61.0124 70.6393 61.1704 71.3318 61.0482L91.1772 57.549C91.8697 57.4269 92.4854 57.0346 92.8887 56.4586C93.2921 55.8825 93.4501 55.1698 93.328 54.4773L91.4671 43.924C92.325 43.2767 92.9874 42.405 93.3812 41.4051C93.775 40.4051 93.8849 39.3158 93.6989 38.2574ZM69.6279 48.3308C69.9532 48.1455 70.2027 47.8515 70.3326 47.5003C70.4625 47.1492 70.4643 46.7635 70.3379 46.4111C70.2114 46.0587 69.9647 45.7622 69.6412 45.5738C69.3177 45.3853 68.9381 45.317 68.5692 45.3808C67.8767 45.503 67.164 45.345 66.5879 44.9416C66.0119 44.5383 65.6197 43.9226 65.4975 43.23C65.3754 42.5375 65.5334 41.8248 65.9368 41.2488C66.3401 40.6727 66.9558 40.2805 67.6483 40.1584L79.66 38.0404C80.3526 37.9183 81.0652 38.0763 81.6413 38.4796C82.2173 38.883 82.6096 39.4987 82.7317 40.1912C82.8538 40.8837 82.6958 41.5964 82.2924 42.1725C81.8891 42.7485 81.2734 43.1407 80.5809 43.2629C80.2124 43.3291 79.879 43.5231 79.6395 43.8108C79.4 44.0985 79.2696 44.4615 79.2713 44.8359C79.2729 45.2103 79.4066 45.5721 79.6488 45.8576C79.8909 46.1432 80.226 46.3342 80.595 46.397L82.2687 55.8889L71.3015 57.8227L69.6279 48.3308ZM88.4146 41.8816C88.0461 41.9478 87.7127 42.1418 87.4732 42.4295C87.2337 42.7172 87.1033 43.0802 87.105 43.4546C87.1066 43.829 87.2403 44.1908 87.4824 44.4763C87.7246 44.7619 88.0597 44.9529 88.4287 45.0157L90.1024 54.5076L85.4022 55.3363L83.6334 45.3053C84.2454 44.8446 84.7605 44.2677 85.1492 43.6077C85.5379 42.9476 85.7925 42.2173 85.8984 41.4587C86.0044 40.7 85.9596 39.9279 85.7667 39.1866C85.5738 38.4453 85.2365 37.7494 84.7741 37.1386L87.4937 36.6591C88.1863 36.537 88.8989 36.695 89.475 37.0983C90.051 37.5017 90.4433 38.1174 90.5654 38.8099C90.6875 39.5024 90.5295 40.2151 90.1261 40.7912C89.7228 41.3672 89.1071 41.7595 88.4146 41.8816Z" fill="#3FBF21"/>
</g>
</g>
<defs>
<filter id="filter0_d_625_1763" x="-1.77047" y="-1.68394" width="173.541" height="164.938" filterUnits="userSpaceOnUse" color-interpolation-filters="sRGB">
<feFlood flood-opacity="0" result="BackgroundImageFix"/>
<feColorMatrix in="SourceAlpha" type="matrix" values="0 0 0 0 0 0 0 0 0 0 0 0 0 0 0 0 0 0 127 0" result="hardAlpha"/>
<feOffset dy="3.29966"/>
<feGaussianBlur stdDeviation="3.29966"/>
<feComposite in2="hardAlpha" operator="out"/>
<feColorMatrix type="matrix" values="0 0 0 0 0.215686 0 0 0 0 0.223529 0 0 0 0 0.290196 0 0 0 0.04 0"/>
<feBlend mode="normal" in2="BackgroundImageFix" result="effect1_dropShadow_625_1763"/>
<feBlend mode="normal" in="SourceGraphic" in2="effect1_dropShadow_625_1763" result="shape"/>
</filter>
<linearGradient id="paint0_linear_625_1763" x1="4.82886" y1="90.6235" x2="144.829" y2="90.6235" gradientUnits="userSpaceOnUse">
<stop stop-color="#CAFC20" stop-opacity="0.64"/>
<stop offset="0.307692" stop-color="#CAFC20"/>
<stop offset="1" stop-color="#CAFC20" stop-opacity="0.52"/>
</linearGradient>
<clipPath id="clip0_625_1763">
<rect width="33.9394" height="33.9394" fill="white" transform="translate(60.0005 33.4293) rotate(-10)"/>
</clipPath>
</defs>
</svg>
