<svg width="182" height="73" viewBox="0 0 182 73" fill="none" xmlns="http://www.w3.org/2000/svg">
<g filter="url(#filter0_dd_625_1028)">
<rect x="12.1428" y="6" width="157.714" height="48" rx="8.57143" fill="white"/>
<rect x="12.5714" y="6.42857" width="156.857" height="47.1429" rx="8.14286" stroke="url(#paint0_linear_625_1028)" stroke-width="0.857143"/>
<g clip-path="url(#clip0_625_1028)">
<path d="M42.0364 26.1436C42.0354 25.2062 41.6625 24.3075 40.9997 23.6447C40.3368 22.9818 39.4381 22.609 38.5007 22.6079H26.2864C25.4931 22.6087 24.723 22.8763 24.1001 23.3676C23.4772 23.859 23.0376 24.5456 22.8522 25.317C22.6667 26.0883 22.746 26.8997 23.0774 27.6205C23.4088 28.3414 23.973 28.9298 24.6793 29.2912V35.7865C24.6793 36.2127 24.8486 36.6215 25.15 36.9229C25.4514 37.2243 25.8602 37.3936 26.2864 37.3936H38.5007C38.927 37.3936 39.3357 37.2243 39.6371 36.9229C39.9385 36.6215 40.1079 36.2127 40.1079 35.7865V29.2912C40.6881 28.9951 41.1752 28.5445 41.5155 27.9891C41.8558 27.4337 42.0361 26.795 42.0364 26.1436ZM26.6079 29.6231C26.8216 29.5467 27.0015 29.3974 27.1159 29.2015C27.2304 29.0056 27.2721 28.7755 27.2337 28.5519C27.1953 28.3282 27.0793 28.1253 26.906 27.9788C26.7328 27.8322 26.5134 27.7515 26.2864 27.7508C25.8602 27.7508 25.4514 27.5814 25.15 27.28C24.8486 26.9786 24.6793 26.5699 24.6793 26.1436C24.6793 25.7174 24.8486 25.3086 25.15 25.0072C25.4514 24.7058 25.8602 24.5365 26.2864 24.5365H33.6793C34.1055 24.5365 34.5143 24.7058 34.8157 25.0072C35.1171 25.3086 35.2864 25.7174 35.2864 26.1436C35.2864 26.5699 35.1171 26.9786 34.8157 27.28C34.5143 27.5814 34.1055 27.7508 33.6793 27.7508C33.4524 27.7515 33.233 27.8322 33.0597 27.9788C32.8864 28.1253 32.7704 28.3282 32.732 28.5519C32.6936 28.7755 32.7353 29.0056 32.8498 29.2015C32.9643 29.3974 33.1442 29.5467 33.3579 29.6231V35.4651H26.6079V29.6231ZM38.5007 27.7508C38.2738 27.7515 38.0544 27.8322 37.8811 27.9788C37.7079 28.1253 37.5918 28.3282 37.5534 28.5519C37.515 28.7755 37.5567 29.0056 37.6712 29.2015C37.7857 29.3974 37.9656 29.5467 38.1793 29.6231V35.4651H35.2864V29.2912C35.7002 29.0806 36.0684 28.7905 36.3699 28.4374C36.6714 28.0843 36.9002 27.6752 37.0433 27.2335C37.1864 26.7918 37.241 26.3262 37.2038 25.8634C37.1667 25.4006 37.0386 24.9497 36.8269 24.5365H38.5007C38.927 24.5365 39.3357 24.7058 39.6371 25.0072C39.9385 25.3086 40.1079 25.7174 40.1079 26.1436C40.1079 26.5699 39.9385 26.9786 39.6371 27.28C39.3357 27.5814 38.927 27.7508 38.5007 27.7508Z" fill="#23A605"/>
</g>
<path d="M54.4207 36.7009C50.9972 36.7009 48.8208 34.2902 48.8208 30.4565V30.4481C48.8208 26.6144 50.9972 24.2204 54.4207 24.2204C57.0826 24.2204 59.0831 25.861 59.4598 28.2467L59.4765 28.322H57.6183L57.568 28.1546C57.1663 26.74 56.0446 25.8778 54.4207 25.8778C52.1774 25.8778 50.7377 27.6523 50.7377 30.4481V30.4565C50.7377 33.2522 52.1858 35.0435 54.4207 35.0435C56.0279 35.0435 57.1411 34.2065 57.5932 32.6747L57.6183 32.5993H59.4765L59.4682 32.683C59.0915 35.0854 57.0909 36.7009 54.4207 36.7009ZM63.4936 36.659C61.7358 36.659 60.5555 35.5792 60.5555 33.9972V33.9805C60.5555 32.4487 61.7441 31.5112 63.8284 31.3856L66.2224 31.2433V30.582C66.2224 29.611 65.5946 29.0251 64.4729 29.0251C63.4266 29.0251 62.7821 29.519 62.6314 30.2221L62.6147 30.2974H60.9071L60.9155 30.2054C61.041 28.6903 62.3552 27.5268 64.5232 27.5268C66.6744 27.5268 68.0388 28.6652 68.0388 30.4314V36.5H66.2224V35.1105H66.1889C65.6783 36.0564 64.6571 36.659 63.4936 36.659ZM62.3803 33.9554C62.3803 34.7254 63.0165 35.2109 63.9874 35.2109C65.2598 35.2109 66.2224 34.3488 66.2224 33.202V32.5156L64.0711 32.6496C62.983 32.7165 62.3803 33.1936 62.3803 33.9386V33.9554ZM69.7623 36.5V27.6942H71.5703V29.2009H71.6122C71.8968 28.1713 72.6334 27.5268 73.6379 27.5268C73.8974 27.5268 74.1234 27.5686 74.2657 27.5938V29.2762C74.1234 29.2176 73.8053 29.1758 73.4537 29.1758C72.2902 29.1758 71.5703 29.9375 71.5703 31.2517V36.5H69.7623ZM80.0322 36.6758C78.7682 36.6758 77.7888 36.0396 77.2699 35.01H77.228V36.5H75.42V24.4213H77.228V29.1925H77.2699C77.7972 28.1546 78.8017 27.5268 80.0489 27.5268C82.2587 27.5268 83.7152 29.2846 83.7152 32.0887V32.0971C83.7152 34.9012 82.2671 36.6758 80.0322 36.6758ZM79.555 35.1189C80.978 35.1189 81.8653 33.9721 81.8653 32.0971V32.0887C81.8653 30.2305 80.978 29.0753 79.555 29.0753C78.1906 29.0753 77.2197 30.264 77.2197 32.0887V32.0971C77.2197 33.9302 78.1823 35.1189 79.555 35.1189ZM88.3768 36.6758C86.1753 36.6758 84.8863 35.5876 84.7021 33.9805L84.6937 33.9051H86.485L86.5018 33.9888C86.6692 34.8008 87.2719 35.2779 88.3851 35.2779C89.4733 35.2779 90.1262 34.8259 90.1262 34.1144V34.106C90.1262 33.5368 89.8081 33.2104 88.8623 32.9844L87.4225 32.6579C85.7484 32.2729 84.9197 31.4693 84.9197 30.1886V30.1802C84.9197 28.6066 86.2925 27.5268 88.3182 27.5268C90.4024 27.5268 91.658 28.6903 91.7501 30.1886L91.7585 30.2891H90.0592L90.0509 30.2305C89.9421 29.4604 89.3394 28.9247 88.3182 28.9247C87.3472 28.9247 86.7361 29.385 86.7361 30.0882V30.0965C86.7361 30.6406 87.0961 31.0089 88.0419 31.2349L89.4733 31.5614C91.273 31.9799 91.9594 32.6914 91.9594 33.9554V33.9637C91.9594 35.5709 90.4527 36.6758 88.3768 36.6758Z" fill="#24242D"/>
<path d="M125.828 36.7009C123.409 36.7009 121.726 35.236 121.559 33.2439L121.551 33.1434H123.342L123.35 33.2104C123.509 34.2985 124.497 35.1356 125.845 35.1356C127.368 35.1356 128.431 34.0809 128.431 32.5826V32.5658C128.423 31.0843 127.36 30.0379 125.861 30.0379C125.116 30.0379 124.472 30.2556 123.986 30.6908C123.76 30.8834 123.568 31.1177 123.409 31.3856H121.768L122.363 24.4213H129.561V26.0033H123.878L123.509 29.8287H123.551C124.095 29.0167 125.1 28.5564 126.288 28.5564C128.599 28.5564 130.264 30.2221 130.264 32.5324V32.5491C130.264 35.0017 128.431 36.7009 125.828 36.7009ZM131.754 36.5V35.2109L136.006 30.9336C137.613 29.3265 137.973 28.6903 137.973 27.7528V27.736C137.964 26.5893 137.094 25.769 135.872 25.769C134.457 25.769 133.444 26.7232 133.428 27.9453V27.9955H131.653V27.9453C131.653 25.7857 133.486 24.2204 135.847 24.2204C138.165 24.2204 139.823 25.6769 139.823 27.6272V27.644C139.823 29.0251 139.178 30.0045 137.01 32.1473L134.265 34.8426V34.918H140.015V36.5H131.754ZM148.912 39.6055C146.651 39.6055 145.22 38.5592 144.952 37.2115L144.944 37.1362H146.735L146.769 37.2031C147.011 37.764 147.773 38.149 148.903 38.149C150.343 38.149 151.138 37.3789 151.138 36.1484V34.9431H151.096C150.594 35.8973 149.59 36.5084 148.326 36.5084C146.116 36.5084 144.659 34.7757 144.659 32.0301V32.0218C144.659 29.2595 146.132 27.5268 148.367 27.5268C149.606 27.5268 150.577 28.1964 151.096 29.1925H151.138V27.6942H152.954V36.2573C152.954 38.2662 151.398 39.6055 148.912 39.6055ZM148.836 35.0352C150.217 35.0352 151.138 33.8717 151.138 32.0552V32.0469C151.138 30.2388 150.209 29.0753 148.836 29.0753C147.405 29.0753 146.509 30.2305 146.509 32.0469V32.0552C146.509 33.8968 147.405 35.0352 148.836 35.0352ZM154.711 36.5V27.6942H156.52V29.2009H156.561C156.846 28.1713 157.583 27.5268 158.587 27.5268C158.847 27.5268 159.073 27.5686 159.215 27.5938V29.2762C159.073 29.2176 158.754 29.1758 158.403 29.1758C157.239 29.1758 156.52 29.9375 156.52 31.2517V36.5H154.711Z" fill="#24242D" fill-opacity="0.92"/>
</g>
<defs>
<filter id="filter0_dd_625_1028" x="0.142822" y="0.857143" width="181.714" height="72" filterUnits="userSpaceOnUse" color-interpolation-filters="sRGB">
<feFlood flood-opacity="0" result="BackgroundImageFix"/>
<feColorMatrix in="SourceAlpha" type="matrix" values="0 0 0 0 0 0 0 0 0 0 0 0 0 0 0 0 0 0 127 0" result="hardAlpha"/>
<feOffset dy="2.66667"/>
<feGaussianBlur stdDeviation="2.66667"/>
<feComposite in2="hardAlpha" operator="out"/>
<feColorMatrix type="matrix" values="0 0 0 0 0.215686 0 0 0 0 0.223529 0 0 0 0 0.290196 0 0 0 0.04 0"/>
<feBlend mode="normal" in2="BackgroundImageFix" result="effect1_dropShadow_625_1028"/>
<feColorMatrix in="SourceAlpha" type="matrix" values="0 0 0 0 0 0 0 0 0 0 0 0 0 0 0 0 0 0 127 0" result="hardAlpha"/>
<feMorphology radius="1.71429" operator="dilate" in="SourceAlpha" result="effect2_dropShadow_625_1028"/>
<feOffset dy="6.85714"/>
<feGaussianBlur stdDeviation="5.14286"/>
<feComposite in2="hardAlpha" operator="out"/>
<feColorMatrix type="matrix" values="0 0 0 0 0.792157 0 0 0 0 0.988235 0 0 0 0 0.12549 0 0 0 0.08 0"/>
<feBlend mode="normal" in2="effect1_dropShadow_625_1028" result="effect2_dropShadow_625_1028"/>
<feBlend mode="normal" in="SourceGraphic" in2="effect2_dropShadow_625_1028" result="shape"/>
</filter>
<linearGradient id="paint0_linear_625_1028" x1="91" y1="6" x2="91" y2="54" gradientUnits="userSpaceOnUse">
<stop stop-color="#23A605" stop-opacity="0.12"/>
<stop offset="1" stop-color="#23A605" stop-opacity="0.06"/>
</linearGradient>
<clipPath id="clip0_625_1028">
<rect width="20.5714" height="20.5714" fill="white" transform="translate(22.4285 19.7142)"/>
</clipPath>
</defs>
</svg>
