<svg width="385" height="143" viewBox="0 0 385 143" fill="none" xmlns="http://www.w3.org/2000/svg">
<path d="M18.9269 12.4076C18.842 12.024 18.7193 11.6696 18.5587 11.3447C18.3981 11.0198 18.1869 10.7361 17.9252 10.4936C17.6635 10.2511 17.3508 10.0621 16.9871 9.9266C16.636 9.77924 16.2213 9.69721 15.7429 9.68051C15.0437 9.65609 14.4316 9.77595 13.9066 10.0401C13.3938 10.3047 12.9696 10.6706 12.634 11.1378C12.2988 11.5928 12.0409 12.1181 11.8605 12.7135C11.6923 13.3095 11.5973 13.9202 11.5754 14.5458C11.5536 15.1714 11.6058 15.7873 11.732 16.3935C11.8704 17.0001 12.0908 17.5482 12.393 18.0377C12.6957 18.515 13.0935 18.9035 13.5866 19.2032C14.0919 19.5033 14.6942 19.6656 15.3934 19.69C15.9086 19.708 16.3655 19.6379 16.764 19.4799C17.1629 19.3096 17.5088 19.0761 17.8017 18.7793C18.0949 18.4702 18.3286 18.1099 18.5026 17.6984C18.6766 17.2869 18.7965 16.8428 18.8623 16.3662L21.1071 16.4445C21.0306 17.2279 20.8338 17.9395 20.5167 18.5793C20.2119 19.2196 19.8058 19.7704 19.2984 20.2316C18.7915 20.6806 18.2023 21.0223 17.5309 21.2568C16.8595 21.4913 16.1252 21.5946 15.3279 21.5667C14.3465 21.5325 13.4696 21.3238 12.6969 20.9406C11.937 20.5456 11.2981 20.0259 10.7802 19.3815C10.2623 18.7371 9.87075 17.9926 9.60548 17.1482C9.35248 16.3043 9.24247 15.41 9.27546 14.4655C9.30801 13.5332 9.47992 12.655 9.79118 11.8307C10.1147 11.0069 10.5572 10.2916 11.1188 9.68483C11.6804 9.07809 12.354 8.60421 13.1396 8.2632C13.9375 7.92262 14.8272 7.76947 15.8085 7.80373C16.5445 7.82944 17.2339 7.9579 17.8767 8.18914C18.52 8.4081 19.0801 8.72242 19.5571 9.13208C20.0467 9.5299 20.4352 10.0102 20.7226 10.5729C21.01 11.1356 21.1781 11.7739 21.2268 12.488L18.9269 12.4076ZM31.0831 21.8038L29.0223 21.7318L29.0686 20.407L29.0318 20.4057C28.7575 20.8751 28.3576 21.248 27.8321 21.5244C27.3193 21.789 26.7992 21.9121 26.2717 21.8936C25.0206 21.85 24.1235 21.5116 23.5807 20.8786C23.0506 20.2337 22.8073 19.2857 22.851 18.0345L23.0618 11.9994L25.1593 12.0726L24.9557 17.9053C24.9265 18.7395 25.0654 19.3338 25.3724 19.6884C25.6793 20.043 26.121 20.2304 26.6976 20.2505C27.1392 20.2659 27.5095 20.2113 27.8086 20.0867C28.1077 19.962 28.3531 19.7925 28.5448 19.5781C28.737 19.3515 28.8754 19.08 28.9602 18.7636C29.0572 18.4477 29.1121 18.1058 29.1249 17.7378L29.3177 12.2178L31.4153 12.2911L31.0831 21.8038ZM33.6273 12.3683L35.596 12.4371L35.5318 14.2771L35.5686 14.2783C35.6389 14.0229 35.7642 13.7755 35.9445 13.5362C36.1371 13.2973 36.3595 13.084 36.6116 12.8963C36.8765 12.6967 37.1644 12.541 37.4754 12.429C37.7863 12.3171 38.1013 12.2667 38.4202 12.2778C38.6655 12.2864 38.8309 12.2983 38.9163 12.3135C39.014 12.3292 39.1117 12.3449 39.2094 12.3606L39.1388 14.3846C38.9924 14.3549 38.8397 14.3312 38.6807 14.3133C38.5344 14.2837 38.3876 14.2662 38.2404 14.2611C37.8847 14.2487 37.5448 14.3105 37.2207 14.4466C36.9093 14.5708 36.6322 14.7699 36.3893 15.0439C36.1468 15.3056 35.951 15.6365 35.8019 16.0366C35.6529 16.4367 35.5691 16.9004 35.5507 17.4279L35.3926 21.9542L33.2951 21.881L33.6273 12.3683ZM40.0959 12.5942L42.0647 12.663L42.0004 14.5029L42.0372 14.5042C42.1076 14.2488 42.2329 14.0014 42.4132 13.762C42.6057 13.5231 42.8281 13.3098 43.0803 13.1221C43.3452 12.9226 43.6331 12.7669 43.944 12.6549C44.255 12.543 44.5699 12.4925 44.8888 12.5037C45.1342 12.5122 45.2996 12.5242 45.385 12.5394C45.4827 12.5551 45.5804 12.5708 45.6781 12.5865L45.6074 14.6105C45.4611 14.5808 45.3084 14.5571 45.1494 14.5392C45.003 14.5095 44.8563 14.4921 44.7091 14.487C44.3533 14.4746 44.0134 14.5364 43.6894 14.6725C43.378 14.7967 43.1008 14.9958 42.8579 15.2698C42.6154 15.5315 42.4197 15.8624 42.2706 16.2625C42.1215 16.6626 42.0378 17.1263 42.0194 17.6538L41.8613 22.1801L39.7637 22.1069L40.0959 12.5942ZM52.6362 16.9561C52.6232 16.624 52.5608 16.3025 52.4488 15.9916C52.3491 15.681 52.1989 15.4117 51.998 15.1837C51.8099 14.9437 51.571 14.7512 51.2813 14.606C51.0043 14.4489 50.688 14.3642 50.3323 14.3518C49.9643 14.3389 49.6246 14.3946 49.3132 14.5188C49.0145 14.6312 48.7507 14.8001 48.5218 15.0254C48.3055 15.2389 48.1246 15.4967 47.979 15.7986C47.8456 16.101 47.7665 16.4298 47.7419 16.7851L52.6362 16.9561ZM47.6937 18.1651C47.6808 18.5331 47.7175 18.8906 47.8036 19.2375C47.902 19.5848 48.051 19.8909 48.2505 20.1557C48.45 20.4206 48.7065 20.6384 49.0199 20.809C49.3336 20.9673 49.7113 21.0542 50.1529 21.0696C50.7663 21.091 51.2614 20.9794 51.6384 20.7346C52.0281 20.478 52.3241 20.0892 52.5266 19.5682L54.5137 19.6376C54.3853 20.1489 54.1791 20.6023 53.8951 20.9976C53.6111 21.393 53.2741 21.7251 52.884 21.994C52.4943 22.2506 52.0579 22.438 51.5748 22.5562C51.1035 22.6871 50.6103 22.7436 50.0951 22.7256C49.3468 22.6994 48.6887 22.5536 48.1208 22.2882C47.5528 22.0227 47.0742 21.6621 46.6848 21.2064C46.3077 20.7511 46.0256 20.2131 45.8384 19.5925C45.6636 18.9724 45.589 18.2943 45.6147 17.5583C45.6383 16.8836 45.7648 16.2494 45.9944 15.6556C46.2366 15.05 46.5619 14.5271 46.9702 14.087C47.3913 13.635 47.8887 13.2839 48.4624 13.0338C49.0361 12.7836 49.6786 12.6709 50.3901 12.6958C51.1383 12.7219 51.8013 12.9047 52.3789 13.2442C52.9693 13.5719 53.4517 14.0001 53.8263 14.529C54.2008 15.0579 54.4622 15.6627 54.6103 16.3434C54.7712 17.0122 54.7963 17.7008 54.6856 18.4093L47.6937 18.1651ZM56.4652 13.1658L58.4524 13.2352L58.4036 14.6336L58.4391 14.6717C58.7764 14.1554 59.2078 13.759 59.7333 13.4826C60.2592 13.1939 60.835 13.0605 61.4605 13.0824C62.5032 13.1188 63.3156 13.4173 63.8978 13.9781C64.48 14.5388 64.7523 15.3589 64.7146 16.4383L64.4865 22.9702L62.3889 22.897L62.5978 16.9171C62.5994 16.1679 62.4587 15.6227 62.1759 15.2812C61.8935 14.9274 61.4395 14.7396 60.8139 14.7178C60.4582 14.7054 60.1369 14.7617 59.8501 14.8868C59.5637 14.9996 59.3182 15.1691 59.1138 15.3953C58.9099 15.6093 58.7473 15.8676 58.6262 16.1704C58.5051 16.4732 58.4386 16.7964 58.4266 17.1398L58.2306 22.7518L56.133 22.6785L56.4652 13.1658ZM66.0739 13.5014L67.6563 13.5566L67.7559 10.7047L69.8535 10.7779L69.7539 13.6299L71.649 13.6961L71.5944 15.2601L69.6992 15.1939L69.5219 20.2722C69.5142 20.493 69.5137 20.6833 69.5204 20.8432C69.5394 21.0036 69.5776 21.14 69.635 21.2525C69.7048 21.3655 69.8061 21.455 69.9388 21.521C70.0721 21.5748 70.2552 21.6058 70.4883 21.6139C70.6355 21.6191 70.7827 21.6242 70.9299 21.6293C71.0775 21.6222 71.2255 21.6028 71.374 21.5712L71.3175 23.1903C71.0836 23.2067 70.8558 23.2233 70.6341 23.2402C70.4125 23.257 70.1851 23.2613 69.952 23.2532C69.4001 23.2339 68.954 23.1692 68.614 23.0591C68.2867 22.9371 68.0283 22.7746 67.8389 22.5715C67.6622 22.3565 67.5424 22.0944 67.4795 21.7852C67.4289 21.4764 67.4043 21.1255 67.4057 20.7325L67.6017 15.1206L66.0193 15.0654L66.0739 13.5014ZM77.412 10.2682L79.7487 10.3498L81.7715 20.4789L81.8083 20.4802L84.8087 10.5265L87.1638 10.6087L89.389 20.7449L89.4258 20.7462L92.2238 10.7854L94.5605 10.867L90.477 23.8778L88.1402 23.7962L85.8599 13.6581L85.8231 13.6568L82.7859 23.6093L80.4124 23.5264L77.412 10.2682ZM101.726 18.6703C101.713 18.3383 101.651 18.0168 101.539 17.7058C101.439 17.3953 101.289 17.126 101.088 16.8979C100.9 16.658 100.661 16.4654 100.371 16.3202C100.094 16.1632 99.7779 16.0784 99.4222 16.066C99.0542 16.0532 98.7145 16.1089 98.4031 16.2331C98.1045 16.3455 97.8407 16.5143 97.6117 16.7397C97.3955 16.9532 97.2145 17.2109 97.0689 17.5129C96.9355 17.8153 96.8565 18.1441 96.8318 18.4994L101.726 18.6703ZM96.7836 19.8794C96.7708 20.2474 96.8074 20.6048 96.8935 20.9517C96.9919 21.299 97.1409 21.6051 97.3405 21.87C97.54 22.1349 97.7964 22.3526 98.1098 22.5232C98.4236 22.6816 98.8013 22.7684 99.2429 22.7839C99.8562 22.8053 100.351 22.6936 100.728 22.4489C101.118 22.1923 101.414 21.8035 101.616 21.2824L103.604 21.3518C103.475 21.8632 103.269 22.3165 102.985 22.7119C102.701 23.1073 102.364 23.4394 101.974 23.7082C101.584 23.9648 101.148 24.1522 100.665 24.2704C100.193 24.4014 99.7002 24.4578 99.185 24.4398C98.4368 24.4137 97.7787 24.2679 97.2107 24.0024C96.6428 23.737 96.1641 23.3764 95.7747 22.9207C95.3976 22.4654 95.1155 21.9274 94.9284 21.3068C94.7535 20.6866 94.679 20.0085 94.7047 19.2725C94.7282 18.5979 94.8548 17.9637 95.0843 17.3699C95.3265 16.7643 95.6518 16.2414 96.0602 15.8012C96.4813 15.3492 96.9786 14.9982 97.5523 14.748C98.126 14.4979 98.7686 14.3852 99.48 14.41C100.228 14.4362 100.891 14.619 101.469 14.9585C102.059 15.2861 102.542 15.7144 102.916 16.2433C103.291 16.7722 103.552 17.377 103.7 18.0576C103.861 18.7265 103.886 19.4151 103.776 20.1235L96.7836 19.8794ZM105.737 11.2573L107.835 11.3305L107.765 13.3177L105.668 13.2445L105.737 11.2573ZM105.61 14.882L107.708 14.9553L107.376 24.4679L105.278 24.3947L105.61 14.882ZM118.474 24.3581C118.424 25.7933 117.981 26.8463 117.147 27.5172C116.325 28.2009 115.16 28.5163 113.651 28.4636C113.173 28.4469 112.69 28.3809 112.203 28.2657C111.728 28.1508 111.292 27.9698 110.895 27.7226C110.511 27.4758 110.19 27.1576 109.934 26.7679C109.677 26.3783 109.534 25.9066 109.504 25.3528L111.602 25.4261C111.653 25.7226 111.749 25.9655 111.889 26.1546C112.03 26.3437 112.197 26.4908 112.39 26.5958C112.595 26.7135 112.819 26.7889 113.064 26.822C113.308 26.8673 113.565 26.8947 113.834 26.9042C114.681 26.9337 115.308 26.7468 115.715 26.3435C116.122 25.9401 116.339 25.3459 116.366 24.5608L116.417 23.1073L116.38 23.106C116.068 23.6232 115.648 24.0199 115.123 24.2964C114.61 24.5732 114.059 24.7013 113.47 24.6808C112.709 24.6542 112.064 24.5027 111.533 24.2263C111.015 23.938 110.586 23.5607 110.246 23.0944C109.919 22.6163 109.686 22.0739 109.548 21.4673C109.409 20.8607 109.352 20.2139 109.376 19.527C109.398 18.8891 109.518 18.2853 109.734 17.7157C109.95 17.146 110.25 16.6529 110.633 16.2364C111.016 15.8077 111.476 15.4737 112.013 15.2346C112.562 14.9958 113.173 14.8882 113.848 14.9118C114.449 14.9328 114.996 15.0808 115.49 15.356C115.985 15.6189 116.357 16.0249 116.608 16.5741L116.645 16.5754L116.691 15.269L118.788 15.3422L118.474 24.3581ZM113.859 23.0364C114.325 23.0526 114.721 22.9743 115.046 22.8015C115.384 22.6168 115.657 22.3745 115.864 22.0747C116.083 21.7631 116.243 21.4125 116.343 21.023C116.455 20.6216 116.518 20.2185 116.532 19.8137C116.546 19.4089 116.511 19.0147 116.426 18.631C116.341 18.2473 116.2 17.9046 116.001 17.6029C115.815 17.3017 115.56 17.0594 115.235 16.8761C114.922 16.6932 114.538 16.5939 114.084 16.578C113.618 16.5618 113.222 16.6462 112.897 16.8313C112.571 17.0164 112.304 17.265 112.097 17.5771C111.89 17.8769 111.736 18.2277 111.636 18.6295C111.537 19.0191 111.48 19.4101 111.466 19.8026C111.453 20.1951 111.488 20.5832 111.573 20.9669C111.658 21.3384 111.794 21.6747 111.98 21.9759C112.178 22.2776 112.428 22.5258 112.728 22.7205C113.04 22.9157 113.417 23.0209 113.859 23.0364ZM121.027 11.7912L123.124 11.8645L122.954 16.7404L122.991 16.7417C123.264 16.3214 123.656 15.9789 124.169 15.7143C124.694 15.4379 125.27 15.3107 125.896 15.3325C126.938 15.3689 127.751 15.6675 128.333 16.2282C128.915 16.7889 129.187 17.609 129.15 18.6884L128.922 25.2203L126.824 25.1471L127.033 19.1672C127.034 18.4181 126.894 17.8728 126.611 17.5313C126.329 17.1776 125.875 16.9898 125.249 16.9679C124.893 16.9555 124.572 17.0118 124.285 17.1369C123.999 17.2497 123.753 17.4192 123.549 17.6454C123.345 17.8594 123.182 18.1178 123.061 18.4206C122.94 18.7234 122.874 19.0465 122.862 19.39L122.666 25.0019L120.568 24.9286L121.027 11.7912ZM130.509 15.7515L132.091 15.8068L132.191 12.9548L134.288 13.0281L134.189 15.88L136.084 15.9462L136.029 17.5102L134.134 17.444L133.957 22.5223C133.949 22.7431 133.949 22.9335 133.955 23.0934C133.974 23.2537 134.013 23.3901 134.07 23.5027C134.14 23.6156 134.241 23.7051 134.374 23.7712C134.507 23.8249 134.69 23.8559 134.923 23.864C135.071 23.8692 135.218 23.8743 135.365 23.8795C135.513 23.8723 135.661 23.8529 135.809 23.8213L135.753 25.4405C135.519 25.4569 135.291 25.4735 135.069 25.4903C134.848 25.5071 134.62 25.5115 134.387 25.5033C133.835 25.484 133.389 25.4193 133.049 25.3092C132.722 25.1873 132.463 25.0247 132.274 24.8216C132.097 24.6066 131.977 24.3445 131.915 24.0353C131.864 23.7265 131.839 23.3756 131.841 22.9827L132.037 17.3707L130.454 17.3155L130.509 15.7515Z" fill="#666D80"/>
<path d="M261.33 32.846L261.893 16.7147L261.812 16.7119L256.665 19.9863L256.776 16.7924L261.982 13.3986L265.418 13.5186L264.739 32.965L261.33 32.846ZM278.566 33.4479L278.696 29.7149L268.993 29.3761L269.097 26.4113L277.614 13.9445L282.56 14.1172L282.111 26.9737L284.753 27.0659L284.653 29.9229L282.011 29.8307L281.881 33.5636L278.566 33.4479ZM272.217 26.7091L278.847 26.9406L279.207 16.6312L279.126 16.6284L272.22 26.6148L272.217 26.7091ZM286.746 33.7335L286.829 31.3617L293.936 24.9039C296.57 22.4997 297.157 21.5353 297.207 20.0933L297.208 20.0663C297.255 18.3274 295.991 17.0419 294.118 16.9765C291.962 16.9012 290.402 18.2905 290.296 20.1623L290.293 20.2566L287.032 20.1427L287.035 20.0484C287.159 16.4906 290.24 14.0481 294.189 14.186C298.083 14.322 300.723 16.7754 300.611 19.9828L300.61 20.0097C300.53 22.3007 299.411 23.8133 295.874 26.982L291.446 30.9022L291.441 31.0505L300.51 31.3672L300.411 34.2107L286.746 33.7335ZM301.984 38.246L303.298 31.1407L306.546 31.2541L304.329 38.3279L301.984 38.246ZM316.665 35.1156C312.218 34.9603 309.199 32.5342 309.315 29.219L309.316 29.192C309.402 26.7258 311.262 24.8748 313.854 24.4391L313.857 24.3582C311.667 23.6881 310.268 22.0201 310.341 19.9447L310.342 19.9178C310.446 16.9395 313.365 14.8556 317.368 14.9954C321.384 15.1357 324.138 17.4177 324.034 20.3959L324.033 20.4229C323.96 22.4982 322.448 24.0646 320.218 24.5804L320.215 24.6612C322.77 25.2767 324.509 27.2534 324.423 29.7196L324.422 29.7465C324.307 33.0617 321.113 35.2709 316.665 35.1156ZM317.076 23.3642C319.097 23.4348 320.526 22.3109 320.585 20.6263L320.586 20.5994C320.645 18.9148 319.284 17.6934 317.276 17.6233C315.268 17.5532 313.826 18.6767 313.767 20.3612L313.766 20.3882C313.707 22.0727 315.054 23.2936 317.076 23.3642ZM316.758 32.4608C319.089 32.5422 320.78 31.2655 320.845 29.4057L320.846 29.3788C320.911 27.5056 319.328 26.101 316.983 26.0191C314.638 25.9372 312.96 27.2279 312.895 29.1011L312.894 29.1281C312.829 30.9878 314.44 32.3798 316.758 32.4608ZM326.825 35.1331L326.908 32.7613L334.014 26.3035C336.649 23.8993 337.235 22.9348 337.286 21.4929L337.287 21.4659C337.334 19.727 336.07 18.4415 334.197 18.3761C332.041 18.3008 330.481 19.6901 330.375 21.5619L330.372 21.6562L327.11 21.5423L327.114 21.448C327.238 17.8902 330.319 15.4477 334.267 15.5855C338.162 15.7216 340.802 18.175 340.69 21.3824L340.689 21.4093C340.609 23.7003 339.49 25.2129 335.952 28.3816L331.525 32.3018L331.52 32.4501L340.589 32.7668L340.49 35.6103L326.825 35.1331ZM348.657 35.8955L349.336 16.4491L352.691 16.5662L352.012 36.0127L348.657 35.8955ZM362.837 36.674C360.775 36.602 359.234 35.5228 358.485 33.81L358.404 33.8072L358.319 36.2329L354.963 36.1157L355.643 16.6693L358.998 16.7865L358.732 24.4006L358.813 24.4035C359.681 22.7202 361.348 21.7395 363.37 21.8101C366.955 21.9352 369.161 24.8323 369 29.4412L368.999 29.4547C368.839 34.0501 366.449 36.8001 362.837 36.674ZM361.925 33.8087C364.082 33.884 365.477 32.1786 365.576 29.3351L365.577 29.3217C365.676 26.4781 364.39 24.6792 362.247 24.6043C360.185 24.5323 358.666 26.2873 358.569 29.0769L358.568 29.0904C358.471 31.8935 359.85 33.7362 361.925 33.8087ZM376.475 37.1503C372.729 37.0194 370.648 35.1657 370.445 32.5005L370.435 32.3788L373.737 32.4941L373.76 32.6163C373.973 33.8516 374.877 34.6118 376.575 34.6711C378.206 34.728 379.213 34.1021 379.25 33.0509L379.25 33.0374C379.28 32.1749 378.799 31.6724 377.328 31.2837L374.974 30.6753C372.26 29.9733 370.932 28.5912 371.006 26.4754L371.006 26.4619C371.098 23.8475 373.437 22.1616 376.887 22.2821C380.444 22.4063 382.451 24.4329 382.487 26.9033L382.495 27.052L379.368 26.9428L379.359 26.8345C379.25 25.6839 378.363 24.8163 376.8 24.7617C375.318 24.71 374.364 25.3648 374.327 26.4159L374.327 26.4294C374.298 27.2515 374.832 27.8098 376.302 28.1985L378.669 28.8074C381.597 29.5708 382.702 30.7698 382.63 32.8451L382.63 32.8586C382.535 35.5539 379.979 37.2726 376.475 37.1503Z" fill="#37394A"/>
<g clip-path="url(#clip0_625_1272)">
<path d="M338.808 75.8669L339.096 67.6396L339.062 67.6384L336.46 69.3016L336.51 67.8731L339.134 66.1432L340.623 66.1952L340.284 75.9184L338.808 75.8669ZM346.273 66.2306C348.26 66.3 350.045 67.7453 349.923 71.2424L349.922 71.2559C349.809 74.497 348.294 76.36 345.861 76.2751C344.129 76.2146 342.864 75.1787 342.604 73.7192L342.587 73.6376L344.096 73.6903L344.121 73.7586C344.372 74.496 344.989 74.9763 345.919 75.0088C347.59 75.0671 348.327 73.4805 348.455 71.5555C348.464 71.4681 348.468 71.3805 348.471 71.2929L348.437 71.2918C348.022 72.1543 347.014 72.8072 345.694 72.7611C343.834 72.6962 342.534 71.2947 342.598 69.4552L342.598 69.4417C342.666 67.5011 344.218 66.1588 346.273 66.2306ZM346.08 71.5468C347.266 71.5882 348.191 70.7907 348.232 69.6385L348.232 69.6317C348.272 68.4795 347.401 67.5383 346.242 67.4978C345.096 67.4578 344.142 68.3218 344.102 69.4538L344.102 69.4673C344.061 70.6397 344.901 71.5056 346.08 71.5468ZM354.402 76.5734C352.077 76.4922 350.757 74.5098 350.865 71.4238L350.865 71.4103C350.973 68.3242 352.428 66.4455 354.753 66.5267C357.071 66.6077 358.398 68.5835 358.291 71.6696L358.29 71.6831C358.182 74.7691 356.72 76.6543 354.402 76.5734ZM354.446 75.3133C355.827 75.3616 356.686 73.9613 356.767 71.6299L356.768 71.6164C356.849 69.285 356.09 67.8417 354.709 67.7935C353.321 67.745 352.469 69.132 352.388 71.4635L352.388 71.4769C352.306 73.8083 353.058 75.2648 354.446 75.3133ZM361.814 76.6703L362.153 66.9471L363.609 66.9979L363.269 76.7211L361.814 76.6703ZM368.288 77.038C367.27 77.0025 366.5 76.4629 366.111 75.6195L366.077 75.6183L366.035 76.8177L364.58 76.7669L364.92 67.0437L366.375 67.0945L366.241 70.9353L366.275 70.9364C366.728 70.1157 367.555 69.6386 368.558 69.6736C370.337 69.7358 371.46 71.1917 371.382 73.449L371.381 73.4558C371.303 75.7131 370.087 77.1008 368.288 77.038ZM367.948 75.7713C369.093 75.8113 369.839 74.9131 369.892 73.4038L369.892 73.397C369.945 71.9011 369.263 70.9463 368.117 70.9063C367.019 70.868 366.204 71.7975 366.153 73.2664L366.153 73.2732C366.101 74.7488 366.842 75.7327 367.948 75.7713ZM374.794 77.2652C373.022 77.2033 372.015 76.2911 371.912 74.9922L371.907 74.9313L373.349 74.9817L373.36 75.0495C373.472 75.7079 373.944 76.1089 374.84 76.1402C375.716 76.1708 376.254 75.8253 376.274 75.2525L376.274 75.2458C376.29 74.7876 376.044 74.5158 375.288 74.3073L374.139 74.0041C372.802 73.647 372.157 72.9769 372.193 71.9459L372.194 71.9392C372.238 70.6724 373.373 69.8418 375.004 69.8987C376.682 69.9573 377.66 70.9292 377.692 72.1379L377.696 72.219L376.328 72.1713L376.323 72.1239C376.257 71.5009 375.787 71.0527 374.965 71.024C374.183 70.9967 373.678 71.3501 373.658 71.9161L373.658 71.9229C373.643 72.3609 373.922 72.6675 374.677 72.876L375.82 73.179C377.257 73.5665 377.79 74.1585 377.754 75.176L377.754 75.1827C377.709 76.4765 376.465 77.3236 374.794 77.2652Z" fill="#808898"/>
<path d="M337.731 106.725L338.018 98.4975L337.984 98.4963L335.383 100.16L335.433 98.731L338.057 97.0011L339.546 97.0531L339.206 106.776L337.731 106.725ZM344.837 107.135C342.688 107.06 341.205 105.854 341.263 104.21L341.263 104.197C341.306 102.97 342.223 102.031 343.499 101.799L343.5 101.765C342.426 101.417 341.747 100.584 341.783 99.5532L341.783 99.5397C341.835 98.0573 343.254 97.0207 345.188 97.0883C347.122 97.1558 348.472 98.2891 348.421 99.7715L348.42 99.785C348.384 100.816 347.648 101.6 346.553 101.872L346.551 101.906C347.809 102.226 348.651 103.227 348.608 104.453L348.607 104.467C348.55 106.111 346.994 107.21 344.837 107.135ZM345.041 101.313C346.126 101.351 346.889 100.75 346.92 99.8675L346.92 99.854C346.951 98.9646 346.225 98.3186 345.147 98.2809C344.069 98.2433 343.306 98.8373 343.275 99.7267L343.274 99.7402C343.243 100.623 343.963 101.275 345.041 101.313ZM344.88 105.929C346.119 105.972 347.027 105.295 347.061 104.312L347.062 104.298C347.096 103.308 346.245 102.563 344.999 102.519C343.752 102.476 342.851 103.159 342.817 104.15L342.816 104.163C342.782 105.147 343.64 105.885 344.88 105.929ZM353.149 107.425C350.825 107.344 349.504 105.362 349.612 102.276L349.612 102.262C349.72 99.176 351.175 97.2973 353.5 97.3785C355.818 97.4595 357.146 99.4353 357.038 102.521L357.037 102.535C356.93 105.621 355.467 107.506 353.149 107.425ZM353.193 106.165C354.575 106.213 355.433 104.813 355.515 102.482L355.515 102.468C355.596 100.137 354.837 98.6935 353.456 98.6453C352.068 98.5968 351.217 99.9838 351.135 102.315L351.135 102.329C351.053 104.66 351.805 106.117 353.193 106.165ZM360.561 107.522L360.9 97.7988L362.356 97.8497L362.016 107.573L360.561 107.522ZM367.035 107.89C366.018 107.854 365.247 107.315 364.858 106.471L364.825 106.47L364.783 107.669L363.327 107.619L363.667 97.8955L365.122 97.9463L364.988 101.787L365.022 101.788C365.475 100.968 366.302 100.49 367.306 100.525C369.085 100.588 370.208 102.044 370.129 104.301L370.129 104.308C370.05 106.565 368.834 107.953 367.035 107.89ZM366.695 106.623C367.84 106.663 368.587 105.765 368.639 104.256L368.64 104.249C368.692 102.753 368.01 101.798 366.865 101.758C365.766 101.72 364.951 102.649 364.9 104.118L364.9 104.125C364.848 105.601 365.59 106.585 366.695 106.623ZM373.541 108.117C371.769 108.055 370.762 107.143 370.659 105.844L370.654 105.783L372.096 105.833L372.107 105.901C372.219 106.56 372.691 106.961 373.587 106.992C374.463 107.023 375.001 106.677 375.021 106.104L375.022 106.098C375.038 105.639 374.791 105.368 374.036 105.159L372.886 104.856C371.549 104.499 370.905 103.829 370.941 102.798L370.941 102.791C370.985 101.524 372.12 100.694 373.751 100.751C375.429 100.809 376.407 101.781 376.439 102.99L376.443 103.071L375.075 103.023L375.07 102.976C375.004 102.353 374.534 101.905 373.712 101.876C372.93 101.849 372.425 102.202 372.406 102.768L372.405 102.775C372.39 103.213 372.669 103.519 373.424 103.728L374.568 104.031C376.004 104.418 376.537 105.01 376.501 106.028L376.501 106.035C376.456 107.328 375.212 108.175 373.541 108.117Z" fill="#808898"/>
<path d="M336.653 137.583L336.94 129.355L336.907 129.354L334.305 131.017L334.355 129.589L336.979 127.859L338.468 127.911L338.129 137.634L336.653 137.583ZM340.801 137.728L345.414 129.462L345.415 129.429L340.287 129.25L340.332 127.976L346.949 128.207L346.903 129.514L342.384 137.783L340.801 137.728ZM351.128 138.25C348.804 138.169 347.483 136.187 347.591 133.101L347.591 133.087C347.699 130.001 349.154 128.122 351.479 128.203C353.797 128.284 355.125 130.26 355.017 133.346L355.016 133.36C354.909 136.446 353.446 138.331 351.128 138.25ZM351.172 136.99C352.554 137.038 353.412 135.638 353.494 133.307L353.494 133.293C353.575 130.962 352.816 129.518 351.435 129.47C350.047 129.422 349.196 130.809 349.114 133.14L349.114 133.154C349.032 135.485 349.784 136.942 351.172 136.99ZM358.54 138.347L358.879 128.624L360.335 128.675L359.995 138.398L358.54 138.347ZM365.014 138.715C363.997 138.679 363.226 138.14 362.837 137.296L362.804 137.295L362.762 138.494L361.306 138.444L361.646 128.72L363.101 128.771L362.967 132.612L363.001 132.613C363.454 131.792 364.281 131.315 365.285 131.35C367.064 131.413 368.187 132.868 368.108 135.126L368.108 135.133C368.029 137.39 366.813 138.778 365.014 138.715ZM364.674 137.448C365.819 137.488 366.566 136.59 366.618 135.081L366.619 135.074C366.671 133.578 365.989 132.623 364.844 132.583C363.745 132.545 362.93 133.474 362.879 134.943L362.879 134.95C362.827 136.426 363.569 137.409 364.674 137.448ZM371.52 138.942C369.748 138.88 368.741 137.968 368.638 136.669L368.633 136.608L370.075 136.658L370.086 136.726C370.198 137.385 370.67 137.786 371.566 137.817C372.442 137.848 372.98 137.502 373 136.929L373.001 136.923C373.017 136.464 372.77 136.193 372.015 135.984L370.865 135.681C369.528 135.324 368.884 134.654 368.92 133.623L368.92 133.616C368.964 132.349 370.099 131.519 371.73 131.575C373.408 131.634 374.386 132.606 374.418 133.815L374.422 133.896L373.054 133.848L373.049 133.801C372.983 133.178 372.513 132.729 371.691 132.701C370.909 132.673 370.404 133.027 370.385 133.593L370.384 133.6C370.369 134.038 370.648 134.344 371.403 134.553L372.547 134.856C373.983 135.243 374.516 135.835 374.48 136.853L374.48 136.86C374.435 138.153 373.191 139 371.52 138.942Z" fill="#808898"/>
<path d="M4.73462 120.509L325.197 131.7" stroke="#666D80" stroke-opacity="0.14" stroke-width="1.15068" stroke-dasharray="3.59 3.59"/>
<path d="M5.80566 89.8428L326.268 101.034" stroke="#666D80" stroke-opacity="0.14" stroke-width="1.15068" stroke-dasharray="3.59 3.59"/>
<path d="M6.87646 59.1768L327.339 70.3675" stroke="#666D80" stroke-opacity="0.14" stroke-width="1.15068" stroke-dasharray="3.59 3.59"/>
<path d="M11.4039 186.369L61.2855 160.454C62.485 159.83 63.8921 159.744 65.1587 160.216L110.683 177.178C111.996 177.667 113.458 177.556 114.681 176.873L164.719 148.955C165.038 148.777 165.376 148.636 165.727 148.535L215.858 134.128C216.7 133.886 217.591 133.88 218.436 134.11L265.519 146.938C266.779 147.281 268.125 147.094 269.243 146.42L320.021 115.824" stroke="#397CF6" stroke-width="1.79278" stroke-linecap="round"/>
<circle cx="217.145" cy="133.758" r="2.98796" transform="rotate(2 217.145 133.758)" fill="#397CF6"/>
<circle cx="320.022" cy="115.823" r="2.98796" transform="rotate(2 320.022 115.823)" fill="#397CF6"/>
</g>
<defs>
<clipPath id="clip0_625_1272">
<rect width="375.89" height="190.247" fill="white" transform="translate(7.24585 52.5383) rotate(2)"/>
</clipPath>
</defs>
</svg>
