<svg width="244" height="111" viewBox="0 0 244 111" fill="none" xmlns="http://www.w3.org/2000/svg">
<g filter="url(#filter0_d_625_1003)">
<rect x="6" y="3" width="232.787" height="99.7377" rx="13.1148" fill="white"/>
<rect x="6.40984" y="3.40984" width="231.967" height="98.918" rx="12.7049" stroke="url(#paint0_linear_625_1003)" stroke-width="0.819672"/>
<path d="M22.5809 29.8362L19.4671 18.2855H21.3321L23.4854 27.3387H23.5174L25.9588 18.2855H27.6558L30.0972 27.3387H30.1372L32.2905 18.2855H34.1555L31.0337 29.8362H29.3127L26.8313 21.1272H26.7913L24.3019 29.8362H22.5809ZM35.4035 29.8362V18.2855H37.1325V22.8001H37.1725C37.6208 21.8236 38.5253 21.2552 39.782 21.2552C41.583 21.2552 42.7677 22.6 42.7677 24.6332V29.8362H41.0387V24.9614C41.0387 23.5686 40.3343 22.7361 39.1176 22.7361C37.9249 22.7361 37.1325 23.6486 37.1325 24.9614V29.8362H35.4035ZM48.034 30.0043C45.6166 30.0043 44.0397 28.3313 44.0397 25.6258V25.6097C44.0397 22.9202 45.6326 21.2552 48.026 21.2552C50.4274 21.2552 52.0283 22.9122 52.0283 25.6097V25.6258C52.0283 28.3393 50.4434 30.0043 48.034 30.0043ZM48.042 28.5554C49.3948 28.5554 50.2593 27.4828 50.2593 25.6258V25.6097C50.2593 23.7687 49.3788 22.7041 48.026 22.7041C46.6972 22.7041 45.8087 23.7687 45.8087 25.6097V25.6258C45.8087 27.4908 46.6892 28.5554 48.042 28.5554ZM53.3963 29.8362V18.2855H55.1253V29.8362H53.3963ZM60.4636 30.0043C57.9902 30.0043 56.4933 28.3153 56.4933 25.6578V25.6498C56.4933 23.0163 58.0142 21.2552 60.3756 21.2552C62.7369 21.2552 64.1858 22.9522 64.1858 25.4817V26.066H58.2223C58.2543 27.6589 59.1268 28.5875 60.5036 28.5875C61.5282 28.5875 62.2086 28.0592 62.4247 27.4268L62.4488 27.3628H64.0897L64.0737 27.4508C63.8015 28.7876 62.5048 30.0043 60.4636 30.0043ZM60.3836 22.6721C59.2629 22.6721 58.3984 23.4325 58.2463 24.8413H62.4728C62.3287 23.3845 61.5122 22.6721 60.3836 22.6721ZM65.6178 25.9299V24.369H70.7648V25.9299H65.6178ZM74.182 29.8362L71.8687 21.4153H73.5976L75.1345 28.0431H75.1666L76.9196 21.4153H78.5845L80.3455 28.0431H80.3856L81.9224 21.4153H83.6354L81.3301 29.8362H79.5291L77.76 23.5285H77.72L75.967 29.8362H74.182ZM84.7233 29.8362V18.2855H86.4523V22.8001H86.4923C86.9406 21.8236 87.8451 21.2552 89.1018 21.2552C90.9028 21.2552 92.0875 22.6 92.0875 24.6332V29.8362H90.3585V24.9614C90.3585 23.5686 89.6541 22.7361 88.4374 22.7361C87.2447 22.7361 86.4523 23.6486 86.4523 24.9614V29.8362H84.7233ZM97.3298 30.0043C94.8564 30.0043 93.3595 28.3153 93.3595 25.6578V25.6498C93.3595 23.0163 94.8804 21.2552 97.2417 21.2552C99.6031 21.2552 101.052 22.9522 101.052 25.4817V26.066H95.0885C95.1205 27.6589 95.993 28.5875 97.3698 28.5875C98.3944 28.5875 99.0748 28.0592 99.2909 27.4268L99.3149 27.3628H100.956L100.94 27.4508C100.668 28.7876 99.371 30.0043 97.3298 30.0043ZM97.2497 22.6721C96.1291 22.6721 95.2646 23.4325 95.1125 24.8413H99.3389C99.1949 23.3845 98.3784 22.6721 97.2497 22.6721ZM104.837 29.9883C103.156 29.9883 102.028 28.9557 102.028 27.4428V27.4268C102.028 25.9619 103.164 25.0654 105.158 24.9454L107.447 24.8093V24.1769C107.447 23.2484 106.846 22.6881 105.774 22.6881C104.773 22.6881 104.157 23.1603 104.013 23.8327L103.997 23.9048H102.364L102.372 23.8167C102.492 22.3679 103.749 21.2552 105.822 21.2552C107.879 21.2552 109.184 22.3439 109.184 24.0328V29.8362H107.447V28.5074H107.415C106.927 29.4119 105.95 29.9883 104.837 29.9883ZM103.773 27.4028C103.773 28.1392 104.381 28.6035 105.31 28.6035C106.526 28.6035 107.447 27.779 107.447 26.6824V26.026L105.39 26.1541C104.349 26.2181 103.773 26.6744 103.773 27.3868V27.4028ZM113.786 30.0043C112.121 30.0043 111.32 29.2999 111.32 27.6189V22.7921H110.112V21.4153H111.32V19.2221H113.089V21.4153H114.666V22.7921H113.089V27.5148C113.089 28.3713 113.474 28.6275 114.202 28.6275C114.386 28.6275 114.538 28.6115 114.666 28.5955V29.9322C114.466 29.9643 114.138 30.0043 113.786 30.0043ZM122.317 30.0043C120.652 30.0043 119.852 29.2999 119.852 27.6189V22.7921H118.643V21.4153H119.852V19.2221H121.621V21.4153H123.198V22.7921H121.621V27.5148C121.621 28.3713 122.005 28.6275 122.733 28.6275C122.917 28.6275 123.07 28.6115 123.198 28.5955V29.9322C122.997 29.9643 122.669 30.0043 122.317 30.0043ZM128.008 30.0043C125.59 30.0043 124.013 28.3313 124.013 25.6258V25.6097C124.013 22.9202 125.606 21.2552 128 21.2552C130.401 21.2552 132.002 22.9122 132.002 25.6097V25.6258C132.002 28.3393 130.417 30.0043 128.008 30.0043ZM128.016 28.5554C129.368 28.5554 130.233 27.4828 130.233 25.6258V25.6097C130.233 23.7687 129.352 22.7041 128 22.7041C126.671 22.7041 125.782 23.7687 125.782 25.6097V25.6258C125.782 27.4908 126.663 28.5554 128.016 28.5554ZM135.779 29.9883C134.098 29.9883 132.97 28.9557 132.97 27.4428V27.4268C132.97 25.9619 134.106 25.0654 136.1 24.9454L138.389 24.8093V24.1769C138.389 23.2484 137.788 22.6881 136.716 22.6881C135.715 22.6881 135.099 23.1603 134.955 23.8327L134.939 23.9048H133.306L133.314 23.8167C133.434 22.3679 134.691 21.2552 136.764 21.2552C138.821 21.2552 140.126 22.3439 140.126 24.0328V29.8362H138.389V28.5074H138.357C137.869 29.4119 136.892 29.9883 135.779 29.9883ZM134.715 27.4028C134.715 28.1392 135.323 28.6035 136.252 28.6035C137.468 28.6035 138.389 27.779 138.389 26.6824V26.026L136.332 26.1541C135.291 26.2181 134.715 26.6744 134.715 27.3868V27.4028ZM144.928 30.0043C142.823 30.0043 141.59 28.9637 141.414 27.4268L141.406 27.3548H143.119L143.135 27.4348C143.295 28.2112 143.871 28.6675 144.936 28.6675C145.976 28.6675 146.601 28.2353 146.601 27.5549V27.5469C146.601 27.0025 146.297 26.6904 145.392 26.4742L144.015 26.1621C142.414 25.7939 141.622 25.0254 141.622 23.8007V23.7927C141.622 22.2878 142.935 21.2552 144.872 21.2552C146.865 21.2552 148.066 22.3679 148.154 23.8007L148.162 23.8968H146.537L146.529 23.8407C146.425 23.1043 145.848 22.592 144.872 22.592C143.943 22.592 143.359 23.0323 143.359 23.7046V23.7127C143.359 24.233 143.703 24.5852 144.608 24.8013L145.976 25.1135C147.697 25.5137 148.354 26.1941 148.354 27.4028V27.4108C148.354 28.9477 146.913 30.0043 144.928 30.0043ZM152.619 30.0043C150.955 30.0043 150.154 29.2999 150.154 27.6189V22.7921H148.945V21.4153H150.154V19.2221H151.923V21.4153H153.5V22.7921H151.923V27.5148C151.923 28.3713 152.307 28.6275 153.036 28.6275C153.22 28.6275 153.372 28.6115 153.5 28.5955V29.9322C153.3 29.9643 152.972 30.0043 152.619 30.0043ZM159.854 29.8362L157.541 21.4153H159.27L160.807 28.0431H160.839L162.592 21.4153H164.257L166.018 28.0431H166.058L167.595 21.4153H169.308L167.002 29.8362H165.201L163.432 23.5285H163.392L161.639 29.8362H159.854ZM171.268 20.1186C170.708 20.1186 170.259 19.6703 170.259 19.126C170.259 18.5737 170.708 18.1254 171.268 18.1254C171.836 18.1254 172.277 18.5737 172.277 19.126C172.277 19.6703 171.836 20.1186 171.268 20.1186ZM170.403 29.8362V21.4153H172.132V29.8362H170.403ZM176.838 30.0043C175.173 30.0043 174.373 29.2999 174.373 27.6189V22.7921H173.164V21.4153H174.373V19.2221H176.142V21.4153H177.719V22.7921H176.142V27.5148C176.142 28.3713 176.526 28.6275 177.255 28.6275C177.439 28.6275 177.591 28.6115 177.719 28.5955V29.9322C177.519 29.9643 177.191 30.0043 176.838 30.0043ZM179.183 29.8362V18.2855H180.912V22.8001H180.952C181.4 21.8236 182.305 21.2552 183.561 21.2552C185.363 21.2552 186.547 22.6 186.547 24.6332V29.8362H184.818V24.9614C184.818 23.5686 184.114 22.7361 182.897 22.7361C181.704 22.7361 180.912 23.6486 180.912 24.9614V29.8362H179.183ZM22.4448 51.9883C20.7638 51.9883 19.6352 50.9557 19.6352 49.4428V49.4268C19.6352 47.9619 20.7718 47.0654 22.765 46.9454L25.0543 46.8093V46.1769C25.0543 45.2484 24.4539 44.6881 23.3813 44.6881C22.3807 44.6881 21.7644 45.1603 21.6203 45.8327L21.6043 45.9048H19.9714L19.9794 45.8167C20.0994 44.3679 21.3562 43.2552 23.4294 43.2552C25.4865 43.2552 26.7913 44.3439 26.7913 46.0328V51.8362H25.0543V50.5074H25.0223C24.534 51.4119 23.5574 51.9883 22.4448 51.9883ZM21.3802 49.4028C21.3802 50.1392 21.9885 50.6035 22.9171 50.6035C24.1338 50.6035 25.0543 49.779 25.0543 48.6824V48.026L22.9971 48.1541C21.9565 48.2181 21.3802 48.6744 21.3802 49.3868V49.4028ZM30.7368 51.8362L27.703 43.4153H29.5441L31.6573 50.1472H31.6973L33.8106 43.4153H35.6116L32.5939 51.8362H30.7368ZM39.8693 52.0043C37.4519 52.0043 35.875 50.3313 35.875 47.6258V47.6097C35.875 44.9202 37.4679 43.2552 39.8613 43.2552C42.2627 43.2552 43.8636 44.9122 43.8636 47.6097V47.6258C43.8636 50.3393 42.2787 52.0043 39.8693 52.0043ZM39.8773 50.5554C41.2301 50.5554 42.0946 49.4828 42.0946 47.6258V47.6097C42.0946 45.7687 41.2141 44.7041 39.8613 44.7041C38.5325 44.7041 37.644 45.7687 37.644 47.6097V47.6258C37.644 49.4908 38.5245 50.5554 39.8773 50.5554ZM48.7857 52.0043C46.3282 52.0043 44.7914 50.3153 44.7914 47.6178V47.6097C44.7914 44.9442 46.3603 43.2552 48.7616 43.2552C50.9309 43.2552 52.2436 44.648 52.3877 46.233L52.3957 46.289H50.7468L50.7308 46.2249C50.5467 45.4005 49.9063 44.7041 48.7777 44.7041C47.4329 44.7041 46.5604 45.8247 46.5604 47.6258V47.6338C46.5604 49.4748 47.4489 50.5554 48.7857 50.5554C49.8503 50.5554 50.5307 49.9391 50.7388 49.0266L50.7468 48.9625H52.4117L52.4037 49.0186C52.2196 50.7075 50.8108 52.0043 48.7857 52.0043ZM56.0771 51.9883C54.3961 51.9883 53.2675 50.9557 53.2675 49.4428V49.4268C53.2675 47.9619 54.4041 47.0654 56.3973 46.9454L58.6866 46.8093V46.1769C58.6866 45.2484 58.0862 44.6881 57.0136 44.6881C56.0131 44.6881 55.3967 45.1603 55.2526 45.8327L55.2366 45.9048H53.6037L53.6117 45.8167C53.7317 44.3679 54.9885 43.2552 57.0617 43.2552C59.1188 43.2552 60.4236 44.3439 60.4236 46.0328V51.8362H58.6866V50.5074H58.6546C58.1663 51.4119 57.1897 51.9883 56.0771 51.9883ZM55.0125 49.4028C55.0125 50.1392 55.6208 50.6035 56.5494 50.6035C57.7661 50.6035 58.6866 49.779 58.6866 48.6824V48.026L56.6294 48.1541C55.5888 48.2181 55.0125 48.6744 55.0125 49.3868V49.4028ZM65.2176 52.0043C63.0724 52.0043 61.6956 50.3073 61.6956 47.6258V47.6178C61.6956 44.9362 63.0884 43.2552 65.2016 43.2552C66.3943 43.2552 67.3548 43.8556 67.8591 44.8482H67.8911V40.2855H69.6281V51.8362H67.8911V50.4114H67.8591C67.3548 51.3959 66.4263 52.0043 65.2176 52.0043ZM65.6739 50.5154C66.9786 50.5154 67.8991 49.3788 67.8991 47.6258V47.6178C67.8991 45.8727 66.9706 44.7361 65.6739 44.7361C64.3131 44.7361 63.4646 45.8407 63.4646 47.6178V47.6258C63.4646 49.4188 64.3051 50.5154 65.6739 50.5154ZM74.9905 52.0043C72.5731 52.0043 70.9961 50.3313 70.9961 47.6258V47.6097C70.9961 44.9202 72.5891 43.2552 74.9824 43.2552C77.3838 43.2552 78.9848 44.9122 78.9848 47.6097V47.6258C78.9848 50.3393 77.3998 52.0043 74.9905 52.0043ZM74.9985 50.5554C76.3512 50.5554 77.2157 49.4828 77.2157 47.6258V47.6097C77.2157 45.7687 76.3352 44.7041 74.9824 44.7041C73.6537 44.7041 72.7652 45.7687 72.7652 47.6097V47.6258C72.7652 49.4908 73.6457 50.5554 74.9985 50.5554ZM86.0593 51.9883C84.3783 51.9883 83.2497 50.9557 83.2497 49.4428V49.4268C83.2497 47.9619 84.3863 47.0654 86.3795 46.9454L88.6688 46.8093V46.1769C88.6688 45.2484 88.0684 44.6881 86.9958 44.6881C85.9953 44.6881 85.3789 45.1603 85.2348 45.8327L85.2188 45.9048H83.5859L83.5939 45.8167C83.7139 44.3679 84.9707 43.2552 87.0439 43.2552C89.101 43.2552 90.4058 44.3439 90.4058 46.0328V51.8362H88.6688V50.5074H88.6368C88.1485 51.4119 87.1719 51.9883 86.0593 51.9883ZM84.9947 49.4028C84.9947 50.1392 85.603 50.6035 86.5316 50.6035C87.7483 50.6035 88.6688 49.779 88.6688 48.6824V48.026L86.6116 48.1541C85.571 48.2181 84.9947 48.6744 84.9947 49.3868V49.4028ZM92.054 51.8362V43.4153H93.783V44.6881H93.823C94.2633 43.8316 95.1278 43.2552 96.4005 43.2552C98.2495 43.2552 99.3142 44.4479 99.3142 46.385V51.8362H97.5772V46.7132C97.5772 45.4485 96.9848 44.7361 95.7841 44.7361C94.5674 44.7361 93.783 45.6166 93.783 46.9294V51.8362H92.054ZM104.1 52.0043C101.955 52.0043 100.578 50.3073 100.578 47.6258V47.6178C100.578 44.9362 101.971 43.2552 104.084 43.2552C105.277 43.2552 106.237 43.8556 106.742 44.8482H106.774V40.2855H108.511V51.8362H106.774V50.4114H106.742C106.237 51.3959 105.309 52.0043 104.1 52.0043ZM104.556 50.5154C105.861 50.5154 106.782 49.3788 106.782 47.6258V47.6178C106.782 45.8727 105.853 44.7361 104.556 44.7361C103.196 44.7361 102.347 45.8407 102.347 47.6178V47.6258C102.347 49.4188 103.188 50.5154 104.556 50.5154ZM113.552 54.6378V43.4153H115.281V44.8642H115.321C115.825 43.8636 116.754 43.2552 117.955 43.2552C120.1 43.2552 121.477 44.9362 121.477 47.6258V47.6338C121.477 50.3153 120.092 52.0043 117.979 52.0043C116.786 52.0043 115.817 51.3959 115.321 50.4194H115.281V54.6378H113.552ZM117.506 50.5154C118.867 50.5154 119.716 49.4108 119.716 47.6338V47.6258C119.716 45.8327 118.859 44.7361 117.506 44.7361C116.194 44.7361 115.273 45.8727 115.273 47.6258V47.6338C115.273 49.3788 116.202 50.5154 117.506 50.5154ZM126.407 52.0043C123.989 52.0043 122.412 50.3313 122.412 47.6258V47.6097C122.412 44.9202 124.005 43.2552 126.399 43.2552C128.8 43.2552 130.401 44.9122 130.401 47.6097V47.6258C130.401 50.3393 128.816 52.0043 126.407 52.0043ZM126.415 50.5554C127.767 50.5554 128.632 49.4828 128.632 47.6258V47.6097C128.632 45.7687 127.751 44.7041 126.399 44.7041C125.07 44.7041 124.181 45.7687 124.181 47.6097V47.6258C124.181 49.4908 125.062 50.5554 126.415 50.5554ZM134.178 51.9883C132.497 51.9883 131.369 50.9557 131.369 49.4428V49.4268C131.369 47.9619 132.505 47.0654 134.499 46.9454L136.788 46.8093V46.1769C136.788 45.2484 136.188 44.6881 135.115 44.6881C134.114 44.6881 133.498 45.1603 133.354 45.8327L133.338 45.9048H131.705L131.713 45.8167C131.833 44.3679 133.09 43.2552 135.163 43.2552C137.22 43.2552 138.525 44.3439 138.525 46.0328V51.8362H136.788V50.5074H136.756C136.268 51.4119 135.291 51.9883 134.178 51.9883ZM133.114 49.4028C133.114 50.1392 133.722 50.6035 134.651 50.6035C135.867 50.6035 136.788 49.779 136.788 48.6824V48.026L134.731 48.1541C133.69 48.2181 133.114 48.6744 133.114 49.3868V49.4028ZM143.791 52.0043C141.334 52.0043 139.797 50.3153 139.797 47.6178V47.6097C139.797 44.9442 141.366 43.2552 143.767 43.2552C145.936 43.2552 147.249 44.648 147.393 46.233L147.401 46.289H145.752L145.736 46.2249C145.552 45.4005 144.912 44.7041 143.783 44.7041C142.438 44.7041 141.566 45.8247 141.566 47.6258V47.6338C141.566 49.4748 142.454 50.5554 143.791 50.5554C144.856 50.5554 145.536 49.9391 145.744 49.0266L145.752 48.9625H147.417L147.409 49.0186C147.225 50.7075 145.816 52.0043 143.791 52.0043ZM148.673 51.8362V40.2855H150.402V44.8001H150.442C150.89 43.8236 151.795 43.2552 153.052 43.2552C154.853 43.2552 156.037 44.6 156.037 46.6332V51.8362H154.308V46.9614C154.308 45.5686 153.604 44.7361 152.387 44.7361C151.195 44.7361 150.402 45.6486 150.402 46.9614V51.8362H148.673ZM161.28 52.0043C158.806 52.0043 157.309 50.3153 157.309 47.6578V47.6498C157.309 45.0163 158.83 43.2552 161.192 43.2552C163.553 43.2552 165.002 44.9522 165.002 47.4817V48.066H159.038C159.07 49.6589 159.943 50.5875 161.32 50.5875C162.344 50.5875 163.025 50.0592 163.241 49.4268L163.265 49.3628H164.906L164.89 49.4508C164.618 50.7876 163.321 52.0043 161.28 52.0043ZM161.2 44.6721C160.079 44.6721 159.215 45.4325 159.062 46.8413H163.289C163.145 45.3845 162.328 44.6721 161.2 44.6721ZM169.46 52.0043C167.314 52.0043 165.938 50.3073 165.938 47.6258V47.6178C165.938 44.9362 167.33 43.2552 169.444 43.2552C170.636 43.2552 171.597 43.8556 172.101 44.8482H172.133V40.2855H173.87V51.8362H172.133V50.4114H172.101C171.597 51.3959 170.668 52.0043 169.46 52.0043ZM169.916 50.5154C171.221 50.5154 172.141 49.3788 172.141 47.6258V47.6178C172.141 45.8727 171.213 44.7361 169.916 44.7361C168.555 44.7361 167.707 45.8407 167.707 47.6178V47.6258C167.707 49.4188 168.547 50.5154 169.916 50.5154ZM182.506 52.0043C180.032 52.0043 178.535 50.3153 178.535 47.6578V47.6498C178.535 45.0163 180.056 43.2552 182.418 43.2552C184.779 43.2552 186.228 44.9522 186.228 47.4817V48.066H180.264C180.296 49.6589 181.169 50.5875 182.546 50.5875C183.57 50.5875 184.251 50.0592 184.467 49.4268L184.491 49.3628H186.132L186.116 49.4508C185.844 50.7876 184.547 52.0043 182.506 52.0043ZM182.426 44.6721C181.305 44.6721 180.44 45.4325 180.288 46.8413H184.515C184.371 45.3845 183.554 44.6721 182.426 44.6721ZM191.23 54.8059C189.069 54.8059 187.7 53.8053 187.444 52.5166L187.436 52.4445H189.149L189.181 52.5086C189.413 53.0449 190.141 53.4131 191.222 53.4131C192.599 53.4131 193.359 52.6767 193.359 51.5V50.3473H193.319C192.839 51.2598 191.878 51.8442 190.67 51.8442C188.556 51.8442 187.164 50.1872 187.164 47.5617V47.5537C187.164 44.9122 188.572 43.2552 190.71 43.2552C191.894 43.2552 192.823 43.8956 193.319 44.8482H193.359V43.4153H195.096V51.604C195.096 53.5252 193.607 54.8059 191.23 54.8059ZM191.158 50.4354C192.479 50.4354 193.359 49.3227 193.359 47.5857V47.5777C193.359 45.8487 192.471 44.7361 191.158 44.7361C189.789 44.7361 188.933 45.8407 188.933 47.5777V47.5857C188.933 49.3467 189.789 50.4354 191.158 50.4354ZM200.466 54.8059C198.305 54.8059 196.936 53.8053 196.68 52.5166L196.672 52.4445H198.385L198.417 52.5086C198.649 53.0449 199.378 53.4131 200.458 53.4131C201.835 53.4131 202.596 52.6767 202.596 51.5V50.3473H202.556C202.075 51.2598 201.115 51.8442 199.906 51.8442C197.793 51.8442 196.4 50.1872 196.4 47.5617V47.5537C196.4 44.9122 197.809 43.2552 199.946 43.2552C201.131 43.2552 202.059 43.8956 202.556 44.8482H202.596V43.4153H204.333V51.604C204.333 53.5252 202.844 54.8059 200.466 54.8059ZM200.394 50.4354C201.715 50.4354 202.596 49.3227 202.596 47.5857V47.5777C202.596 45.8487 201.707 44.7361 200.394 44.7361C199.026 44.7361 198.169 45.8407 198.169 47.5777V47.5857C198.169 49.3467 199.026 50.4354 200.394 50.4354ZM209.167 52.0043C207.061 52.0043 205.829 50.9637 205.653 49.4268L205.645 49.3548H207.358L207.374 49.4348C207.534 50.2112 208.11 50.6675 209.175 50.6675C210.215 50.6675 210.84 50.2353 210.84 49.5549V49.5469C210.84 49.0025 210.535 48.6904 209.631 48.4742L208.254 48.1621C206.653 47.7939 205.861 47.0254 205.861 45.8007V45.7927C205.861 44.2878 207.174 43.2552 209.111 43.2552C211.104 43.2552 212.305 44.3679 212.393 45.8007L212.401 45.8968H210.776L210.768 45.8407C210.664 45.1043 210.087 44.592 209.111 44.592C208.182 44.592 207.598 45.0323 207.598 45.7046V45.7127C207.598 46.233 207.942 46.5852 208.847 46.8013L210.215 47.1135C211.936 47.5137 212.593 48.1941 212.593 49.4028V49.4108C212.593 50.9477 211.152 52.0043 209.167 52.0043Z" fill="#37394A"/>
<g filter="url(#filter1_ddd_625_1003)">
<rect x="19.1149" y="69.9509" width="19.6721" height="19.6721" rx="9.83607" fill="#F99B30" fill-opacity="0.12" shape-rendering="crispEdges"/>
<g clip-path="url(#clip0_625_1003)">
<path fill-rule="evenodd" clip-rule="evenodd" d="M27.1068 75.2258L27.5814 75.5344C28.6757 76.2451 29.1066 77.083 29.2523 77.7642C29.272 77.8555 29.2863 77.943 29.2954 78.0267C29.4447 77.7728 29.5658 77.4383 29.5658 77.0215V76.376L30.0669 76.783C31.1212 77.6394 31.6935 78.4262 31.9984 79.1166C32.3052 79.8094 32.3322 80.383 32.3322 80.7869C32.3322 82.6189 30.8113 84.0912 28.9511 84.0912C27.0908 84.0912 25.5699 82.6189 25.5699 80.7869C25.5699 80.0898 25.6708 79.574 25.8294 79.1492C25.9861 78.7318 26.1939 78.4164 26.3839 78.1287L26.3894 78.1201C26.5824 77.8275 26.7558 77.5625 26.8861 77.2139C27.0152 76.8685 27.1068 76.4271 27.1068 75.792V75.2258Z" fill="#F99B30"/>
</g>
</g>
<path d="M50.4201 85.2871V76.4908H50.3841L47.6682 78.3639V76.8366L50.4057 74.8915H51.9979V85.2871H50.4201ZM54.5042 85.2871V84.1777L58.1639 80.4963C59.5471 79.1132 59.8569 78.5656 59.8569 77.7588V77.7444C59.8497 76.7574 59.1005 76.0514 58.0486 76.0514C56.8311 76.0514 55.9594 76.8727 55.945 77.9245V77.9677H54.4178V77.9245C54.4178 76.0658 55.9955 74.7186 58.027 74.7186C60.0226 74.7186 61.449 75.9721 61.449 77.6507V77.6651C61.449 78.8538 60.8943 79.6967 59.0284 81.541L56.6655 83.8607V83.9255H61.6147V85.2871H54.5042ZM66.801 85.46C64.3156 85.46 62.8315 83.3924 62.8315 80.0929V80.0785C62.8315 76.779 64.3156 74.7186 66.801 74.7186C69.2792 74.7186 70.7705 76.779 70.7705 80.0785V80.0929C70.7705 83.3924 69.2792 85.46 66.801 85.46ZM66.801 84.1128C68.2778 84.1128 69.1423 82.5856 69.1423 80.0929V80.0785C69.1423 77.5859 68.2778 76.073 66.801 76.073C65.3169 76.073 64.4596 77.5859 64.4596 80.0785V80.0929C64.4596 82.5856 65.3169 84.1128 66.801 84.1128ZM72.2538 81.7715V80.3667H76.8861V81.7715H72.2538ZM80.7757 85.2871V76.4908H80.7396L78.0237 78.3639V76.8366L80.7613 74.8915H82.3534V85.2871H80.7757ZM89.8018 85.2871V83.2195H84.6004V81.8147L89.0165 74.8915H91.3507V81.8651H92.7843V83.2195H91.3507V85.2871H89.8018ZM86.0988 81.8868H89.8162V76.1667H89.773L86.0988 81.8435V81.8868ZM97.7617 85.46C95.2762 85.46 93.7922 83.3924 93.7922 80.0929V80.0785C93.7922 76.779 95.2762 74.7186 97.7617 74.7186C100.24 74.7186 101.731 76.779 101.731 80.0785V80.0929C101.731 83.3924 100.24 85.46 97.7617 85.46ZM97.7617 84.1128C99.2385 84.1128 100.103 82.5856 100.103 80.0929V80.0785C100.103 77.5859 99.2385 76.073 97.7617 76.073C96.2776 76.073 95.4203 77.5859 95.4203 80.0785V80.0929C95.4203 82.5856 96.2776 84.1128 97.7617 84.1128ZM106.16 85.2871V74.8915H107.716V80.943H107.752L110.793 77.7083H112.622L109.51 80.979L112.745 85.2871H110.937L108.365 81.9156L107.716 82.5567V85.2871H106.16ZM116.39 85.4384C114.178 85.4384 112.795 83.9183 112.795 81.4905V81.4833C112.795 79.0843 114.207 77.5643 116.368 77.5643C118.32 77.5643 119.502 78.8178 119.631 80.2442L119.639 80.2946H118.155L118.14 80.237C117.974 79.495 117.398 78.8682 116.382 78.8682C115.172 78.8682 114.387 79.8768 114.387 81.4977V81.5049C114.387 83.1619 115.186 84.1344 116.39 84.1344C117.348 84.1344 117.96 83.5797 118.147 82.7585L118.155 82.7008H119.653L119.646 82.7512C119.48 84.2713 118.212 85.4384 116.39 85.4384ZM122.952 85.424C121.439 85.424 120.423 84.4947 120.423 83.1331V83.1187C120.423 81.8003 121.446 80.9934 123.24 80.8854L125.3 80.7629V80.1938C125.3 79.3581 124.76 78.8538 123.795 78.8538C122.894 78.8538 122.339 79.2788 122.21 79.884L122.195 79.9488H120.726L120.733 79.8696C120.841 78.5656 121.972 77.5643 123.838 77.5643C125.689 77.5643 126.864 78.544 126.864 80.0641V85.2871H125.3V84.0912H125.272C124.832 84.9053 123.953 85.424 122.952 85.424ZM121.994 83.097C121.994 83.7598 122.541 84.1777 123.377 84.1777C124.472 84.1777 125.3 83.4356 125.3 82.4487V81.8579L123.449 81.9732C122.512 82.0308 121.994 82.4415 121.994 83.0826V83.097ZM128.405 85.2871V74.8915H129.961V85.2871H128.405Z" fill="#37394A" fill-opacity="0.8"/>
<rect x="137.541" y="77.3279" width="4.91803" height="4.91803" rx="2.45902" fill="#37394A" fill-opacity="0.16"/>
<path d="M152.453 85.2871V76.4908H152.417L149.701 78.3639V76.8366L152.438 74.8915H154.031V85.2871H152.453ZM160.334 85.46C157.848 85.46 156.364 83.3924 156.364 80.0929V80.0785C156.364 76.779 157.848 74.7186 160.334 74.7186C162.812 74.7186 164.303 76.779 164.303 80.0785V80.0929C164.303 83.3924 162.812 85.46 160.334 85.46ZM160.334 84.1128C161.81 84.1128 162.675 82.5856 162.675 80.0929V80.0785C162.675 77.5859 161.81 76.073 160.334 76.073C158.849 76.073 157.992 77.5859 157.992 80.0785V80.0929C157.992 82.5856 158.849 84.1128 160.334 84.1128ZM169.511 85.46C167.025 85.46 165.541 83.3924 165.541 80.0929V80.0785C165.541 76.779 167.025 74.7186 169.511 74.7186C171.989 74.7186 173.48 76.779 173.48 80.0785V80.0929C173.48 83.3924 171.989 85.46 169.511 85.46ZM169.511 84.1128C170.988 84.1128 171.852 82.5856 171.852 80.0929V80.0785C171.852 77.5859 170.988 76.073 169.511 76.073C168.027 76.073 167.17 77.5859 167.17 80.0785V80.0929C167.17 82.5856 168.027 84.1128 169.511 84.1128ZM181.144 87.9598C179.199 87.9598 177.967 87.0593 177.737 85.8995L177.729 85.8346H179.271L179.3 85.8923C179.509 86.3749 180.164 86.7063 181.137 86.7063C182.376 86.7063 183.061 86.0435 183.061 84.9845V83.9471H183.025C182.592 84.7684 181.728 85.2943 180.64 85.2943C178.738 85.2943 177.485 83.8031 177.485 81.4401V81.4329C177.485 79.0555 178.752 77.5643 180.676 77.5643C181.742 77.5643 182.578 78.1406 183.025 78.9979H183.061V77.7083H184.624V85.0782C184.624 86.8072 183.284 87.9598 181.144 87.9598ZM181.079 84.0264C182.268 84.0264 183.061 83.025 183.061 81.4617V81.4545C183.061 79.8984 182.261 78.897 181.079 78.897C179.847 78.897 179.077 79.8912 179.077 81.4545V81.4617C179.077 83.0466 179.847 84.0264 181.079 84.0264ZM186.136 85.2871V77.7083H187.692V79.0051H187.728C187.973 78.119 188.607 77.5643 189.472 77.5643C189.695 77.5643 189.889 77.6003 190.012 77.6219V79.0699C189.889 79.0195 189.616 78.9835 189.313 78.9835C188.312 78.9835 187.692 79.6391 187.692 80.7701V85.2871H186.136Z" fill="#37394A" fill-opacity="0.8"/>
</g>
<defs>
<filter id="filter0_d_625_1003" x="0.891769" y="0.445885" width="243.003" height="109.954" filterUnits="userSpaceOnUse" color-interpolation-filters="sRGB">
<feFlood flood-opacity="0" result="BackgroundImageFix"/>
<feColorMatrix in="SourceAlpha" type="matrix" values="0 0 0 0 0 0 0 0 0 0 0 0 0 0 0 0 0 0 127 0" result="hardAlpha"/>
<feOffset dy="2.55412"/>
<feGaussianBlur stdDeviation="2.55412"/>
<feComposite in2="hardAlpha" operator="out"/>
<feColorMatrix type="matrix" values="0 0 0 0 0.215686 0 0 0 0 0.223529 0 0 0 0 0.290196 0 0 0 0.04 0"/>
<feBlend mode="normal" in2="BackgroundImageFix" result="effect1_dropShadow_625_1003"/>
<feBlend mode="normal" in="SourceGraphic" in2="effect1_dropShadow_625_1003" result="shape"/>
</filter>
<filter id="filter1_ddd_625_1003" x="12.5575" y="65.0329" width="32.7869" height="32.7869" filterUnits="userSpaceOnUse" color-interpolation-filters="sRGB">
<feFlood flood-opacity="0" result="BackgroundImageFix"/>
<feColorMatrix in="SourceAlpha" type="matrix" values="0 0 0 0 0 0 0 0 0 0 0 0 0 0 0 0 0 0 127 0" result="hardAlpha"/>
<feOffset dy="1.63934"/>
<feGaussianBlur stdDeviation="3.27869"/>
<feComposite in2="hardAlpha" operator="out"/>
<feColorMatrix type="matrix" values="0 0 0 0 0.0117647 0 0 0 0 0.027451 0 0 0 0 0.0705882 0 0 0 0.1 0"/>
<feBlend mode="normal" in2="BackgroundImageFix" result="effect1_dropShadow_625_1003"/>
<feColorMatrix in="SourceAlpha" type="matrix" values="0 0 0 0 0 0 0 0 0 0 0 0 0 0 0 0 0 0 127 0" result="hardAlpha"/>
<feMorphology radius="0.819672" operator="erode" in="SourceAlpha" result="effect2_dropShadow_625_1003"/>
<feOffset dy="0.819672"/>
<feGaussianBlur stdDeviation="0.819672"/>
<feComposite in2="hardAlpha" operator="out"/>
<feColorMatrix type="matrix" values="0 0 0 0 0.0117647 0 0 0 0 0.027451 0 0 0 0 0.0705882 0 0 0 0.08 0"/>
<feBlend mode="normal" in2="effect1_dropShadow_625_1003" result="effect2_dropShadow_625_1003"/>
<feColorMatrix in="SourceAlpha" type="matrix" values="0 0 0 0 0 0 0 0 0 0 0 0 0 0 0 0 0 0 127 0" result="hardAlpha"/>
<feMorphology radius="0.819672" operator="dilate" in="SourceAlpha" result="effect3_dropShadow_625_1003"/>
<feOffset/>
<feComposite in2="hardAlpha" operator="out"/>
<feColorMatrix type="matrix" values="0 0 0 0 0.976471 0 0 0 0 0.607843 0 0 0 0 0.188235 0 0 0 1 0"/>
<feBlend mode="normal" in2="effect2_dropShadow_625_1003" result="effect3_dropShadow_625_1003"/>
<feBlend mode="normal" in="SourceGraphic" in2="effect3_dropShadow_625_1003" result="shape"/>
</filter>
<linearGradient id="paint0_linear_625_1003" x1="122.393" y1="3" x2="122.393" y2="102.738" gradientUnits="userSpaceOnUse">
<stop stop-color="#23A605" stop-opacity="0.12"/>
<stop offset="1" stop-color="#23A605" stop-opacity="0.06"/>
</linearGradient>
<clipPath id="clip0_625_1003">
<rect width="9.83607" height="9.83607" fill="white" transform="translate(24.0331 74.8689)"/>
</clipPath>
</defs>
</svg>
