<svg width="148" height="137" viewBox="0 0 148 137" fill="none" xmlns="http://www.w3.org/2000/svg">
<g filter="url(#filter0_d_625_1497)">
<rect x="23.7166" y="1.36938" width="122" height="112.758" rx="11.0909" transform="rotate(10 23.7166 1.36938)" fill="#FFF1B8"/>
<rect x="24.2788" y="2.17241" width="120.614" height="111.371" rx="10.3977" transform="rotate(10 24.2788 2.17241)" stroke="url(#paint0_linear_625_1497)" stroke-opacity="0.32" stroke-width="1.38636"/>
<path d="M63.4557 77.8867L65.265 67.6256L71.6719 68.7554L71.4299 70.1278L66.6158 69.2789L66.0428 72.5286L70.4516 73.306L70.2146 74.65L65.8058 73.8726L65.0485 78.1676L63.4557 77.8867ZM72.7678 79.668C71.2745 79.4047 70.4336 78.3106 70.6706 76.9667L70.6731 76.9524C70.9026 75.6511 72.0528 75.0328 73.8422 75.2383L75.8972 75.476L75.9963 74.9142C76.1417 74.0894 75.6962 73.4976 74.7433 73.3296C73.8545 73.1728 73.2329 73.4958 72.9996 74.0706L72.9741 74.1321L71.5235 73.8763L71.5444 73.7993C71.878 72.531 73.1687 71.7395 75.0104 72.0642C76.8379 72.3865 77.8265 73.5579 77.5619 75.0583L76.6529 80.2138L75.1098 79.9417L75.318 78.7613L75.2895 78.7563C74.7141 79.4833 73.7563 79.8423 72.7678 79.668ZM72.2271 77.2044C72.1117 77.8586 72.5794 78.3664 73.4043 78.5118C74.4852 78.7024 75.4321 78.1142 75.6038 77.14L75.7067 76.5569L73.8591 76.3484C72.9246 76.2423 72.3412 76.5573 72.2296 77.1902L72.2271 77.2044ZM80.7147 81.0839C79.2356 80.8231 78.6348 80.072 78.8982 78.5787L79.6542 74.2908L78.5805 74.1015L78.7961 72.8784L79.8699 73.0677L80.2134 71.1193L81.785 71.3964L81.4414 73.3448L82.8423 73.5918L82.6266 74.8149L81.2257 74.5679L80.486 78.7634C80.3518 79.5242 80.653 79.812 81.3001 79.9261C81.4637 79.9549 81.6013 79.9645 81.7176 79.9703L81.5082 81.1579C81.3254 81.155 81.0276 81.1391 80.7147 81.0839Z" fill="#37394A"/>
<path d="M46.8135 101.907L49.1099 88.8836L49.0566 88.8742L44.5463 90.9384L44.945 88.6771L49.5061 86.5119L51.8634 86.9276L49.1494 102.319L46.8135 101.907ZM58.3617 104.208C54.9591 103.608 52.8701 101.359 53.329 98.7559L53.3328 98.7346C53.6751 96.7933 55.3432 95.5037 57.4256 95.42L57.435 95.3667C55.8042 94.5732 54.91 93.0958 55.1977 91.4638L55.2015 91.4425C55.6153 89.0958 58.1047 87.7641 61.1659 88.3039C64.2272 88.8437 66.1217 90.9484 65.7079 93.295L65.7042 93.3164C65.4164 94.9483 64.0707 96.0308 62.2669 96.2187L62.2575 96.272C64.1857 97.0629 65.3015 98.8434 64.9592 100.785L64.9554 100.806C64.4965 103.409 61.775 104.809 58.3617 104.208ZM59.9867 94.9917C61.704 95.2945 63.0522 94.5095 63.2986 93.1122L63.3024 93.0908C63.5506 91.6829 62.5397 90.4928 60.833 90.1918C59.1264 89.8909 57.7801 90.6653 57.5318 92.0733L57.5281 92.0947C57.2817 93.492 58.2801 94.6908 59.9867 94.9917ZM58.6984 102.298C60.661 102.644 62.2558 101.771 62.5304 100.213L62.5341 100.192C62.8106 98.6241 61.6233 97.249 59.65 96.901C57.6767 96.5531 56.0908 97.4392 55.8143 99.0072L55.8105 99.0285C55.5359 100.586 56.7357 101.952 58.6984 102.298Z" fill="#37394A"/>
<path d="M70.3006 109.438C68.7015 109.156 67.8263 108.225 67.7837 107.23L67.7811 107.172L68.87 107.364L68.885 107.424C69.008 107.927 69.5736 108.322 70.4571 108.477C71.5957 108.678 72.3536 108.164 72.5303 107.162L72.6762 106.335L72.6513 106.33C72.1394 106.978 71.3115 107.307 70.3844 107.143C68.7543 106.856 67.872 105.346 68.2286 103.324L68.2297 103.318C68.584 101.308 69.9406 100.2 71.5833 100.49C72.4979 100.651 73.1319 101.276 73.4028 102.068L73.4277 102.073L73.6208 100.977L74.7035 101.168L73.5943 107.459C73.3299 108.958 72.0552 109.747 70.3006 109.438ZM70.7898 106.227C71.8911 106.421 72.8035 105.613 73.0569 104.176L73.058 104.169C73.3092 102.744 72.7209 101.678 71.6258 101.485C70.4748 101.282 69.5906 102.076 69.3372 103.513L69.3361 103.519C69.0772 104.988 69.6388 106.024 70.7898 106.227ZM74.5073 107.806L75.6483 101.335L76.731 101.526L76.5379 102.621L76.5628 102.625C76.9122 101.917 77.5556 101.543 78.2835 101.671C78.4702 101.704 78.6265 101.764 78.7114 101.792L78.526 102.843C78.4444 102.797 78.2196 102.725 77.9583 102.679C77.1183 102.531 76.4677 103.019 76.2943 104.002L75.59 107.997L74.5073 107.806ZM79.7297 108.855C78.4417 108.628 77.714 107.698 77.9214 106.522L77.9236 106.509C78.1177 105.408 79.0982 104.869 80.6006 105.044L82.4734 105.265L82.5689 104.724C82.7082 103.933 82.2763 103.363 81.3741 103.204C80.5403 103.057 79.9474 103.363 79.721 103.92L79.6986 103.974L78.6533 103.789L78.6716 103.722C78.9526 102.675 80.0311 101.979 81.5555 102.248C83.0861 102.518 83.8984 103.515 83.6702 104.809L82.8813 109.282L81.7987 109.092L81.9841 108.04L81.9592 108.036C81.4546 108.678 80.5946 109.008 79.7297 108.855ZM79.0289 106.717C78.9192 107.339 79.3603 107.821 80.138 107.958C81.1584 108.138 82.0664 107.573 82.2321 106.634L82.3253 106.105L80.5769 105.906C79.7033 105.803 79.1375 106.101 79.0311 106.705L79.0289 106.717ZM83.8013 109.445L84.9423 102.974L86.025 103.165L85.8582 104.11L85.8831 104.115C86.2885 103.525 87.0113 103.21 87.8451 103.357C88.7286 103.513 89.3019 104.082 89.4425 104.922L89.4674 104.926C89.9654 104.212 90.8068 103.879 91.7152 104.04C92.997 104.266 93.6764 105.252 93.4493 106.54L92.6616 111.007L91.5789 110.816L92.3228 106.597C92.4797 105.708 92.0814 105.092 91.2289 104.942C90.3703 104.79 89.6538 105.325 89.498 106.208L88.7728 110.321L87.6901 110.13L88.4548 105.794C88.5931 105.01 88.1615 104.401 87.3588 104.259C86.5002 104.108 85.7584 104.677 85.5993 105.579L84.884 109.636L83.8013 109.445Z" fill="#37394A"/>
<g clip-path="url(#clip0_625_1497)">
<path d="M81.3928 37.0432L84.1997 35.0768C83.9672 34.7448 83.8201 34.3606 83.7715 33.9582C83.723 33.5559 83.7743 33.1477 83.9212 32.77C84.068 32.3922 84.3057 32.0565 84.6133 31.7925C84.9209 31.5285 85.2888 31.3445 85.6844 31.2567C86.0801 31.1689 86.4913 31.18 86.8817 31.2891C87.272 31.3982 87.6294 31.6018 87.9223 31.882C88.2151 32.1622 88.4344 32.5103 88.5606 32.8954C88.6867 33.2806 88.716 33.6909 88.6457 34.0901C89.045 34.1602 89.4209 34.3277 89.7399 34.5778C90.059 34.8279 90.3115 35.1529 90.4749 35.5239C90.6384 35.8948 90.7078 36.3004 90.677 36.7047C90.6463 37.1089 90.5162 37.4993 90.2985 37.8413C90.0808 38.1832 89.7821 38.4662 89.4288 38.6652C89.0756 38.8641 88.6787 38.9728 88.2734 38.9817C87.8681 38.9905 87.4669 38.8993 87.1053 38.716C86.7436 38.5327 86.4328 38.2631 86.2004 37.931L83.6019 39.7515M72.3363 44.9797L73.336 46.4073M77.8199 52.7363C83.3949 48.8316 85.6995 42.5033 82.9663 38.6014C80.2346 34.6986 73.4997 34.6998 67.925 38.6033M69.8438 47.7879C72.5755 51.6907 76.148 53.9048 77.8185 52.7341C79.4917 51.5625 78.6328 47.4494 75.8996 43.5476C73.1679 39.6447 69.5953 37.4306 67.9248 38.6014C66.2517 39.7729 67.1106 43.8861 69.8438 47.7879Z" stroke="#ECBD02" stroke-width="2.46465" stroke-linecap="round" stroke-linejoin="round"/>
</g>
</g>
<defs>
<filter id="filter0_d_625_1497" x="-1.61437" y="-1.50604" width="151.228" height="143.731" filterUnits="userSpaceOnUse" color-interpolation-filters="sRGB">
<feFlood flood-opacity="0" result="BackgroundImageFix"/>
<feColorMatrix in="SourceAlpha" type="matrix" values="0 0 0 0 0 0 0 0 0 0 0 0 0 0 0 0 0 0 127 0" result="hardAlpha"/>
<feOffset dy="2.87542"/>
<feGaussianBlur stdDeviation="2.87542"/>
<feComposite in2="hardAlpha" operator="out"/>
<feColorMatrix type="matrix" values="0 0 0 0 0.215686 0 0 0 0 0.223529 0 0 0 0 0.290196 0 0 0 0.04 0"/>
<feBlend mode="normal" in2="BackgroundImageFix" result="effect1_dropShadow_625_1497"/>
<feBlend mode="normal" in="SourceGraphic" in2="effect1_dropShadow_625_1497" result="shape"/>
</filter>
<linearGradient id="paint0_linear_625_1497" x1="23.7166" y1="57.7482" x2="145.717" y2="57.7482" gradientUnits="userSpaceOnUse">
<stop stop-color="#FFDF60" stop-opacity="0.64"/>
<stop offset="0.307692" stop-color="#FFDF60"/>
<stop offset="1" stop-color="#FFDF60" stop-opacity="0.52"/>
</linearGradient>
<clipPath id="clip0_625_1497">
<rect width="29.5758" height="29.5758" fill="white" transform="translate(66.6587 23.9568) rotate(10)"/>
</clipPath>
</defs>
</svg>
