<svg width="182" height="73" viewBox="0 0 182 73" fill="none" xmlns="http://www.w3.org/2000/svg">
<g filter="url(#filter0_dd_625_1014)">
<rect x="12.1428" y="6" width="157.714" height="48" rx="8.57143" fill="white"/>
<rect x="12.5714" y="6.42857" width="156.857" height="47.1429" rx="8.14286" stroke="url(#paint0_linear_625_1014)" stroke-width="0.857143"/>
<path d="M38.2858 24.8571L40.1629 28.7142C40.5222 29.819 40.5261 31.0086 40.174 32.1156C39.8219 33.2227 39.1316 34.1915 38.2001 34.8857C35.6287 37.0285 31.8572 38.5714 28.4287 38.5714C27.9514 38.5707 27.4838 38.4373 27.0781 38.186C26.6724 37.9347 26.3447 37.5755 26.1315 37.1485L24.4858 33.8571M36.4858 31.4571C37.1888 30.9288 37.7568 30.2415 38.1432 29.4516C38.5297 28.6616 38.7237 27.7914 38.7093 26.9121C38.6949 26.0329 38.4726 25.1695 38.0605 24.3926C37.6485 23.6157 37.0584 22.9474 36.3385 22.4423C35.6185 21.9372 34.7893 21.6097 33.9186 21.4866C33.0478 21.3635 32.1603 21.4483 31.3286 21.734C30.4969 22.0197 29.7446 22.4982 29.1333 23.1304C28.522 23.7626 28.0691 24.5305 27.8115 25.3714C26.8687 28.0542 27.1429 28.7142 25.0858 30.5828C24.6759 30.9189 24.3798 31.3734 24.2382 31.8842C24.0965 32.395 24.1162 32.937 24.2945 33.4362C24.4727 33.9354 24.8009 34.3673 25.2341 34.6728C25.6673 34.9783 26.1843 35.1424 26.7144 35.1428C30.1429 35.1428 33.9144 33.5999 36.4858 31.4571ZM35.2858 26.9999C35.2858 28.1834 34.3264 29.1428 33.1429 29.1428C31.9595 29.1428 31.0001 28.1834 31.0001 26.9999C31.0001 25.8165 31.9595 24.8571 33.1429 24.8571C34.3264 24.8571 35.2858 25.8165 35.2858 26.9999Z" stroke="#4790FF" stroke-width="1.71429" stroke-linecap="round" stroke-linejoin="round"/>
<path d="M49.2561 36.5V24.4213H56.798V26.0368H51.1311V29.8622H56.3208V31.4442H51.1311V36.5H49.2561ZM60.2458 36.659C58.488 36.659 57.3078 35.5792 57.3078 33.9972V33.9805C57.3078 32.4487 58.4964 31.5112 60.5806 31.3856L62.9746 31.2433V30.582C62.9746 29.611 62.3468 29.0251 61.2252 29.0251C60.1788 29.0251 59.5343 29.519 59.3836 30.2221L59.3669 30.2974H57.6593L57.6677 30.2054C57.7932 28.6903 59.1074 27.5268 61.2754 27.5268C63.4266 27.5268 64.791 28.6652 64.791 30.4314V36.5H62.9746V35.1105H62.9411C62.4305 36.0564 61.4093 36.659 60.2458 36.659ZM59.1325 33.9554C59.1325 34.7254 59.7687 35.2109 60.7397 35.2109C62.012 35.2109 62.9746 34.3488 62.9746 33.202V32.5156L60.8234 32.6496C59.7352 32.7165 59.1325 33.1936 59.1325 33.9386V33.9554ZM69.6033 36.6758C67.8622 36.6758 67.0251 35.9392 67.0251 34.1814V29.1339H65.7612V27.6942H67.0251V25.4007H68.875V27.6942H70.524V29.1339H68.875V34.0725C68.875 34.9682 69.2768 35.236 70.0385 35.236C70.2311 35.236 70.3901 35.2193 70.524 35.2026V36.6004C70.3148 36.6339 69.9716 36.6758 69.6033 36.6758ZM75.2861 36.6758C73.0846 36.6758 71.7955 35.5876 71.6114 33.9805L71.603 33.9051H73.3943L73.4111 33.9888C73.5785 34.8008 74.1811 35.2779 75.2944 35.2779C76.3826 35.2779 77.0355 34.8259 77.0355 34.1144V34.106C77.0355 33.5368 76.7174 33.2104 75.7715 32.9844L74.3318 32.6579C72.6577 32.2729 71.829 31.4693 71.829 30.1886V30.1802C71.829 28.6066 73.2018 27.5268 75.2275 27.5268C77.3117 27.5268 78.5673 28.6903 78.6594 30.1886L78.6678 30.2891H76.9685L76.9602 30.2305C76.8513 29.4604 76.2487 28.9247 75.2275 28.9247C74.2565 28.9247 73.6454 29.385 73.6454 30.0882V30.0965C73.6454 30.6406 74.0054 31.0089 74.9512 31.2349L76.3826 31.5614C78.1823 31.9799 78.8686 32.6914 78.8686 33.9554V33.9637C78.8686 35.5709 77.3619 36.6758 75.2861 36.6758Z" fill="#24242D"/>
<path d="M126.251 36.5V34.0977H120.208V32.4654L125.339 24.4213H128.051V32.524H129.717V34.0977H128.051V36.5H126.251ZM121.949 32.5491H126.268V25.9029H126.218L121.949 32.4989V32.5491ZM131.105 36.5V35.2109L135.357 30.9336C136.965 29.3265 137.325 28.6903 137.325 27.7528V27.736C137.316 26.5893 136.446 25.769 135.224 25.769C133.809 25.769 132.796 26.7232 132.779 27.9453V27.9955H131.005V27.9453C131.005 25.7857 132.838 24.2204 135.198 24.2204C137.517 24.2204 139.174 25.6769 139.174 27.6272V27.644C139.174 29.0251 138.53 30.0045 136.362 32.1473L133.616 34.8426V34.918H139.367V36.5H131.105ZM148.263 39.6055C146.003 39.6055 144.572 38.5592 144.304 37.2115L144.296 37.1362H146.087L146.12 37.2031C146.363 37.764 147.125 38.149 148.255 38.149C149.695 38.149 150.49 37.3789 150.49 36.1484V34.9431H150.448C149.946 35.8973 148.941 36.5084 147.677 36.5084C145.467 36.5084 144.011 34.7757 144.011 32.0301V32.0218C144.011 29.2595 145.484 27.5268 147.719 27.5268C148.958 27.5268 149.929 28.1964 150.448 29.1925H150.49V27.6942H152.306V36.2573C152.306 38.2662 150.749 39.6055 148.263 39.6055ZM148.188 35.0352C149.569 35.0352 150.49 33.8717 150.49 32.0552V32.0469C150.49 30.2388 149.561 29.0753 148.188 29.0753C146.756 29.0753 145.861 30.2305 145.861 32.0469V32.0552C145.861 33.8968 146.756 35.0352 148.188 35.0352ZM154.063 36.5V27.6942H155.871V29.2009H155.913C156.198 28.1713 156.934 27.5268 157.939 27.5268C158.198 27.5268 158.424 27.5686 158.567 27.5938V29.2762C158.424 29.2176 158.106 29.1758 157.755 29.1758C156.591 29.1758 155.871 29.9375 155.871 31.2517V36.5H154.063Z" fill="#24242D" fill-opacity="0.92"/>
</g>
<defs>
<filter id="filter0_dd_625_1014" x="0.142822" y="0.857143" width="181.714" height="72" filterUnits="userSpaceOnUse" color-interpolation-filters="sRGB">
<feFlood flood-opacity="0" result="BackgroundImageFix"/>
<feColorMatrix in="SourceAlpha" type="matrix" values="0 0 0 0 0 0 0 0 0 0 0 0 0 0 0 0 0 0 127 0" result="hardAlpha"/>
<feOffset dy="2.66667"/>
<feGaussianBlur stdDeviation="2.66667"/>
<feComposite in2="hardAlpha" operator="out"/>
<feColorMatrix type="matrix" values="0 0 0 0 0.215686 0 0 0 0 0.223529 0 0 0 0 0.290196 0 0 0 0.04 0"/>
<feBlend mode="normal" in2="BackgroundImageFix" result="effect1_dropShadow_625_1014"/>
<feColorMatrix in="SourceAlpha" type="matrix" values="0 0 0 0 0 0 0 0 0 0 0 0 0 0 0 0 0 0 127 0" result="hardAlpha"/>
<feMorphology radius="1.71429" operator="dilate" in="SourceAlpha" result="effect2_dropShadow_625_1014"/>
<feOffset dy="6.85714"/>
<feGaussianBlur stdDeviation="5.14286"/>
<feComposite in2="hardAlpha" operator="out"/>
<feColorMatrix type="matrix" values="0 0 0 0 0.792157 0 0 0 0 0.988235 0 0 0 0 0.12549 0 0 0 0.08 0"/>
<feBlend mode="normal" in2="effect1_dropShadow_625_1014" result="effect2_dropShadow_625_1014"/>
<feBlend mode="normal" in="SourceGraphic" in2="effect2_dropShadow_625_1014" result="shape"/>
</filter>
<linearGradient id="paint0_linear_625_1014" x1="91" y1="6" x2="91" y2="54" gradientUnits="userSpaceOnUse">
<stop stop-color="#23A605" stop-opacity="0.12"/>
<stop offset="1" stop-color="#23A605" stop-opacity="0.06"/>
</linearGradient>
</defs>
</svg>
