<?xml version="1.0" encoding="UTF-8"?>
<!DOCTYPE svg PUBLIC "-//W3C//DTD SVG 1.1//EN" "http://www.w3.org/Graphics/SVG/1.1/DTD/svg11.dtd">
<svg xmlns="http://www.w3.org/2000/svg" version="1.1" width="285px" height="400px" style="shape-rendering:geometricPrecision; text-rendering:geometricPrecision; image-rendering:optimizeQuality; fill-rule:evenodd; clip-rule:evenodd" xmlns:xlink="http://www.w3.org/1999/xlink">
<g><path style="opacity:1" fill="#060605" d="M 278.5,399.5 C 276.167,399.5 273.833,399.5 271.5,399.5C 271.667,283.166 271.5,166.833 271,50.5C 270.515,30.3648 260.682,17.5314 241.5,12C 207.69,10.8658 173.856,10.3658 140,10.5C 106.805,10.3585 73.6382,10.8585 40.5,12C 27.0087,16.158 18.1754,24.9913 14,38.5C 12.5113,158.803 12.0113,279.137 12.5,399.5C 10.1667,399.5 7.83333,399.5 5.5,399.5C 5.17605,278.816 5.50939,158.149 6.5,37.5C 11.8725,17.6378 24.8725,6.47114 45.5,4C 109.167,3.33333 172.833,3.33333 236.5,4C 260.735,6.23483 274.568,19.4015 278,43.5C 278.5,162.166 278.667,280.833 278.5,399.5 Z"/></g>
<g><path style="opacity:1" fill="#eff0f2" d="M 271.5,399.5 C 185.167,399.5 98.8333,399.5 12.5,399.5C 12.0113,279.137 12.5113,158.803 14,38.5C 18.1754,24.9913 27.0087,16.158 40.5,12C 73.6382,10.8585 106.805,10.3585 140,10.5C 173.856,10.3658 207.69,10.8658 241.5,12C 260.682,17.5314 270.515,30.3648 271,50.5C 271.5,166.833 271.667,283.166 271.5,399.5 Z"/></g>
<g><path style="opacity:1" fill="#ece8e2" d="M 38.5,-0.5 C 107.5,-0.5 176.5,-0.5 245.5,-0.5C 246.878,0.234419 248.378,0.901085 250,1.5C 250.414,1.04265 250.914,0.709312 251.5,0.5C 252.182,1.24269 252.849,1.90935 253.5,2.5C 257.941,6.0809 262.607,9.5809 267.5,13C 274.476,20.4552 278.643,29.2886 280,39.5C 279.865,46.9048 280.698,53.9048 282.5,60.5C 282.5,62.1667 282.5,63.8333 282.5,65.5C 280.502,176.495 279.835,287.828 280.5,399.5C 279.833,399.5 279.167,399.5 278.5,399.5C 278.667,280.833 278.5,162.166 278,43.5C 274.568,19.4015 260.735,6.23483 236.5,4C 172.833,3.33333 109.167,3.33333 45.5,4C 24.8725,6.47114 11.8725,17.6378 6.5,37.5C 6.76781,35.901 6.43448,34.5676 5.5,33.5C 5.73731,32.209 5.40397,31.209 4.5,30.5C 4.5,29.8333 4.5,29.1667 4.5,28.5C 5.39695,29.5981 6.23029,29.5981 7,28.5C 8.13945,24.8878 9.80612,21.5544 12,18.5C 15.7729,15.2365 18.9396,11.5698 21.5,7.5C 22.8588,5.17627 24.8588,3.5096 27.5,2.5C 28.8425,3.90227 29.6758,3.56893 30,1.5C 30.3333,1.83333 30.6667,2.16667 31,2.5C 31.6054,0.518768 32.6054,0.185435 34,1.5C 35.6225,0.901085 37.1225,0.234419 38.5,-0.5 Z"/></g>
<g><path style="opacity:0.91" fill="#8a847b" d="M 275.5,19.5 C 274.167,19.8333 274.167,20.1667 275.5,20.5C 278.315,21.9562 279.315,24.1229 278.5,27C 279.167,27.3333 279.833,27.6667 280.5,28C 279.549,28.7175 279.383,29.5509 280,30.5C 280.654,29.3044 281.154,29.3044 281.5,30.5C 282.25,32.6835 282.25,35.0169 281.5,37.5C 281.889,45.1637 282.222,52.8304 282.5,60.5C 280.698,53.9048 279.865,46.9048 280,39.5C 278.643,29.2886 274.476,20.4552 267.5,13C 262.607,9.5809 257.941,6.0809 253.5,2.5C 253.435,2.06178 253.601,1.72845 254,1.5C 254.324,3.56893 255.158,3.90227 256.5,2.5C 259.133,3.3006 260.967,4.96727 262,7.5C 262.333,7.16667 262.667,6.83333 263,6.5C 268.388,10.3713 272.555,14.7046 275.5,19.5 Z"/></g>
<g><path style="opacity:1" fill="#928f8c" d="M 21.5,7.5 C 18.9396,11.5698 15.7729,15.2365 12,18.5C 9.80612,21.5544 8.13945,24.8878 7,28.5C 6.23029,29.5981 5.39695,29.5981 4.5,28.5C 4.06178,28.5654 3.72845,28.3988 3.5,28C 5.30077,27.6827 5.63411,27.016 4.5,26C 6.30077,25.6827 6.63411,25.016 5.5,24C 7.30077,23.6827 7.63411,23.016 6.5,22C 7.66667,20.1667 8.83333,18.3333 10,16.5C 11.3639,17.2583 12.5305,16.7583 13.5,15C 13.1667,14.6667 12.8333,14.3333 12.5,14C 14.5265,11.2134 16.8598,9.54677 19.5,9C 19.1667,8.66667 18.8333,8.33333 18.5,8C 19.4162,7.62576 20.2496,7.12576 21,6.5C 21.3988,6.72845 21.5654,7.06178 21.5,7.5 Z"/></g>
<g><path style="opacity:1" fill="#010101" d="M 107.5,18.5 C 130.169,18.3334 152.836,18.5 175.5,19C 182.505,23.0976 184.338,28.9309 181,36.5C 179.457,38.3783 177.624,39.8783 175.5,41C 152.833,41.6667 130.167,41.6667 107.5,41C 101.456,37.5514 99.2895,32.3848 101,25.5C 102.694,22.6424 104.861,20.309 107.5,18.5 Z"/></g>
<g><path style="opacity:0.008" fill="#000000" d="M 275.5,19.5 C 276.833,20.1667 276.833,20.1667 275.5,19.5 Z"/></g>
<g><path style="opacity:1" fill="#1f1f1f" d="M 235.5,25.5 C 233.167,22.8333 230.833,22.8333 228.5,25.5C 227.226,24.8106 227.226,23.9772 228.5,23C 230.833,22.3333 233.167,22.3333 235.5,23C 236.774,23.9772 236.774,24.8106 235.5,25.5 Z"/></g>
<g><path style="opacity:1" fill="#1a1b1b" d="M 221.5,22.5 C 222.725,23.1522 223.392,24.3189 223.5,26C 223.167,27.1667 222.833,28.3333 222.5,29.5C 221.526,27.2573 221.192,24.924 221.5,22.5 Z"/></g>
<g><path style="opacity:1" fill="#868687" d="M 235.5,25.5 C 234.916,27.2569 233.749,28.5902 232,29.5C 230.97,29.1639 230.47,28.4972 230.5,27.5C 231.609,26.71 232.942,26.21 234.5,26C 233.667,25.8333 232.833,25.6667 232,25.5C 230.624,25.6842 229.791,26.3509 229.5,27.5C 228.662,27.1583 228.328,26.4916 228.5,25.5C 230.833,22.8333 233.167,22.8333 235.5,25.5 Z"/></g>
<g><path style="opacity:1" fill="#1e1f1f" d="M 53.5,24.5 C 53.56,23.9569 53.8933,23.6236 54.5,23.5C 55.6474,25.7649 55.8141,28.0982 55,30.5C 54.8091,28.2922 54.3091,26.2922 53.5,24.5 Z"/></g>
<g><path style="opacity:1" fill="#3d3d3d" d="M 218.5,24.5 C 219.649,24.7911 220.316,25.6244 220.5,27C 220.167,27.8333 219.833,28.6667 219.5,29.5C 218.548,27.9547 218.215,26.288 218.5,24.5 Z"/></g>
<g><path style="opacity:1" fill="#0e0f0f" d="M 230.5,27.5 C 230.167,27.5 229.833,27.5 229.5,27.5C 229.791,26.3509 230.624,25.6842 232,25.5C 232.833,25.6667 233.667,25.8333 234.5,26C 232.942,26.21 231.609,26.71 230.5,27.5 Z"/></g>
<g><path style="opacity:1" fill="#454546" d="M 214.5,25.5 C 215.586,25.62 216.253,26.2867 216.5,27.5C 216.167,28.1667 215.833,28.8333 215.5,29.5C 214.571,28.3112 214.238,26.9778 214.5,25.5 Z"/></g>
<g><path style="opacity:1" fill="#58595a" d="M 38.5,23.5 C 40.6477,23.3894 40.981,24.056 39.5,25.5C 40,25.8333 40.5,26.1667 41,26.5C 42.098,25.6161 42.598,24.6161 42.5,23.5C 43.7946,24.0983 45.1279,24.5983 46.5,25C 44.7295,25.5354 44.3961,26.3687 45.5,27.5C 47.1331,25.497 49.1331,24.1637 51.5,23.5C 51.3573,25.2624 51.6906,26.9291 52.5,28.5C 52.1924,29.3081 51.6924,29.9747 51,30.5C 48.6667,29.8333 46.3333,29.1667 44,28.5C 42.8668,30.2112 41.3668,30.7112 39.5,30C 39.0321,28.178 38.6988,26.0113 38.5,23.5 Z"/></g>
<g><path style="opacity:1" fill="#191a1a" d="M 211.5,27.5 C 213.337,27.6395 213.67,28.3061 212.5,29.5C 211.702,29.0431 211.369,28.3764 211.5,27.5 Z"/></g>
<g><path style="opacity:1" fill="#bcbdbe" d="M 241.5,22.5 C 246.179,22.3342 250.845,22.5008 255.5,23C 257.994,25.2436 257.994,27.5769 255.5,30C 250.833,30.6667 246.167,30.6667 241.5,30C 240.221,27.5024 240.221,25.0024 241.5,22.5 Z"/></g>
<g><path style="opacity:1" fill="#0f0f0f" d="M 242.5,23.5 C 246.5,23.5 250.5,23.5 254.5,23.5C 254.5,25.1667 254.5,26.8333 254.5,28.5C 250.5,28.5 246.5,28.5 242.5,28.5C 242.5,26.8333 242.5,25.1667 242.5,23.5 Z"/></g>
<g><path style="opacity:1" fill="#b8b2ab" d="M 4.5,30.5 C 5.40397,31.209 5.73731,32.209 5.5,33.5C 4.9101,34.766 4.4101,36.0993 4,37.5C 3.83145,45.1883 3.33145,52.8549 2.5,60.5C 1.83308,56.0178 1.16641,51.6845 0.5,47.5C 1.13682,42.4613 2.13682,37.4613 3.5,32.5C 2.01897,31.056 2.35231,30.3894 4.5,30.5 Z"/></g>
<g><path style="opacity:1" fill="#fbfcfc" d="M 25.5,58.5 C 102.501,58.3333 179.501,58.5 256.5,59C 257.333,59.8333 258.167,60.6667 259,61.5C 259.667,72.5 259.667,83.5 259,94.5C 258.535,95.9308 257.701,97.0975 256.5,98C 179.5,98.6667 102.5,98.6667 25.5,98C 25,97.5 24.5,97 24,96.5C 23.3333,84.5 23.3333,72.5 24,60.5C 24.7172,59.9558 25.2172,59.2891 25.5,58.5 Z"/></g>
<g><path style="opacity:1" fill="#cffc73" d="M 58.5,61.5 C 65.175,61.3337 71.8417,61.5004 78.5,62C 79.3333,62.8333 80.1667,63.6667 81,64.5C 81.6667,73.8333 81.6667,83.1667 81,92.5C 80.5,93 80,93.5 79.5,94C 72.9427,95.5863 66.276,95.9196 59.5,95C 58.5838,94.6258 57.7504,94.1258 57,93.5C 56.3333,83.5 56.3333,73.5 57,63.5C 57.7172,62.9558 58.2172,62.2891 58.5,61.5 Z"/></g>
<g><path style="opacity:1" fill="#f3f1ed" d="M 5.5,33.5 C 6.43448,34.5676 6.76781,35.901 6.5,37.5C 5.50939,158.149 5.17605,278.816 5.5,399.5C 4.5,399.5 3.5,399.5 2.5,399.5C 2.66667,288.166 2.5,176.833 2,65.5C 1.72158,64.5842 1.22158,63.9175 0.5,63.5C 0.5,58.1667 0.5,52.8333 0.5,47.5C 1.16641,51.6845 1.83308,56.0178 2.5,60.5C 3.33145,52.8549 3.83145,45.1883 4,37.5C 4.4101,36.0993 4.9101,34.766 5.5,33.5 Z"/></g>
<g><path style="opacity:1" fill="#9da2ae" d="M 156.5,67.5 C 160.926,67.8594 161.593,69.6927 158.5,73C 159.167,73.3333 159.833,73.6667 160.5,74C 158.833,74.6667 157.167,74.6667 155.5,74C 159.413,71.0243 159.413,69.3576 155.5,69C 156.056,68.6174 156.389,68.1174 156.5,67.5 Z"/></g>
<g><path style="opacity:1" fill="#9ca1ad" d="M 243.5,67.5 C 246.598,67.4125 246.932,67.9125 244.5,69C 246.677,70.1861 247.677,72.0194 247.5,74.5C 242.959,74.6691 242.626,74.0025 246.5,72.5C 245.311,71.5713 243.978,71.238 242.5,71.5C 242.433,70.0413 242.766,68.7079 243.5,67.5 Z"/></g>
<g><path style="opacity:1" fill="#707688" d="M 124.5,67.5 C 125.629,69.6282 125.796,71.9615 125,74.5C 124.749,72.567 124.249,70.7337 123.5,69C 124.056,68.6174 124.389,68.1174 124.5,67.5 Z"/></g>
<g><path style="opacity:1" fill="#5b6e38" d="M 64.5,67.5 C 66.0443,67.7031 67.3777,68.3698 68.5,69.5C 72.7816,66.9219 74.615,68.2552 74,73.5C 72.6439,74.3802 71.1439,74.7135 69.5,74.5C 69.5489,69.4612 68.8823,69.2945 67.5,74C 66.2068,74.49 64.8734,74.6567 63.5,74.5C 63.298,72.0504 63.6314,69.717 64.5,67.5 Z"/></g>
<g><path style="opacity:1" fill="#cefd70" d="M 64.5,69.5 C 65.5862,69.62 66.2528,70.2867 66.5,71.5C 66.1667,72.1667 65.8333,72.8333 65.5,73.5C 64.5713,72.3112 64.238,70.9778 64.5,69.5 Z"/></g>
<g><path style="opacity:1" fill="#898f9d" d="M 94.5,67.5 C 95.6291,69.6282 95.7958,71.9615 95,74.5C 94.7489,72.567 94.2489,70.7337 93.5,69C 94.056,68.6174 94.3893,68.1174 94.5,67.5 Z"/></g>
<g><path style="opacity:1" fill="#b2b5bf" d="M 35.5,67.5 C 38.1878,68.0241 39.6878,69.6908 40,72.5C 39.734,69.0992 41.234,67.4326 44.5,67.5C 44.3573,69.2624 44.6906,70.9291 45.5,72.5C 45.0004,73.8805 44.0004,74.5472 42.5,74.5C 39.8978,73.9455 37.2311,73.7788 34.5,74C 33.1443,71.5859 33.4776,69.4193 35.5,67.5 Z"/></g>
<g><path style="opacity:1" fill="#bfea68" d="M 70.5,69.5 C 72.337,69.6395 72.6704,70.3061 71.5,71.5C 70.7025,71.0431 70.3691,70.3764 70.5,69.5 Z"/></g>
<g><path style="opacity:1" fill="#bfc2ca" d="M 98.5,67.5 C 101.243,67.0772 102.576,68.2439 102.5,71C 100.619,76.7897 98.9521,76.7897 97.5,71C 97.6483,69.7441 97.9816,68.5774 98.5,67.5 Z"/></g>
<g><path style="opacity:1" fill="#7e8494" d="M 216.5,67.5 C 217.224,69.2184 217.891,71.0517 218.5,73C 216.955,74.3687 215.289,74.202 213.5,72.5C 214.616,72.598 215.616,72.098 216.5,71C 215.342,69.7393 215.342,68.5726 216.5,67.5 Z"/></g>
<g><path style="opacity:1" fill="#979ca9" d="M 185.5,67.5 C 186.822,67.33 187.989,67.6634 189,68.5C 188.577,70.3867 188.744,72.3867 189.5,74.5C 187.712,74.7852 186.045,74.4519 184.5,73.5C 185.582,73.2514 186.915,73.0848 188.5,73C 187.833,72.3333 187.167,71.6667 186.5,71C 187.451,70.2825 187.617,69.4491 187,68.5C 184.821,69.8398 184.321,69.5065 185.5,67.5 Z"/></g>
<g><path style="opacity:1" fill="#c4c8cf" d="M 35.5,83.5 C 37.7453,83.5412 38.4119,84.3745 37.5,86C 38,86.5 38.5,87 39,87.5C 39.4186,86.3279 40.0853,85.3279 41,84.5C 41.7412,85.6405 42.5745,85.6405 43.5,84.5C 44.6309,86.0745 44.7975,87.7412 44,89.5C 41.3635,89.4549 38.5302,89.2882 35.5,89C 36.1667,88.6667 36.8333,88.3333 37.5,88C 34.9849,87.0611 34.3183,85.5611 35.5,83.5 Z"/></g>
<g><path style="opacity:1" fill="#c5c9d0" d="M 148.5,83.5 C 149.741,85.9312 150.908,85.9312 152,83.5C 152.691,85.8912 153.691,85.8912 155,83.5C 156.137,84.364 157.47,85.364 159,86.5C 162.218,82.8067 163.384,83.8067 162.5,89.5C 160.523,88.8505 158.69,88.8505 157,89.5C 154.849,89.2351 153.182,88.2351 152,86.5C 151.581,87.6721 150.915,88.6721 150,89.5C 149.187,87.5643 148.687,85.5643 148.5,83.5 Z"/></g>
<g><path style="opacity:1" fill="#7b9647" d="M 63.5,83.5 C 66.4059,83.9026 68.2393,85.5693 69,88.5C 69.4828,87.552 69.6495,86.552 69.5,85.5C 71.1667,85.5 72.8333,85.5 74.5,85.5C 74.5432,89.8926 74.0432,90.2259 73,86.5C 72.6667,87.5 72.3333,88.5 72,89.5C 69.7237,89.3157 67.3904,89.3157 65,89.5C 63.2382,89.0556 63.4049,88.5556 65.5,88C 62.9849,87.0611 62.3183,85.5611 63.5,83.5 Z"/></g>
<g><path style="opacity:1" fill="#fdfdfd" d="M 29.5,109.5 C 104.87,109.015 180.203,109.515 255.5,111C 257.886,112.887 259.053,115.387 259,118.5C 259.667,170.833 259.667,223.167 259,275.5C 258.167,278.333 256.333,280.167 253.5,281C 177.752,281.994 102.085,281.66 26.5,280C 25.6667,279.167 24.8333,278.333 24,277.5C 23.3333,223.167 23.3333,168.833 24,114.5C 25.4055,112.256 27.2389,110.59 29.5,109.5 Z"/></g>
<g><path style="opacity:1" fill="#7c7d88" d="M 46.5,120.5 C 47.7479,121.334 48.4146,122.667 48.5,124.5C 48.1667,125.833 47.8333,127.167 47.5,128.5C 46.52,125.914 46.1866,123.247 46.5,120.5 Z"/></g>
<g><path style="opacity:1" fill="#575867" d="M 34.5,120.5 C 36.6648,120.116 38.3315,120.783 39.5,122.5C 38.2438,121.97 36.7438,121.97 35,122.5C 34.2797,124.112 34.4464,125.612 35.5,127C 37.1783,126.888 38.845,126.388 40.5,125.5C 41.91,125.868 42.91,126.701 43.5,128C 42.0039,128.507 40.8373,128.007 40,126.5C 38.5341,128.325 36.7008,128.825 34.5,128C 33.2215,125.502 33.2215,123.002 34.5,120.5 Z"/></g>
<g><path style="opacity:1" fill="#4b4d5c" d="M 41.5,122.5 C 42.8333,122.5 44.1667,122.5 45.5,122.5C 45.6369,129.626 44.9702,129.959 43.5,123.5C 42.056,124.981 41.3894,124.648 41.5,122.5 Z"/></g>
<g><path style="opacity:1" fill="#565766" d="M 50.5,122.5 C 54.35,122.701 55.35,124.534 53.5,128C 49.5369,128.118 48.5369,126.284 50.5,122.5 Z"/></g>
<g><path style="opacity:1" fill="#4c4d5d" d="M 55.5,122.5 C 56.552,122.351 57.552,122.517 58.5,123C 56.9963,124.491 56.1629,126.324 56,128.5C 55.5045,126.527 55.3379,124.527 55.5,122.5 Z"/></g>
<g><path style="opacity:1" fill="#ececee" d="M 51.5,123.5 C 53.8519,124.543 54.0185,125.876 52,127.5C 50.2317,126.318 50.0651,124.985 51.5,123.5 Z"/></g>
<g><path style="opacity:1" fill="#8d8e98" d="M 62.5,122.5 C 64.3904,122.297 65.8904,122.963 67,124.5C 68.6884,122.152 70.5217,121.985 72.5,124C 68.6238,123.651 68.6238,124.484 72.5,126.5C 72.0004,127.881 71.0004,128.547 69.5,128.5C 67.2997,128.096 64.9664,127.93 62.5,128C 61.2475,126.172 61.2475,124.339 62.5,122.5 Z"/></g>
<g><path style="opacity:1" fill="#b3b6c0" d="M 106.5,136.5 C 107.931,136.881 108.764,137.881 109,139.5C 115.224,139.127 121.391,138.793 127.5,138.5C 127.884,140.665 127.217,142.332 125.5,143.5C 122.555,143.763 119.555,143.43 116.5,142.5C 116.167,138.5 115.833,138.5 115.5,142.5C 111.268,142.393 106.935,142.726 102.5,143.5C 102.5,141.833 102.5,140.167 102.5,138.5C 104.483,138.843 105.817,138.176 106.5,136.5 Z"/></g>
<g><path style="opacity:1" fill="#999eaa" d="M 63.5,139.5 C 63.4142,140.496 63.7476,141.329 64.5,142C 63.2559,142.456 62.4226,141.956 62,140.5C 61.5,141.5 61,142.5 60.5,143.5C 59.9984,144.521 59.3317,144.688 58.5,144C 58.9615,142.278 59.1282,140.445 59,138.5C 59.6914,140.891 60.6914,140.891 62,138.5C 62.3826,139.056 62.8826,139.389 63.5,139.5 Z"/></g>
<g><path style="opacity:1" fill="#a0a4b0" d="M 63.5,139.5 C 64.9794,138.852 66.4794,138.519 68,138.5C 69,142.5 70,142.5 71,138.5C 71.4935,140.134 71.6602,141.801 71.5,143.5C 69.6096,143.703 68.1096,143.037 67,141.5C 66.6667,141.833 66.3333,142.167 66,142.5C 65.7645,140.881 64.9311,139.881 63.5,139.5 Z"/></g>
<g><path style="opacity:1" fill="#b6b9c2" d="M 34.5,136.5 C 36.9115,136.137 38.4115,137.137 39,139.5C 40.8886,138.903 42.7219,138.569 44.5,138.5C 45.7376,142.311 46.4042,142.311 46.5,138.5C 48.5,138.5 50.5,138.5 52.5,138.5C 52.6691,143.041 52.0025,143.374 50.5,139.5C 49.6867,141.648 48.1867,142.981 46,143.5C 42.724,143.224 39.3906,143.224 36,143.5C 32.0647,141.867 31.5647,139.534 34.5,136.5 Z"/></g>
<g><path style="opacity:1" fill="#babdc5" d="M 80.5,136.5 C 83.307,139.015 86.1404,139.015 89,136.5C 91.3453,137.508 92.3453,139.175 92,141.5C 91.6667,140.833 91.3333,140.167 91,139.5C 90.6824,141.061 89.8491,142.228 88.5,143C 85.1667,143.667 81.8333,143.667 78.5,143C 77.9781,142.439 77.6448,141.772 77.5,141C 78.5549,139.493 79.5549,137.993 80.5,136.5 Z"/></g>
<g><path style="opacity:0.125" fill="#d8d6d2" d="M 281.5,37.5 C 282.317,39.9686 282.817,42.6353 283,45.5C 283.167,95.0017 283.667,144.335 284.5,193.5C 284.5,215.167 284.5,236.833 284.5,258.5C 283.501,305.33 283.168,352.33 283.5,399.5C 283.167,399.5 282.833,399.5 282.5,399.5C 282.5,288.167 282.5,176.833 282.5,65.5C 282.5,63.8333 282.5,62.1667 282.5,60.5C 282.222,52.8304 281.889,45.1637 281.5,37.5 Z"/></g>
<g><path style="opacity:1" fill="#f5f5f4" d="M 58.5,175.5 C 59.2436,172.05 57.9103,170.384 54.5,170.5C 69.0047,157.505 86.0047,152.672 105.5,156C 141.555,165.577 158.389,189.077 156,226.5C 153.162,244.207 144.329,257.874 129.5,267.5C 127.431,267.215 126.098,266.048 125.5,264C 131.338,257.825 136.838,251.325 142,244.5C 152.916,223.336 151.583,203.003 138,183.5C 119.941,163.193 98.1074,157.693 72.5,167C 67.639,169.593 62.9724,172.427 58.5,175.5 Z"/></g>
<g><path style="opacity:1" fill="#cbdbf5" d="M 182.5,159.5 C 188.629,158.555 192.296,161.055 193.5,167C 192.481,173.345 188.815,175.678 182.5,174C 179.402,172.732 177.735,170.399 177.5,167C 178.317,163.847 179.983,161.347 182.5,159.5 Z"/></g>
<g><path style="opacity:1" fill="#9f9fa8" d="M 199.5,159.5 C 203.43,160.437 203.43,161.437 199.5,162.5C 199.808,163.308 200.308,163.975 201,164.5C 203.656,162.393 206.656,161.059 210,160.5C 211,161.167 212,161.833 213,162.5C 214.011,161.663 215.178,161.33 216.5,161.5C 216.67,162.822 216.337,163.989 215.5,165C 213.613,164.577 211.613,164.744 209.5,165.5C 209.167,161.5 208.833,161.5 208.5,165.5C 205.328,165.072 202.328,164.905 199.5,165C 198.248,163.172 198.248,161.339 199.5,159.5 Z"/></g>
<g><path style="opacity:1" fill="#d2ff77" d="M 54.5,170.5 C 57.9103,170.384 59.2436,172.05 58.5,175.5C 38.5792,196.262 35.0792,219.595 48,245.5C 52.6952,252.02 57.8618,258.02 63.5,263.5C 62.8568,266.975 60.8568,268.141 57.5,267C 31.4627,244.109 25.9627,216.943 41,185.5C 44.6827,179.656 49.1827,174.656 54.5,170.5 Z"/></g>
<g><path style="opacity:1" fill="#acadb4" d="M 203.5,168.5 C 204.675,168.281 205.675,168.614 206.5,169.5C 205.167,170.5 205.167,171.5 206.5,172.5C 206.167,173.5 205.5,174.167 204.5,174.5C 202.865,173.67 201.198,173.503 199.5,174C 198.62,172.644 198.286,171.144 198.5,169.5C 200.415,169.784 202.081,169.451 203.5,168.5 Z"/></g>
<g><path style="opacity:1" fill="#f9fef1" d="M 88.5,165.5 C 116.965,165.155 135.798,178.488 145,205.5C 148.693,234.089 137.526,254.255 111.5,266C 83.6166,272.968 62.4499,264.135 48,239.5C 36.7528,207.892 45.9195,184.392 75.5,169C 79.9738,167.88 84.3071,166.714 88.5,165.5 Z"/></g>
<g><path style="opacity:1" fill="#fefefd" d="M 85.5,171.5 C 104.672,169.178 120.172,175.512 132,190.5C 141.618,207.603 141.951,224.937 133,242.5C 119.344,260.608 101.511,266.775 79.5,261C 55.6199,250.077 45.7866,231.577 50,205.5C 55.7266,187.732 67.5599,176.398 85.5,171.5 Z"/></g>
<g><path style="opacity:1" fill="#c7cad1" d="M 220.5,168.5 C 222.558,169.933 224.892,170.6 227.5,170.5C 227.99,172.948 227.157,174.615 225,175.5C 221.825,173.943 218.658,173.276 215.5,173.5C 215.977,172.522 216.643,171.689 217.5,171C 215.068,169.913 215.402,169.413 218.5,169.5C 218.351,170.552 218.517,171.552 219,172.5C 219.41,171.099 219.91,169.766 220.5,168.5 Z"/></g>
<g><path style="opacity:1" fill="#5f95e4" d="M 178.5,180.5 C 190.851,180.168 203.185,180.501 215.5,181.5C 209.333,181.833 203.167,182.167 197,182.5C 190.462,182.496 184.295,181.83 178.5,180.5 Z"/></g>
<g><path style="opacity:1" fill="#fde6cc" d="M 183.5,196.5 C 192.07,197.316 194.737,201.649 191.5,209.5C 184.73,214.125 180.064,212.458 177.5,204.5C 178.401,200.942 180.401,198.275 183.5,196.5 Z"/></g>
<g><path style="opacity:1" fill="#83848e" d="M 204.5,199.5 C 203.732,200.263 203.232,201.263 203,202.5C 202,201.167 201,199.833 200,198.5C 198.992,203.541 198.492,203.208 198.5,197.5C 200.786,197.595 202.786,198.262 204.5,199.5 Z"/></g>
<g><path style="opacity:1" fill="#a2a2aa" d="M 213.5,197.5 C 215.117,198.038 216.784,198.371 218.5,198.5C 218.543,202.893 218.043,203.226 217,199.5C 216.517,200.448 216.351,201.448 216.5,202.5C 213.833,202.5 211.167,202.5 208.5,202.5C 208.5,201.167 208.5,199.833 208.5,198.5C 210.415,198.784 212.081,198.451 213.5,197.5 Z"/></g>
<g><path style="opacity:1" fill="#f9a03c" d="M 92.5,200.5 C 94.8897,201.512 96.5563,203.179 97.5,205.5C 96.8754,208.986 95.0421,209.986 92,208.5C 91.3985,205.779 91.5651,203.113 92.5,200.5 Z"/></g>
<g><path style="opacity:1" fill="#fbbd77" d="M 186.5,201.5 C 187.756,201.461 188.756,201.961 189.5,203C 188.098,204.82 186.765,206.654 185.5,208.5C 180.373,205.582 180.706,203.249 186.5,201.5 Z"/></g>
<g><path style="opacity:1" fill="#8b8c96" d="M 204.5,199.5 C 206.879,198.433 207.879,199.433 207.5,202.5C 206.5,202.5 205.5,202.5 204.5,202.5C 204.5,201.5 204.5,200.5 204.5,199.5 Z"/></g>
<g><path style="opacity:1" fill="#908676" d="M 282.5,65.5 C 282.5,176.833 282.5,288.167 282.5,399.5C 281.833,399.5 281.167,399.5 280.5,399.5C 279.835,287.828 280.502,176.495 282.5,65.5 Z"/></g>
<g><path style="opacity:1" fill="#a9aab1" d="M 200.5,206.5 C 202.153,207.605 203.82,207.771 205.5,207C 206.051,208.398 206.384,209.732 206.5,211C 203.534,211.895 200.867,211.395 198.5,209.5C 199.193,208.482 199.859,207.482 200.5,206.5 Z"/></g>
<g><path style="opacity:1" fill="#595a68" d="M 91.5,214.5 C 93.5273,214.338 95.5273,214.505 97.5,215C 92.203,216.134 92.203,216.968 97.5,217.5C 97.8508,222.978 95.8508,224.312 91.5,221.5C 92.3914,220.41 93.3914,220.41 94.5,221.5C 95.8333,220.5 95.8333,219.5 94.5,218.5C 93.8333,218.833 93.1667,219.167 92.5,219.5C 91.5481,217.955 91.2148,216.288 91.5,214.5 Z"/></g>
<g><path style="opacity:1" fill="#525362" d="M 100.5,214.5 C 102.429,214.231 104.095,214.731 105.5,216C 99.5,215.99 99.3334,216.823 105,218.5C 105.49,219.793 105.657,221.127 105.5,222.5C 98.6886,222.867 97.0219,220.2 100.5,214.5 Z"/></g>
<g><path style="opacity:1" fill="#efeff0" d="M 101.5,218.5 C 103.465,218.948 103.798,219.948 102.5,221.5C 100.481,220.867 100.147,219.867 101.5,218.5 Z"/></g>
<g><path style="opacity:1" fill="#fbb465" d="M 178.5,219.5 C 195.671,218.173 213.005,218.173 230.5,219.5C 213.103,220.818 195.769,220.818 178.5,219.5 Z"/></g>
<g><path style="opacity:1" fill="#545664" d="M 84.5,214.5 C 86.288,214.215 87.9547,214.548 89.5,215.5C 88.3131,215.554 86.9798,215.887 85.5,216.5C 90.5203,217.089 91.5203,219.256 88.5,223C 86.6332,223.711 85.1332,223.211 84,221.5C 83.2967,219.071 83.4634,216.738 84.5,214.5 Z"/></g>
<g><path style="opacity:1" fill="#e9e9ec" d="M 85.5,218.5 C 89.31,219.754 89.31,220.754 85.5,221.5C 85.5,220.5 85.5,219.5 85.5,218.5 Z"/></g>
<g><path style="opacity:1" fill="#bfc2ca" d="M 84.5,228.5 C 85.1515,229.091 85.8182,229.757 86.5,230.5C 88.4236,230.894 90.257,230.227 92,228.5C 92.6667,229.833 93.6667,230.833 95,231.5C 97.305,230.061 99.1384,230.561 100.5,233C 99.9747,233.692 99.3081,234.192 98.5,234.5C 96.3448,234.162 94.0115,234.162 91.5,234.5C 91.6713,231.203 91.0046,230.869 89.5,233.5C 88.8333,232.833 88.1667,232.167 87.5,231.5C 84.9647,233.872 82.2981,234.372 79.5,233C 81.5756,231.801 83.2423,230.301 84.5,228.5 Z"/></g>
<g><path style="opacity:1" fill="#caccd2" d="M 101.5,228.5 C 102.161,229.718 102.828,231.051 103.5,232.5C 106.003,232.188 108.169,230.855 110,228.5C 110.495,230.473 110.662,232.473 110.5,234.5C 107.813,234.664 105.146,234.497 102.5,234C 101.594,232.301 101.261,230.467 101.5,228.5 Z"/></g>
<g><path style="opacity:1" fill="#9b9ca4" d="M 199.5,234.5 C 202.718,234.651 203.051,235.484 200.5,237C 201.167,237.333 201.833,237.667 202.5,238C 201.354,238.645 200.354,239.478 199.5,240.5C 198.306,238.484 198.306,236.484 199.5,234.5 Z"/></g>
<g><path style="opacity:1" fill="#d8f1d2" d="M 182.5,235.5 C 188.629,234.555 192.296,237.055 193.5,243C 191.37,250.479 186.87,252.312 180,248.5C 176.582,243.339 177.416,239.006 182.5,235.5 Z"/></g>
<g><path style="opacity:1" fill="#747581" d="M 207.5,235.5 C 209.441,236.638 209.608,238.304 208,240.5C 207.667,239.5 207.333,238.5 207,237.5C 206.612,239.715 205.612,241.048 204,241.5C 202.272,239.806 202.772,238.639 205.5,238C 204.833,237.667 204.167,237.333 203.5,237C 205.058,236.79 206.391,236.29 207.5,235.5 Z"/></g>
<g><path style="opacity:1" fill="#a5e096" d="M 182.5,241.5 C 184.288,240.378 186.288,240.211 188.5,241C 184.551,241.807 184.551,242.307 188.5,242.5C 188.5,243.5 188.5,244.5 188.5,245.5C 186.801,245.66 185.134,245.494 183.5,245C 185.878,244.026 185.544,243.359 182.5,243C 183.738,242.31 183.738,241.81 182.5,241.5 Z"/></g>
<g><path style="opacity:1" fill="#bdc0c8" d="M 220.5,244.5 C 222.411,244.574 223.578,245.574 224,247.5C 225.356,246.62 226.856,246.286 228.5,246.5C 229.411,251.956 227.745,253.289 223.5,250.5C 221.694,251.859 220.194,251.525 219,249.5C 218.586,249.957 218.086,250.291 217.5,250.5C 216.042,248.862 215.708,247.195 216.5,245.5C 218.011,249.114 219.345,248.78 220.5,244.5 Z"/></g>
<g><path style="opacity:1" fill="#9e9ea7" d="M 199.5,244.5 C 201.017,244.511 202.184,245.177 203,246.5C 203.837,244.993 205.004,244.493 206.5,245C 207.576,246.726 207.743,248.559 207,250.5C 204.258,249.48 201.424,249.48 198.5,250.5C 199.313,249.186 200.313,248.019 201.5,247C 199.065,246.925 198.398,246.092 199.5,244.5 Z"/></g>
<g><path style="opacity:1" fill="#43c026" d="M 178.5,257.5 C 189.52,257.168 200.52,257.501 211.5,258.5C 206,258.833 200.5,259.167 195,259.5C 189.124,259.495 183.624,258.829 178.5,257.5 Z"/></g>
<g><path style="opacity:0.086" fill="#cbc7c2" d="M 0.5,63.5 C 1.22158,63.9175 1.72158,64.5842 2,65.5C 2.5,176.833 2.66667,288.166 2.5,399.5C 1.83333,399.5 1.16667,399.5 0.5,399.5C 0.832078,354.33 0.498745,309.33 -0.5,264.5C -0.5,248.167 -0.5,231.833 -0.5,215.5C 0.833333,211.833 0.833333,208.167 -0.5,204.5C -0.5,188.5 -0.5,172.5 -0.5,156.5C 0.833333,149.5 0.833333,142.5 -0.5,135.5C -0.5,127.5 -0.5,119.5 -0.5,111.5C 0.496363,95.6754 0.829697,79.6754 0.5,63.5 Z"/></g>
<g><path style="opacity:1" fill="#fdfefe" d="M 26.5,325.5 C 62.8765,325.173 99.2098,325.507 135.5,326.5C 136.192,327.025 136.692,327.692 137,328.5C 137.167,338.167 137.333,347.833 137.5,357.5C 137.644,367.928 137.144,378.261 136,388.5C 99.5713,389.663 63.0713,389.829 26.5,389C 25.6667,388.167 24.8333,387.333 24,386.5C 23.3333,367.5 23.3333,348.5 24,329.5C 24.6622,328.016 25.4955,326.683 26.5,325.5 Z"/></g>
<g><path style="opacity:1" fill="#fefefe" d="M 149.5,325.5 C 185.502,325.333 221.502,325.5 257.5,326C 258,326.5 258.5,327 259,327.5C 259.667,347.5 259.667,367.5 259,387.5C 258.5,388 258,388.5 257.5,389C 221.167,389.667 184.833,389.667 148.5,389C 148,388.5 147.5,388 147,387.5C 146.333,367.833 146.333,348.167 147,328.5C 147.698,327.309 148.531,326.309 149.5,325.5 Z"/></g>
<g><path style="opacity:1" fill="#92db7d" d="M 86.5,340.5 C 82.8333,339.167 79.1667,339.167 75.5,340.5C 75.6107,339.883 75.944,339.383 76.5,339C 79.5,338.333 82.5,338.333 85.5,339C 86.056,339.383 86.3893,339.883 86.5,340.5 Z"/></g>
<g><path style="opacity:1" fill="#ebfadf" d="M 86.5,340.5 C 88.5,340.5 89.5,341.5 89.5,343.5C 91.2059,349.048 89.8726,353.714 85.5,357.5C 81.0316,360.343 77.0316,359.676 73.5,355.5C 71.9767,352.365 71.31,349.032 71.5,345.5C 71.6696,342.796 73.0029,341.129 75.5,340.5C 79.1667,339.167 82.8333,339.167 86.5,340.5 Z"/></g>
<g><path style="opacity:1" fill="#eefbe2" d="M 199.5,339.5 C 211.853,339.873 215.186,345.54 209.5,356.5C 205.413,360.271 201.08,360.438 196.5,357C 195.177,356.184 194.511,355.017 194.5,353.5C 194.38,351.801 194.046,350.135 193.5,348.5C 194.251,346.004 195.251,343.67 196.5,341.5C 196.973,340.094 197.973,339.427 199.5,339.5 Z"/></g>
<g><path style="opacity:1" fill="#98dc85" d="M 199.5,339.5 C 209.863,337.358 214.363,341.691 213,352.5C 212.502,354.544 211.335,355.878 209.5,356.5C 215.186,345.54 211.853,339.873 199.5,339.5 Z"/></g>
<g><path style="opacity:1" fill="#7dd465" d="M 77.5,345.5 C 78.5,345.5 79.5,345.5 80.5,345.5C 80.8333,349.5 81.1667,349.5 81.5,345.5C 85.0714,345.408 86.2381,347.074 85,350.5C 83.2859,351.925 81.9525,351.592 81,349.5C 80.0475,351.592 78.7141,351.925 77,350.5C 76.3603,348.735 76.5269,347.068 77.5,345.5 Z"/></g>
<g><path style="opacity:1" fill="#96dc7f" d="M 201.5,343.5 C 203.144,343.286 204.644,343.62 206,344.5C 206.667,347.5 206.667,350.5 206,353.5C 204.075,351.027 202.242,351.027 200.5,353.5C 199.035,349.901 199.368,346.568 201.5,343.5 Z"/></g>
<g><path style="opacity:1" fill="#f8feed" d="M 201.5,345.5 C 202.833,345.5 204.167,345.5 205.5,345.5C 205.662,347.527 205.495,349.527 205,351.5C 203.989,350.663 202.822,350.33 201.5,350.5C 201.5,348.833 201.5,347.167 201.5,345.5 Z"/></g>
<g><path style="opacity:1" fill="#9adc87" d="M 196.5,341.5 C 195.251,343.67 194.251,346.004 193.5,348.5C 194.046,350.135 194.38,351.801 194.5,353.5C 191.483,348.938 192.149,344.938 196.5,341.5 Z"/></g>
<g><path style="opacity:1" fill="#93d97f" d="M 71.5,345.5 C 71.31,349.032 71.9767,352.365 73.5,355.5C 72.2101,354.942 71.3768,353.942 71,352.5C 70.2042,349.961 70.3709,347.628 71.5,345.5 Z"/></g>
<g><path style="opacity:1" fill="#93d980" d="M 89.5,343.5 C 91.9598,346.909 92.1265,350.575 90,354.5C 88.871,356.141 87.371,357.141 85.5,357.5C 89.8726,353.714 91.2059,349.048 89.5,343.5 Z"/></g>
<g><path style="opacity:1" fill="#444656" d="M 207.5,367.5 C 211.838,367.622 212.172,367.955 208.5,368.5C 208.662,370.527 208.495,372.527 208,374.5C 207.503,372.19 207.337,369.857 207.5,367.5 Z"/></g>
<g><path style="opacity:1" fill="#6d6e7b" d="M 67.5,370.5 C 66.0337,371.347 65.2004,372.68 65,374.5C 64.4232,369.379 63.4232,369.379 62,374.5C 61.5065,372.866 61.3398,371.199 61.5,369.5C 63.7354,369.205 65.7354,369.539 67.5,370.5 Z"/></g>
<g><path style="opacity:1" fill="#797a85" d="M 82.5,367.5 C 84.045,368.23 84.8784,369.563 85,371.5C 86.3775,366.216 87.7109,366.216 89,371.5C 89.2896,369.956 89.9563,368.623 91,367.5C 90.9755,369.92 90.3088,372.253 89,374.5C 87.9563,373.377 87.2896,372.044 87,370.5C 86.6667,371.5 86.3333,372.5 86,373.5C 85.3333,374.833 84.6667,374.833 84,373.5C 83.4954,371.482 82.9954,369.482 82.5,367.5 Z"/></g>
<g><path style="opacity:1" fill="#82838e" d="M 77.5,370.5 C 76.9675,375.797 76.1342,375.797 75,370.5C 74.7811,371.938 74.2811,373.271 73.5,374.5C 71.9081,372.438 70.0748,372.105 68,373.5C 67.5172,372.552 67.3505,371.552 67.5,370.5C 70.726,370.047 74.0593,370.047 77.5,370.5 Z"/></g>
<g><path style="opacity:1" fill="#5a5c6a" d="M 77.5,370.5 C 78.2376,368.24 79.2376,368.073 80.5,370C 79.1667,371.333 79.1667,372.667 80.5,374C 80.1667,374.167 79.8333,374.333 79.5,374.5C 78.8281,373.051 78.1614,371.718 77.5,370.5 Z"/></g>
<g><path style="opacity:1" fill="#93949d" d="M 96.5,367.5 C 97.8933,368.26 99.3933,368.926 101,369.5C 102.365,369.156 103.532,368.489 104.5,367.5C 105.354,368.522 106.354,369.355 107.5,370C 106.141,371.204 105.141,372.704 104.5,374.5C 102.132,377.014 99.7988,377.014 97.5,374.5C 96.5258,372.257 96.1924,369.924 96.5,367.5 Z"/></g>
<g><path style="opacity:1" fill="#656674" d="M 109.5,368.5 C 110.289,368.783 110.956,369.283 111.5,370C 110.783,371.652 110.45,373.152 110.5,374.5C 109.534,372.604 109.201,370.604 109.5,368.5 Z"/></g>
<g><path style="opacity:1" fill="#696a77" d="M 92.5,369.5 C 93.5,369.5 94.5,369.5 95.5,369.5C 95.5,370.5 95.5,371.5 95.5,372.5C 91.551,372.693 91.551,373.193 95.5,374C 94.2068,374.49 92.8734,374.657 91.5,374.5C 91.366,372.708 91.6993,371.042 92.5,369.5 Z"/></g>
<g><path style="opacity:1" fill="#81828d" d="M 179.5,368.5 C 181.215,369.919 183.048,371.253 185,372.5C 185.483,371.552 185.649,370.552 185.5,369.5C 188.91,369.384 190.244,371.05 189.5,374.5C 186.102,374.82 182.768,374.487 179.5,373.5C 180.582,373.251 181.915,373.085 183.5,373C 182.437,371.812 181.103,371.312 179.5,371.5C 179.5,370.5 179.5,369.5 179.5,368.5 Z"/></g>
<g><path style="opacity:1" fill="#90919b" d="M 203.5,367.5 C 204.468,369.607 204.802,371.941 204.5,374.5C 201.482,374.665 198.482,374.498 195.5,374C 194.874,373.25 194.374,372.416 194,371.5C 191.87,375.389 190.87,375.055 191,370.5C 191.333,371.167 191.667,371.833 192,372.5C 192.419,371.328 193.085,370.328 194,369.5C 195.716,369.411 197.549,369.744 199.5,370.5C 201.483,370.185 202.816,369.185 203.5,367.5 Z"/></g>
<g><path style="opacity:1" fill="#6f717d" d="M 49.5,369.5 C 50.2485,370.531 50.9152,371.698 51.5,373C 53.0846,373.085 54.4179,373.251 55.5,373.5C 51.1614,375.574 49.1614,374.241 49.5,369.5 Z"/></g>
<g><path style="opacity:1" fill="#525462" d="M 56.5,369.5 C 57.8347,374.535 59.0013,374.535 60,369.5C 60.4935,371.134 60.6602,372.801 60.5,374.5C 59.1667,374.5 57.8333,374.5 56.5,374.5C 56.5,372.833 56.5,371.167 56.5,369.5 Z"/></g>
<g><path style="opacity:1" fill="#6c6d79" d="M 212.5,370.5 C 213.794,374.223 214.961,374.223 216,370.5C 216.49,371.793 216.657,373.127 216.5,374.5C 215.167,374.5 213.833,374.5 212.5,374.5C 212.5,373.167 212.5,371.833 212.5,370.5 Z"/></g>
<g><path style="opacity:1" fill="#8c8d97" d="M 226.5,367.5 C 227.468,369.607 227.802,371.941 227.5,374.5C 224.167,373.167 220.833,373.167 217.5,374.5C 217.09,369.697 218.59,368.697 222,371.5C 223.859,370.421 225.359,369.088 226.5,367.5 Z"/></g>
</svg>
