<?xml version="1.0" encoding="UTF-8"?>
<!DOCTYPE svg PUBLIC "-//W3C//DTD SVG 1.1//EN" "http://www.w3.org/Graphics/SVG/1.1/DTD/svg11.dtd">
<svg xmlns="http://www.w3.org/2000/svg" version="1.1" width="371px" height="362px" style="shape-rendering:geometricPrecision; text-rendering:geometricPrecision; image-rendering:optimizeQuality; fill-rule:evenodd; clip-rule:evenodd" xmlns:xlink="http://www.w3.org/1999/xlink">
<g><path style="opacity:0.961" fill="#c1bcb5" d="M 55.5,-0.5 C 132.167,-0.5 208.833,-0.5 285.5,-0.5C 210.668,0.332956 135.668,0.832956 60.5,1C 52.514,1.37237 45.1806,3.53904 38.5,7.5C 21.728,15.6932 11.728,29.0266 8.5,47.5C 6.6319,57.6989 5.96523,68.0323 6.5,78.5C 5.5,78.5 4.5,78.5 3.5,78.5C 1.61665,60.5 4.78331,43.5 13,27.5C 23.3325,12.2565 37.4991,2.92315 55.5,-0.5 Z"/></g>
<g><path style="opacity:1" fill="#f1eee8" d="M 285.5,-0.5 C 295.5,-0.5 305.5,-0.5 315.5,-0.5C 315.5,-0.166667 315.5,0.166667 315.5,0.5C 314.448,0.350549 313.448,0.517215 312.5,1C 324.443,2.68852 334.776,7.52185 343.5,15.5C 338.613,14.3897 334.279,12.223 330.5,9C 326.289,7.29049 321.956,5.95716 317.5,5C 306.839,4.50016 296.172,4.3335 285.5,4.5C 211.668,3.33446 137.668,3.16779 63.5,4C 55.143,4.17661 47.3097,6.00995 40,9.5C 37.6405,9.67601 37.1405,9.00934 38.5,7.5C 45.1806,3.53904 52.514,1.37237 60.5,1C 135.668,0.832956 210.668,0.332956 285.5,-0.5 Z"/></g>
<g><path style="opacity:1" fill="#e7e3db" d="M 285.5,4.5 C 211.665,4.16743 137.998,4.50076 64.5,5.5C 35.5365,7.4717 17.5365,22.4717 10.5,50.5C 10.6602,48.8008 10.4935,47.1341 10,45.5C 9.72158,46.4158 9.22158,47.0825 8.5,47.5C 11.728,29.0266 21.728,15.6932 38.5,7.5C 37.1405,9.00934 37.6405,9.67601 40,9.5C 47.3097,6.00995 55.143,4.17661 63.5,4C 137.668,3.16779 211.668,3.33446 285.5,4.5 Z"/></g>
<g><path style="opacity:1" fill="#010101" d="M 64.5,5.5 C 146.501,5.33334 228.501,5.5 310.5,6C 338.558,10.5594 355.224,26.726 360.5,54.5C 360.5,144.5 360.5,234.5 360.5,324.5C 357.5,325.833 354.5,325.833 351.5,324.5C 351.667,236.499 351.5,148.499 351,60.5C 347.005,31.1752 330.172,15.6752 300.5,14C 261.333,13.8333 222.167,13.6667 183,13.5C 141.472,13.3532 99.9724,13.8532 58.5,15C 34.6559,20.8471 21.4892,36.0138 19,60.5C 18.5,148.499 18.3333,236.499 18.5,324.5C 15.8333,324.5 13.1667,324.5 10.5,324.5C 10.5,234.833 10.5,145.167 10.5,55.5C 10.5,53.8333 10.5,52.1667 10.5,50.5C 17.5365,22.4717 35.5365,7.4717 64.5,5.5 Z"/></g>
<g><path style="opacity:1" fill="#f0f1f3" d="M 351.5,324.5 C 351.5,330.167 351.5,335.833 351.5,341.5C 351.5,348.167 351.5,354.833 351.5,361.5C 346.833,361.5 342.167,361.5 337.5,361.5C 337.826,352.983 337.493,344.65 336.5,336.5C 336.667,293.499 336.5,250.499 336,207.5C 334.749,204.619 332.583,202.786 329.5,202C 232.444,201.007 135.444,201.34 38.5,203C 36.4476,203.93 34.9476,205.43 34,207.5C 33.5,249.832 33.3333,292.165 33.5,334.5C 32.5067,343.318 32.1734,352.318 32.5,361.5C 27.8333,361.5 23.1667,361.5 18.5,361.5C 18.5,355.5 18.5,349.5 18.5,343.5C 18.5,337.167 18.5,330.833 18.5,324.5C 18.3333,236.499 18.5,148.499 19,60.5C 21.4892,36.0138 34.6559,20.8471 58.5,15C 99.9724,13.8532 141.472,13.3532 183,13.5C 222.167,13.6667 261.333,13.8333 300.5,14C 330.172,15.6752 347.005,31.1752 351,60.5C 351.5,148.499 351.667,236.499 351.5,324.5 Z"/></g>
<g><path style="opacity:1" fill="#c8c4bb" d="M 64.5,5.5 C 137.998,4.50076 211.665,4.16743 285.5,4.5C 296.172,4.3335 306.839,4.50016 317.5,5C 321.956,5.95716 326.289,7.29049 330.5,9C 334.279,12.223 338.613,14.3897 343.5,15.5C 351.404,20.9974 356.57,28.3307 359,37.5C 360.352,40.7201 361.186,44.0534 361.5,47.5C 360.732,46.7375 360.232,45.7375 360,44.5C 360.046,47.8004 360.212,51.1337 360.5,54.5C 355.224,26.726 338.558,10.5594 310.5,6C 228.501,5.5 146.501,5.33334 64.5,5.5 Z"/></g>
<g><path style="opacity:1" fill="#030304" d="M 142.5,23.5 C 170.169,23.3334 197.835,23.5 225.5,24C 236.855,28.542 240.022,36.3753 235,47.5C 232.736,50.4335 229.902,52.6001 226.5,54C 198.5,54.6667 170.5,54.6667 142.5,54C 131.876,48.9284 129.043,41.0951 134,30.5C 136.441,27.5464 139.275,25.2131 142.5,23.5 Z"/></g>
<g><path style="opacity:1" fill="#1b1b1b" d="M 287.5,29.5 C 288.5,29.5 289.5,29.5 290.5,29.5C 290.5,32.5 290.5,35.5 290.5,38.5C 289.5,38.5 288.5,38.5 287.5,38.5C 287.5,35.5 287.5,32.5 287.5,29.5 Z"/></g>
<g><path style="opacity:1" fill="#1e1e1e" d="M 297.5,29.5 C 300.187,29.3359 302.854,29.5026 305.5,30C 306.308,30.3076 306.975,30.8076 307.5,31.5C 304.335,31.5513 301.002,31.718 297.5,32C 296.5,34 295.5,34 294.5,32C 295.571,31.1482 296.571,30.3149 297.5,29.5 Z"/></g>
<g><path style="opacity:1" fill="#c9cacc" d="M 314.5,28.5 C 319.844,28.334 325.177,28.5006 330.5,29C 331.831,30.659 333.165,32.3257 334.5,34C 333.165,35.6743 331.831,37.341 330.5,39C 324.833,39.6667 319.167,39.6667 313.5,39C 311.971,35.25 312.304,31.75 314.5,28.5 Z"/></g>
<g><path style="opacity:1" fill="#121212" d="M 71.5,30.5 C 72.7479,31.3339 73.4146,32.6672 73.5,34.5C 73.4892,36.0451 73.1558,37.3784 72.5,38.5C 72.6633,36.1432 72.4966,33.8098 72,31.5C 69.025,32.5954 68.8583,32.2621 71.5,30.5 Z"/></g>
<g><path style="opacity:1" fill="#787879" d="M 71.5,30.5 C 72.209,29.596 73.209,29.2627 74.5,29.5C 74.8204,32.8984 74.487,36.2317 73.5,39.5C 72.8933,39.3764 72.56,39.0431 72.5,38.5C 73.1558,37.3784 73.4892,36.0451 73.5,34.5C 73.4146,32.6672 72.7479,31.3339 71.5,30.5 Z"/></g>
<g><path style="opacity:1" fill="#292a2a" d="M 52.5,29.5 C 57.9885,29.504 59.8219,32.1707 58,37.5C 55.7435,40.1192 53.5768,40.1192 51.5,37.5C 53.1173,37.3306 54.784,36.9972 56.5,36.5C 51.8013,35.9926 50.4679,33.6593 52.5,29.5 Z"/></g>
<g><path style="opacity:1" fill="#e8e9eb" d="M 53.5,31.5 C 54.5,31.5 55.5,31.5 56.5,31.5C 56.5,32.5 56.5,33.5 56.5,34.5C 55.5,34.5 54.5,34.5 53.5,34.5C 53.5,33.5 53.5,32.5 53.5,31.5 Z"/></g>
<g><path style="opacity:1" fill="#000000" d="M 283.5,31.5 C 284.725,32.1522 285.392,33.3189 285.5,35C 285.167,36.1667 284.833,37.3333 284.5,38.5C 283.526,36.2573 283.192,33.924 283.5,31.5 Z"/></g>
<g><path style="opacity:1" fill="#151515" d="M 314.5,30.5 C 319.511,30.3341 324.511,30.5007 329.5,31C 330.833,33 330.833,35 329.5,37C 324.511,37.4993 319.511,37.6659 314.5,37.5C 314.5,35.1667 314.5,32.8333 314.5,30.5 Z"/></g>
<g><path style="opacity:1" fill="#1d1d1d" d="M 303.5,35.5 C 302.167,34.1667 300.833,34.1667 299.5,35.5C 297.972,35.4827 297.472,34.816 298,33.5C 300.333,32.1667 302.667,32.1667 305,33.5C 305.528,34.816 305.028,35.4827 303.5,35.5 Z"/></g>
<g><path style="opacity:1" fill="#000000" d="M 279.5,33.5 C 280.649,33.7911 281.316,34.6244 281.5,36C 281.167,36.8333 280.833,37.6667 280.5,38.5C 279.548,36.9547 279.215,35.288 279.5,33.5 Z"/></g>
<g><path style="opacity:1" fill="#000000" d="M 275.5,35.5 C 277.465,35.9483 277.798,36.9483 276.5,38.5C 275.614,37.675 275.281,36.675 275.5,35.5 Z"/></g>
<g><path style="opacity:1" fill="#343435" d="M 63.5,34.5 C 63.6317,31.2033 65.2984,29.5367 68.5,29.5C 68.8723,32.6169 68.8723,35.6169 68.5,38.5C 68.1667,38.8333 67.8333,39.1667 67.5,39.5C 65.0353,38.0781 62.3687,37.0781 59.5,36.5C 60.7658,35.6376 62.0992,34.9709 63.5,34.5 Z"/></g>
<g><path style="opacity:1" fill="#9e9fa0" d="M 63.5,34.5 C 64.7899,33.9423 65.6232,32.9423 66,31.5C 66.4935,33.1341 66.6602,34.8008 66.5,36.5C 64.8212,36.7148 63.8212,36.0481 63.5,34.5 Z"/></g>
<g><path style="opacity:1" fill="#6c6d6d" d="M 303.5,35.5 C 302.167,39.5 300.833,39.5 299.5,35.5C 300.833,34.1667 302.167,34.1667 303.5,35.5 Z"/></g>
<g><path style="opacity:0.953" fill="#afa99f" d="M 315.5,0.5 C 349.937,8.33463 366.937,30.0013 366.5,65.5C 366.5,69.8333 366.5,74.1667 366.5,78.5C 365.5,78.5 364.5,78.5 363.5,78.5C 363.666,70.4931 363.5,62.4931 363,54.5C 362.814,51.9644 362.314,49.631 361.5,47.5C 361.186,44.0534 360.352,40.7201 359,37.5C 356.57,28.3307 351.404,20.9974 343.5,15.5C 334.776,7.52185 324.443,2.68852 312.5,1C 313.448,0.517215 314.448,0.350549 315.5,0.5 Z"/></g>
<g><path style="opacity:1" fill="#7d7d81" d="M 34.5,66.5 C 34.1872,70.0419 34.5206,73.3752 35.5,76.5C 35.44,77.0431 35.1067,77.3764 34.5,77.5C 33.1923,73.6853 33.1923,70.0187 34.5,66.5 Z"/></g>
<g><path style="opacity:1" fill="#57575b" d="M 71.5,66.5 C 72.7868,67.8714 73.4535,69.7047 73.5,72C 73.1667,73.8333 72.8333,75.6667 72.5,77.5C 71.5108,73.8927 71.1774,70.226 71.5,66.5 Z"/></g>
<g><path style="opacity:1" fill="#f54c4b" d="M 329.5,76.5 C 328.833,76.5 328.167,76.5 327.5,76.5C 323.778,77.3201 321.445,75.9868 320.5,72.5C 320.5,71.8333 320.5,71.1667 320.5,70.5C 320.511,68.9826 321.177,67.8159 322.5,67C 326.167,66.3333 329.833,66.3333 333.5,67C 338.154,72.514 336.821,75.6807 329.5,76.5 Z"/></g>
<g><path style="opacity:1" fill="#19191d" d="M 95.5,70.5 C 94.5041,70.4142 93.6708,70.7476 93,71.5C 92.6667,73.5 92.3333,75.5 92,77.5C 91.5026,74.854 91.3359,72.1873 91.5,69.5C 93.099,69.2322 94.4324,69.5655 95.5,70.5 Z"/></g>
<g><path style="opacity:1" fill="#323237" d="M 35.5,76.5 C 34.5206,73.3752 34.1872,70.0419 34.5,66.5C 35.4345,67.5676 35.7678,68.901 35.5,70.5C 37.5,70.5 39.5,70.5 41.5,70.5C 41.2148,68.712 41.5481,67.0453 42.5,65.5C 43.8333,69.5 43.8333,73.5 42.5,77.5C 41.5481,75.9547 41.2148,74.288 41.5,72.5C 39.5,72.5 37.5,72.5 35.5,72.5C 35.5,73.8333 35.5,75.1667 35.5,76.5 Z"/></g>
<g><path style="opacity:1" fill="#36373b" d="M 95.5,70.5 C 97.0902,68.576 98.9235,68.2427 101,69.5C 101.219,68.062 101.719,66.7287 102.5,65.5C 103.491,69.4454 103.824,73.4454 103.5,77.5C 97.6665,78.6627 94.9998,76.3294 95.5,70.5 Z"/></g>
<g><path style="opacity:1" fill="#e7e8ea" d="M 98.5,70.5 C 99.5,70.5 100.5,70.5 101.5,70.5C 101.5,72.1667 101.5,73.8333 101.5,75.5C 97.7162,75.4747 96.7162,73.8081 98.5,70.5 Z"/></g>
<g><path style="opacity:1" fill="#2d2d31" d="M 106.5,70.5 C 110.018,67.6176 112.018,68.6176 112.5,73.5C 105.431,73.7433 105.097,74.5766 111.5,76C 107.78,78.4794 105.446,77.4794 104.5,73C 104.639,71.699 105.305,70.8656 106.5,70.5 Z"/></g>
<g><path style="opacity:1" fill="#c8c9cc" d="M 106.5,70.5 C 107.978,70.238 109.311,70.5713 110.5,71.5C 109.833,71.8333 109.167,72.1667 108.5,72.5C 107.287,72.2528 106.62,71.5862 106.5,70.5 Z"/></g>
<g><path style="opacity:1" fill="#fb9f9d" d="M 324.5,68.5 C 326.849,70.0427 329.183,70.876 331.5,71C 330.675,72.6883 329.675,72.8549 328.5,71.5C 327.351,74.4291 325.685,74.9291 323.5,73C 323.47,71.5707 323.803,70.0707 324.5,68.5 Z"/></g>
<g><path style="opacity:1" fill="#2c2c31" d="M 65.5,68.5 C 67.3904,68.2965 68.8904,68.9632 70,70.5C 70.8141,72.9018 70.6474,75.2351 69.5,77.5C 67.7219,77.4307 65.8886,77.0974 64,76.5C 63.3333,75.5 63.3333,74.5 64,73.5C 69.8256,71.4401 69.6589,70.6068 63.5,71C 64.3805,70.2917 65.0472,69.4584 65.5,68.5 Z"/></g>
<g><path style="opacity:1" fill="#2c2d31" d="M 61.5,65.5 C 62.4972,65.4701 63.1639,65.9701 63.5,67C 62.2933,70.823 60.6266,74.323 58.5,77.5C 56.8686,74.3308 55.5352,70.9975 54.5,67.5C 54.8457,66.3044 55.3457,66.3044 56,67.5C 57,69.8333 58,72.1667 59,74.5C 60.1449,71.5682 60.9782,68.5682 61.5,65.5 Z"/></g>
<g><path style="opacity:1" fill="#d8d9dc" d="M 65.5,73.5 C 66.675,73.281 67.675,73.6143 68.5,74.5C 66.9483,75.7979 65.9483,75.4646 65.5,73.5 Z"/></g>
<g><path style="opacity:1" fill="#ededef" d="M 320.5,72.5 C 321.445,75.9868 323.778,77.3201 327.5,76.5C 327.629,78.2161 327.962,79.8828 328.5,81.5C 324.833,82.8333 321.167,82.8333 317.5,81.5C 318.105,78.8733 318.605,76.2066 319,73.5C 319.383,72.944 319.883,72.6107 320.5,72.5 Z"/></g>
<g><path style="opacity:1" fill="#46474b" d="M 75.5,69.5 C 76.8503,70.4831 77.8503,71.8164 78.5,73.5C 79.2432,72.0921 80.0766,70.7588 81,69.5C 81.3949,72.597 80.5615,75.2637 78.5,77.5C 76.3368,75.3527 75.3368,72.686 75.5,69.5 Z"/></g>
<g><path style="opacity:1" fill="#1d1d22" d="M 48.5,75.5 C 49.2389,75.369 49.9056,75.5357 50.5,76C 49.1177,80.7055 48.4511,80.5388 48.5,75.5 Z"/></g>
<g><path style="opacity:1" fill="#36363a" d="M 84.5,68.5 C 88.1716,68.1826 89.8383,69.8493 89.5,73.5C 87.712,73.2148 86.0453,73.5481 84.5,74.5C 86.0064,75.7472 87.5064,75.7472 89,74.5C 89.6172,75.4491 89.4506,76.2825 88.5,77C 84.9049,78.0727 82.9049,76.7394 82.5,73C 82.5186,71.167 83.1852,69.667 84.5,68.5 Z"/></g>
<g><path style="opacity:1" fill="#cfcfd2" d="M 84.5,70.5 C 86.1033,70.3118 87.4366,70.8118 88.5,72C 86.5372,72.8442 85.2039,72.3442 84.5,70.5 Z"/></g>
<g><path style="opacity:1" fill="#1c1a1e" d="M 320.5,70.5 C 320.5,71.1667 320.5,71.8333 320.5,72.5C 319.883,72.6107 319.383,72.944 319,73.5C 318.605,76.2066 318.105,78.8733 317.5,81.5C 316.957,81.56 316.624,81.8933 316.5,82.5C 320.833,83.8333 325.167,83.8333 329.5,82.5C 329.376,81.8933 329.043,81.56 328.5,81.5C 327.962,79.8828 327.629,78.2161 327.5,76.5C 328.167,76.5 328.833,76.5 329.5,76.5C 329.387,79.0488 330.054,81.3821 331.5,83.5C 325.872,84.4954 320.206,84.8288 314.5,84.5C 315.928,81.0536 316.761,77.3869 317,73.5C 318.039,72.2899 319.206,71.2899 320.5,70.5 Z"/></g>
<g><path style="opacity:1" fill="#7d7d81" d="M 317.5,81.5 C 321.167,82.8333 324.833,82.8333 328.5,81.5C 329.043,81.56 329.376,81.8933 329.5,82.5C 325.167,83.8333 320.833,83.8333 316.5,82.5C 316.624,81.8933 316.957,81.56 317.5,81.5 Z"/></g>
<g><path style="opacity:1" fill="#f7f5f1" d="M 10.5,50.5 C 10.5,52.1667 10.5,53.8333 10.5,55.5C 9.50055,157.332 9.16722,259.332 9.5,361.5C 8.5,361.5 7.5,361.5 6.5,361.5C 6.5,269.167 6.5,176.833 6.5,84.5C 5.5,84.5 4.5,84.5 3.5,84.5C 3.5,82.5 3.5,80.5 3.5,78.5C 4.5,78.5 5.5,78.5 6.5,78.5C 5.96523,68.0323 6.6319,57.6989 8.5,47.5C 9.22158,47.0825 9.72158,46.4158 10,45.5C 10.4935,47.1341 10.6602,48.8008 10.5,50.5 Z"/></g>
<g><path style="opacity:1" fill="#c0bbb3" d="M 3.5,84.5 C 4.5,84.5 5.5,84.5 6.5,84.5C 6.5,176.833 6.5,269.167 6.5,361.5C 5.83333,361.5 5.16667,361.5 4.5,361.5C 4.82429,333.759 4.49096,306.093 3.5,278.5C 3.5,273.5 3.5,268.5 3.5,263.5C 4.80955,243.202 4.80955,222.868 3.5,202.5C 2.81654,202.863 2.14987,203.196 1.5,203.5C 2.72721,198.507 3.39388,193.34 3.5,188C 3.03525,153.508 3.03525,119.008 3.5,84.5 Z"/></g>
<g><path style="opacity:1" fill="#9398a6" d="M 117.5,85.5 C 120.076,85.7218 120.91,87.0551 120,89.5C 119.395,87.5188 118.395,87.1854 117,88.5C 116.53,87.4232 116.697,86.4232 117.5,85.5 Z"/></g>
<g><path style="opacity:1" fill="#27272b" d="M 320.5,86.5 C 322.322,87.3249 323.989,87.6582 325.5,87.5C 323.203,90.2896 321.536,89.9563 320.5,86.5 Z"/></g>
<g><path style="opacity:1" fill="#9b9fac" d="M 96.5,86.5 C 97.9678,87.4508 99.6345,88.4508 101.5,89.5C 105.755,86.7227 107.422,88.056 106.5,93.5C 104.326,93.0798 102.326,93.0798 100.5,93.5C 99.0753,88.2702 97.9086,88.2702 97,93.5C 96.5034,91.1902 96.3367,88.8568 96.5,86.5 Z"/></g>
<g><path style="opacity:1" fill="#a9adb8" d="M 64.5,87.5 C 66.0174,87.5106 67.1841,88.1772 68,89.5C 69.6667,86.8333 71.3333,86.8333 73,89.5C 75.1684,87.5455 77.5017,86.8788 80,87.5C 81.4868,89.272 81.8201,91.272 81,93.5C 80,88.1667 79,88.1667 78,93.5C 77.0914,88.2702 75.9247,88.2702 74.5,93.5C 71.3705,93.2685 68.2038,93.2685 65,93.5C 64.1667,93.1667 63.3333,92.8333 62.5,92.5C 63.1744,90.8045 63.8411,89.1379 64.5,87.5 Z"/></g>
<g><path style="opacity:1" fill="#9fa3af" d="M 84.5,87.5 C 85.4959,87.4142 86.3292,87.7476 87,88.5C 87.4935,90.1341 87.6602,91.8008 87.5,93.5C 82.3306,93.4576 81.3306,91.4576 84.5,87.5 Z"/></g>
<g><path style="opacity:1" fill="#a4a8b4" d="M 107.5,87.5 C 109.584,88.2483 111.584,88.2483 113.5,87.5C 115.111,88.3202 115.778,89.6536 115.5,91.5C 112.402,91.4125 112.068,91.9125 114.5,93C 111.617,93.7954 110.117,92.6287 110,89.5C 109.781,90.938 109.281,92.2713 108.5,93.5C 107.534,91.604 107.201,89.604 107.5,87.5 Z"/></g>
<g><path style="opacity:1" fill="#a4a9b4" d="M 35.5,85.5 C 37.3464,85.2222 38.6798,85.8888 39.5,87.5C 38.1524,87.4496 36.6524,87.783 35,88.5C 34.243,91.9143 35.4097,92.9143 38.5,91.5C 38.2907,90.914 37.9574,90.414 37.5,90C 39.7801,89.7674 41.7801,88.934 43.5,87.5C 44.4776,87.9767 45.3109,88.6433 46,89.5C 46.2189,88.062 46.7189,86.7287 47.5,85.5C 50.3616,88.01 53.5283,88.6766 57,87.5C 59.1651,89.6525 59.9984,92.3192 59.5,95.5C 55.4111,95.4505 52.7445,93.4505 51.5,89.5C 50.5713,90.6888 50.238,92.0222 50.5,93.5C 45.2316,93.364 39.8983,93.1973 34.5,93C 33.0825,90.2565 33.4159,87.7565 35.5,85.5 Z"/></g>
<g><path style="opacity:1" fill="#8f94a3" d="M 88.5,88.5 C 89.2679,89.2625 89.7679,90.2625 90,91.5C 90.5823,88.3323 91.5823,87.999 93,90.5C 93.8113,89.0403 94.6446,88.707 95.5,89.5C 95.0234,90.931 94.3567,92.2643 93.5,93.5C 92.8076,92.9747 92.3076,92.3081 92,91.5C 91.3109,92.3567 90.4776,93.0233 89.5,93.5C 88.5481,91.9547 88.2148,90.288 88.5,88.5 Z"/></g>
<g><path style="opacity:1" fill="#373732" d="M 10.5,55.5 C 10.5,145.167 10.5,234.833 10.5,324.5C 10.5,330.833 10.5,337.167 10.5,343.5C 13.1667,343.5 15.8333,343.5 18.5,343.5C 18.5,349.5 18.5,355.5 18.5,361.5C 15.5,361.5 12.5,361.5 9.5,361.5C 9.16722,259.332 9.50055,157.332 10.5,55.5 Z"/></g>
<g><path style="opacity:1" fill="#fefefe" d="M 111.5,117.5 C 110.496,118.683 109.662,120.016 109,121.5C 108.333,128.5 108.333,135.5 109,142.5C 109.847,144.193 110.68,145.86 111.5,147.5C 87.0034,148.663 62.3368,148.83 37.5,148C 36,147.167 34.8333,146 34,144.5C 33.3333,136.5 33.3333,128.5 34,120.5C 34.5,118.667 35.6667,117.5 37.5,117C 62.3368,116.17 87.0034,116.337 111.5,117.5 Z"/></g>
<g><path style="opacity:1" fill="#3a3c4d" d="M 182.5,117.5 C 183.504,118.683 184.338,120.016 185,121.5C 185.667,128.5 185.667,135.5 185,142.5C 184.777,144.881 183.61,146.547 181.5,147.5C 158.167,148.833 134.833,148.833 111.5,147.5C 110.68,145.86 109.847,144.193 109,142.5C 108.333,135.5 108.333,128.5 109,121.5C 109.662,120.016 110.496,118.683 111.5,117.5C 135.167,116.167 158.833,116.167 182.5,117.5 Z"/></g>
<g><path style="opacity:1" fill="#fdfdfe" d="M 181.5,147.5 C 183.61,146.547 184.777,144.881 185,142.5C 185.667,135.5 185.667,128.5 185,121.5C 184.338,120.016 183.504,118.683 182.5,117.5C 232.332,116.335 282.332,116.168 332.5,117C 333.931,117.465 335.097,118.299 336,119.5C 336.667,127.833 336.667,136.167 336,144.5C 335.5,146.333 334.333,147.5 332.5,148C 281.998,148.832 231.665,148.665 181.5,147.5 Z"/></g>
<g><path style="opacity:1" fill="#8c919f" d="M 60.5,127.5 C 66.842,127.139 68.842,129.972 66.5,136C 64.5273,136.495 62.5273,136.662 60.5,136.5C 60.5,133.5 60.5,130.5 60.5,127.5 Z"/></g>
<g><path style="opacity:1" fill="#d0d1d5" d="M 131.5,127.5 C 133.825,128.655 134.992,130.655 135,133.5C 136.619,125.551 138.286,125.551 140,133.5C 140.17,131.285 140.837,129.285 142,127.5C 142.138,130.621 141.471,133.621 140,136.5C 139,134.833 138,133.167 137,131.5C 136.64,133.421 135.806,135.088 134.5,136.5C 133.296,133.556 132.296,130.556 131.5,127.5 Z"/></g>
<g><path style="opacity:1" fill="#b8bbc4" d="M 234.5,127.5 C 234.5,130.5 234.5,133.5 234.5,136.5C 233.167,136.5 231.833,136.5 230.5,136.5C 230.682,134.409 230.348,132.409 229.5,130.5C 231.148,129.709 232.815,128.709 234.5,127.5 Z"/></g>
<g><path style="opacity:1" fill="#f1f2f4" d="M 62.5,128.5 C 66.2635,129.385 67.2635,131.552 65.5,135C 64.552,135.483 63.552,135.649 62.5,135.5C 62.5,133.167 62.5,130.833 62.5,128.5 Z"/></g>
<g><path style="opacity:1" fill="#888993" d="M 144.5,130.5 C 146.128,129.147 147.462,129.481 148.5,131.5C 147.735,131.923 146.902,132.257 146,132.5C 145.035,132.07 144.535,131.404 144.5,130.5 Z"/></g>
<g><path style="opacity:1" fill="#757b8c" d="M 309.5,129.5 C 310.043,129.56 310.376,129.893 310.5,130.5C 309.045,132.22 308.212,134.22 308,136.5C 307.185,133.802 307.685,131.468 309.5,129.5 Z"/></g>
<g><path style="opacity:1" fill="#9ca0ad" d="M 70.5,129.5 C 71.675,129.281 72.675,129.614 73.5,130.5C 74.3482,132.409 74.6816,134.409 74.5,136.5C 72.5328,136.739 70.6995,136.406 69,135.5C 68.7287,133.193 69.8953,132.026 72.5,132C 70.065,131.925 69.3984,131.092 70.5,129.5 Z"/></g>
<g><path style="opacity:1" fill="#757c8d" d="M 234.5,127.5 C 235.268,128.263 235.768,129.263 236,130.5C 237,129.167 238,129.167 239,130.5C 239.667,132.5 239.667,134.5 239,136.5C 238.506,134.866 238.34,133.199 238.5,131.5C 237.5,131.5 236.5,131.5 235.5,131.5C 235.784,133.415 235.451,135.081 234.5,136.5C 234.5,133.5 234.5,130.5 234.5,127.5 Z"/></g>
<g><path style="opacity:1" fill="#7b8091" d="M 287.5,127.5 C 289.335,128.122 290.502,129.456 291,131.5C 291.701,129.238 292.868,128.238 294.5,128.5C 292.52,130.795 291.353,133.461 291,136.5C 290.362,133.236 289.196,130.236 287.5,127.5 Z"/></g>
<g><path style="opacity:1" fill="#717889" d="M 294.5,130.5 C 295.812,130.824 296.645,131.491 297,132.5C 298.011,132.108 298.511,131.441 298.5,130.5C 299.386,131.325 299.719,132.325 299.5,133.5C 297.549,133.227 296.049,133.893 295,135.5C 294.506,133.866 294.34,132.199 294.5,130.5 Z"/></g>
<g><path style="opacity:1" fill="#cccdd1" d="M 151.5,129.5 C 156.57,131.285 156.57,132.951 151.5,134.5C 152.274,135.711 153.107,135.711 154,134.5C 154.432,135.6 153.932,136.267 152.5,136.5C 150.261,136.426 149.261,135.259 149.5,133C 149.862,131.566 150.528,130.399 151.5,129.5 Z"/></g>
<g><path style="opacity:1" fill="#d2d3d7" d="M 156.5,127.5 C 157.302,128.952 157.802,130.618 158,132.5C 158.833,131.5 159.667,130.5 160.5,129.5C 161.594,130.868 161.26,132.035 159.5,133C 161.797,137.268 161.297,137.434 158,133.5C 157.667,134.5 157.333,135.5 157,136.5C 156.502,133.518 156.335,130.518 156.5,127.5 Z"/></g>
<g><path style="opacity:1" fill="#7f8595" d="M 218.5,129.5 C 222.264,130.385 223.264,132.552 221.5,136C 218.433,137.164 216.767,136.164 216.5,133C 216.862,131.566 217.528,130.399 218.5,129.5 Z"/></g>
<g><path style="opacity:1" fill="#f1f1f3" d="M 217.5,131.5 C 218.5,131.5 219.5,131.5 220.5,131.5C 220.762,132.978 220.429,134.311 219.5,135.5C 217.889,134.68 217.222,133.346 217.5,131.5 Z"/></g>
<g><path style="opacity:1" fill="#828797" d="M 223.5,129.5 C 228.213,129.468 229.713,131.801 228,136.5C 227.506,134.866 227.34,133.199 227.5,131.5C 226.5,131.5 225.5,131.5 224.5,131.5C 224.66,133.199 224.494,134.866 224,136.5C 223.503,134.19 223.337,131.857 223.5,129.5 Z"/></g>
<g><path style="opacity:1" fill="#9ba0ac" d="M 302.5,129.5 C 305.987,130.445 307.32,132.778 306.5,136.5C 304.533,136.739 302.699,136.406 301,135.5C 300.729,133.193 301.895,132.026 304.5,132C 302.065,131.925 301.398,131.092 302.5,129.5 Z"/></g>
<g><path style="opacity:1" fill="#878c9b" d="M 75.5,130.5 C 76.9663,131.347 77.7996,132.68 78,134.5C 78.3333,133.5 78.6667,132.5 79,131.5C 79.6543,130.304 80.1543,130.304 80.5,131.5C 79.9049,134.317 78.5716,136.65 76.5,138.5C 76.5959,136.071 76.2626,133.404 75.5,130.5 Z"/></g>
<g><path style="opacity:1" fill="#8e93a1" d="M 206.5,127.5 C 208.619,128.986 210.119,130.986 211,133.5C 211.914,131.336 213.081,129.336 214.5,127.5C 215.833,130.5 215.833,133.5 214.5,136.5C 213.719,135.271 213.219,133.938 213,132.5C 210.913,137.679 209.247,137.345 208,131.5C 207.667,133.167 207.333,134.833 207,136.5C 206.502,133.518 206.335,130.518 206.5,127.5 Z"/></g>
<g><path style="opacity:1" fill="#d6d6d9" d="M 144.5,130.5 C 144.535,131.404 145.035,132.07 146,132.5C 146.902,132.257 147.735,131.923 148.5,131.5C 147.665,132.943 146.332,133.943 144.5,134.5C 145.716,135.096 147.049,135.263 148.5,135C 145.601,137.222 143.601,136.556 142.5,133C 142.639,131.699 143.305,130.866 144.5,130.5 Z"/></g>
<g><path style="opacity:1" fill="#a49c8f" d="M 366.5,85.5 C 366.5,140.167 366.5,194.833 366.5,249.5C 366.5,277.5 366.5,305.5 366.5,333.5C 365.681,336.305 365.181,339.305 365,342.5C 364.833,299.667 364.667,256.833 364.5,214C 364.5,170.828 365.167,127.995 366.5,85.5 Z"/></g>
<g><path style="opacity:1" fill="#b6b0a1" d="M 366.5,85.5 C 365.167,127.995 364.5,170.828 364.5,214C 364.667,256.833 364.833,299.667 365,342.5C 365.181,339.305 365.681,336.305 366.5,333.5C 366.5,342.833 366.5,352.167 366.5,361.5C 365.5,361.5 364.5,361.5 363.5,361.5C 363.5,269.167 363.5,176.833 363.5,84.5C 364.791,84.2627 365.791,84.596 366.5,85.5 Z"/></g>
<g><path style="opacity:1" fill="#545564" d="M 33.5,171.5 C 34.4972,171.47 35.1639,171.97 35.5,173C 36.0779,174.811 36.5779,176.645 37,178.5C 37.3763,175.99 38.2096,173.657 39.5,171.5C 41.0691,172.714 41.9024,174.381 42,176.5C 42.9799,174.941 43.8133,173.274 44.5,171.5C 45.3378,174.533 45.0044,177.533 43.5,180.5C 42.8333,181.833 42.1667,181.833 41.5,180.5C 40.846,178.885 40.346,177.218 40,175.5C 39.1241,177.725 37.9574,179.725 36.5,181.5C 34.6911,178.407 33.6911,175.074 33.5,171.5 Z"/></g>
<g><path style="opacity:1" fill="#535564" d="M 72.5,175.5 C 72.9166,173.355 73.9166,172.688 75.5,173.5C 75.4213,175.929 75.7547,178.429 76.5,181C 75.5509,181.617 74.7175,181.451 74,180.5C 73.8019,178.618 73.3019,176.952 72.5,175.5 Z"/></g>
<g><path style="opacity:1" fill="#4f5160" d="M 81.5,171.5 C 83.5914,171.318 85.5914,171.652 87.5,172.5C 86.998,175.752 86.998,178.752 87.5,181.5C 85.6627,177.723 83.9961,177.723 82.5,181.5C 81.513,178.232 81.1796,174.898 81.5,171.5 Z"/></g>
<g><path style="opacity:1" fill="#494b5b" d="M 119.5,172.5 C 120.922,172.75 121.922,173.583 122.5,175C 121.167,177 121.167,179 122.5,181C 121.552,181.483 120.552,181.649 119.5,181.5C 119.108,178.324 119.108,175.324 119.5,172.5 Z"/></g>
<g><path style="opacity:1" fill="#78c066" d="M 304.5,172.5 C 305.468,174.607 305.802,176.941 305.5,179.5C 298.889,181.047 296.889,178.381 299.5,171.5C 300.48,174.086 300.813,176.753 300.5,179.5C 301.822,179.67 302.989,179.337 304,178.5C 304.495,176.527 304.662,174.527 304.5,172.5 Z"/></g>
<g><path style="opacity:1" fill="#eeeff1" d="M 83.5,173.5 C 84.5,173.5 85.5,173.5 86.5,173.5C 86.5,174.5 86.5,175.5 86.5,176.5C 85.5,176.5 84.5,176.5 83.5,176.5C 83.5,175.5 83.5,174.5 83.5,173.5 Z"/></g>
<g><path style="opacity:1" fill="#4b4c5d" d="M 113.5,174.5 C 114.873,174.343 116.207,174.51 117.5,175C 116.036,176.864 115.036,179.031 114.5,181.5C 113.526,179.257 113.192,176.924 113.5,174.5 Z"/></g>
<g><path style="opacity:1" fill="#bddeb7" d="M 304.5,172.5 C 304.56,171.957 304.893,171.624 305.5,171.5C 306.176,172.602 306.842,173.602 307.5,174.5C 307.5,177.167 307.5,179.833 307.5,182.5C 306.833,181.5 306.167,180.5 305.5,179.5C 305.802,176.941 305.468,174.607 304.5,172.5 Z"/></g>
<g><path style="opacity:1" fill="#8cc87c" d="M 330.5,175.5 C 330.5,176.833 330.5,178.167 330.5,179.5C 329.791,180.404 328.791,180.737 327.5,180.5C 327.784,178.585 327.451,176.919 326.5,175.5C 327.833,171.5 329.167,171.5 330.5,175.5 Z"/></g>
<g><path style="opacity:1" fill="#545564" d="M 61.5,180.5 C 60.4583,181.791 59.2917,181.791 58,180.5C 56.7201,175.079 58.8868,173.079 64.5,174.5C 65.0065,178.007 64.3398,181.174 62.5,184C 60.597,184.774 58.9304,184.44 57.5,183C 59.2556,182.798 60.9223,182.298 62.5,181.5C 62.3764,180.893 62.0431,180.56 61.5,180.5 Z"/></g>
<g><path style="opacity:1" fill="#4f5060" d="M 72.5,175.5 C 71.8333,183.5 71.1667,183.5 70.5,175.5C 69.5,175.5 68.5,175.5 67.5,175.5C 67.7989,177.604 67.4656,179.604 66.5,181.5C 65.1667,178.167 65.1667,174.833 66.5,171.5C 67.3857,172.325 67.719,173.325 67.5,174.5C 69.2915,174.366 70.9582,174.699 72.5,175.5 Z"/></g>
<g><path style="opacity:1" fill="#585a69" d="M 90.5,174.5 C 94.2407,173.599 96.2407,174.932 96.5,178.5C 94.8008,178.34 93.1341,178.506 91.5,179C 92.6492,180.744 93.9825,180.911 95.5,179.5C 96.6956,179.846 96.6956,180.346 95.5,181C 89.7309,182.178 88.0642,180.011 90.5,174.5 Z"/></g>
<g><path style="opacity:1" fill="#70be5e" d="M 330.5,179.5 C 330.5,178.167 330.5,176.833 330.5,175.5C 332.339,174.248 334.172,174.248 336,175.5C 336.688,176.332 336.521,176.998 335.5,177.5C 333.286,175.076 332.286,175.743 332.5,179.5C 335.595,180.559 334.928,180.559 330.5,179.5 Z"/></g>
<g><path style="opacity:1" fill="#545665" d="M 47.5,174.5 C 49.7224,174.178 51.5557,174.845 53,176.5C 53.3076,175.692 53.8076,175.025 54.5,174.5C 55.8333,176.833 55.8333,179.167 54.5,181.5C 53.6143,180.675 53.281,179.675 53.5,178.5C 51.4727,178.338 49.4727,178.505 47.5,179C 48.0253,179.692 48.6919,180.192 49.5,180.5C 50.451,179.674 51.451,179.508 52.5,180C 46.7563,182.387 45.0896,180.554 47.5,174.5 Z"/></g>
<g><path style="opacity:1" fill="#d6d7dc" d="M 61.5,180.5 C 58.0437,179.464 57.7104,177.797 60.5,175.5C 62.7043,176.782 63.0376,178.449 61.5,180.5 Z"/></g>
<g><path style="opacity:1" fill="#6cbb59" d="M 319.5,171.5 C 319.5,174.5 319.5,177.5 319.5,180.5C 315.035,178.75 311.035,179.416 307.5,182.5C 307.5,179.833 307.5,177.167 307.5,174.5C 311.206,175.539 314.873,175.539 318.5,174.5C 318.263,173.209 318.596,172.209 319.5,171.5 Z"/></g>
<g><path style="opacity:1" fill="#eaf0eb" d="M 315.5,175.5 C 316.5,175.5 317.5,175.5 318.5,175.5C 318.778,177.346 318.111,178.68 316.5,179.5C 315.571,178.311 315.238,176.978 315.5,175.5 Z"/></g>
<g><path style="opacity:1" fill="#ebf0ec" d="M 309.5,175.5 C 310.586,175.62 311.253,176.287 311.5,177.5C 310.696,179.957 309.696,179.957 308.5,177.5C 308.863,176.817 309.196,176.15 309.5,175.5 Z"/></g>
<g><path style="opacity:1" fill="#c2e0bc" d="M 319.5,171.5 C 320.167,172.5 320.833,173.5 321.5,174.5C 321.389,176.648 322.056,176.981 323.5,175.5C 324.833,176.833 324.833,178.167 323.5,179.5C 321.463,177.206 320.796,177.539 321.5,180.5C 320.833,180.5 320.167,180.5 319.5,180.5C 319.5,177.5 319.5,174.5 319.5,171.5 Z"/></g>
<g><path style="opacity:1" fill="#4b4d5c" d="M 106.5,174.5 C 112.158,173.679 113.825,175.846 111.5,181C 105.741,182.139 104.074,179.972 106.5,174.5 Z"/></g>
<g><path style="opacity:1" fill="#dfe0e3" d="M 107.5,175.5 C 108.5,175.5 109.5,175.5 110.5,175.5C 110.5,177.167 110.5,178.833 110.5,180.5C 109.5,180.5 108.5,180.5 107.5,180.5C 107.5,178.833 107.5,177.167 107.5,175.5 Z"/></g>
<g><path style="opacity:1" fill="#71be5f" d="M 321.5,174.5 C 323.292,174.366 324.958,174.699 326.5,175.5C 326.5,177.167 326.5,178.833 326.5,180.5C 324.833,180.5 323.167,180.5 321.5,180.5C 320.796,177.539 321.463,177.206 323.5,179.5C 324.833,178.167 324.833,176.833 323.5,175.5C 322.056,176.981 321.389,176.648 321.5,174.5 Z"/></g>
<g><path style="opacity:1" fill="#4e505f" d="M 97.5,174.5 C 103.113,173.079 105.28,175.079 104,180.5C 102.644,181.38 101.144,181.714 99.5,181.5C 99.719,182.675 99.3857,183.675 98.5,184.5C 97.513,181.232 97.1796,177.898 97.5,174.5 Z"/></g>
<g><path style="opacity:1" fill="#dfe1e4" d="M 100.5,175.5 C 102.256,176.552 102.923,178.219 102.5,180.5C 101.5,180.5 100.5,180.5 99.5,180.5C 99.366,178.708 99.6993,177.042 100.5,175.5 Z"/></g>
<g><path style="opacity:1" fill="#fdfdfd" d="M 336.5,336.5 C 336.55,338.59 335.55,339.923 333.5,340.5C 331.368,338.289 329.868,338.955 329,342.5C 327.867,338.812 325.701,337.812 322.5,339.5C 322.5,338.5 322.5,337.5 322.5,336.5C 320.708,336.366 319.042,336.699 317.5,337.5C 315.81,336.897 314.31,335.897 313,334.5C 312.51,335.793 312.343,337.127 312.5,338.5C 311.732,339.263 311.232,340.263 311,341.5C 310.667,339.167 310.333,336.833 310,334.5C 309.667,336.167 309.333,337.833 309,339.5C 308.617,338.944 308.117,338.611 307.5,338.5C 307.299,334.65 305.466,333.65 302,335.5C 298.998,333.015 295.831,332.848 292.5,335C 293.38,336.356 293.714,337.856 293.5,339.5C 292.504,339.414 291.671,339.748 291,340.5C 290.667,339.833 290.333,339.167 290,338.5C 286.552,342.553 284.052,341.887 282.5,336.5C 281.646,337.522 280.646,338.355 279.5,339C 279.833,339.333 280.167,339.667 280.5,340C 279.234,340.309 278.067,340.809 277,341.5C 276.333,338.833 275.667,338.833 275,341.5C 274.25,340.874 273.416,340.374 272.5,340C 274.872,338.529 274.872,337.363 272.5,336.5C 270.971,336.529 269.804,337.196 269,338.5C 268.29,337.027 267.124,336.36 265.5,336.5C 265.906,338.109 265.906,339.443 265.5,340.5C 264.808,339.975 264.308,339.308 264,338.5C 263.692,339.308 263.192,339.975 262.5,340.5C 260.899,339.835 259.399,339.501 258,339.5C 257.667,340.167 257.333,340.833 257,341.5C 256.623,340.058 255.79,339.058 254.5,338.5C 263.264,332.392 272.264,326.725 281.5,321.5C 281.113,320.28 280.28,319.613 279,319.5C 267.519,328.006 255.686,336.172 243.5,344C 238.777,344.624 234.11,344.29 229.5,343C 220.425,341.123 211.592,338.623 203,335.5C 200.37,337.318 197.537,338.652 194.5,339.5C 194.5,338.5 194.5,337.5 194.5,336.5C 192.408,336.561 190.908,337.561 190,339.5C 189.517,338.552 189.351,337.552 189.5,336.5C 186.552,338.22 183.385,339.554 180,340.5C 179.51,339.207 179.343,337.873 179.5,336.5C 175.029,336.672 174.696,337.506 178.5,339C 177.584,339.374 176.75,339.874 176,340.5C 175.333,339.167 174.667,339.167 174,340.5C 173.369,339.128 172.702,337.795 172,336.5C 170.902,337.384 170.402,338.384 170.5,339.5C 169.335,338.509 168.168,337.509 167,336.5C 165.174,337.01 165.007,337.844 166.5,339C 164.535,341.599 163.535,340.766 163.5,336.5C 161.275,337.997 158.775,339.331 156,340.5C 154.992,340.018 153.825,339.852 152.5,340C 153.361,337.679 152.361,336.513 149.5,336.5C 149.649,337.552 149.483,338.552 149,339.5C 148.221,338.272 147.221,337.272 146,336.5C 144.174,337.01 144.007,337.844 145.5,339C 144.167,339.667 142.833,339.667 141.5,339C 142.902,337.658 142.569,336.824 140.5,336.5C 139.833,336.833 139.167,337.167 138.5,337.5C 139.811,338.258 140.311,339.258 140,340.5C 137.433,339.516 134.6,339.183 131.5,339.5C 130.459,341.991 129.626,341.991 129,339.5C 127.417,339.493 125.751,339.826 124,340.5C 122.933,339.809 121.766,339.309 120.5,339C 121.902,337.658 121.569,336.824 119.5,336.5C 116.848,338.582 113.848,339.915 110.5,340.5C 108.958,339.253 107.458,339.253 106,340.5C 104.312,339.675 104.145,338.675 105.5,337.5C 103.37,336.223 101.704,336.723 100.5,339C 105.723,341.084 105.723,341.584 100.5,340.5C 99.5713,339.311 99.238,337.978 99.5,336.5C 97.857,336.48 96.5237,337.147 95.5,338.5C 94.377,336.711 93.0436,336.378 91.5,337.5C 93.7476,338.324 93.9142,339.324 92,340.5C 91,339.167 90,339.167 89,340.5C 87.0858,339.324 87.2524,338.324 89.5,337.5C 88.675,336.614 87.675,336.281 86.5,336.5C 86.7163,338.681 85.883,340.347 84,341.5C 84.0187,339.893 84.1854,338.226 84.5,336.5C 83.1667,336.5 81.8333,336.5 80.5,336.5C 80.3905,339.534 79.0572,340.534 76.5,339.5C 79.2291,337.633 78.8957,336.633 75.5,336.5C 74.9556,338.58 74.1223,340.58 73,342.5C 72.5348,341.069 71.7014,339.903 70.5,339C 74.3041,337.506 73.9707,336.672 69.5,336.5C 69.5391,338.359 68.7058,339.692 67,340.5C 64.7646,339.761 62.7646,339.761 61,340.5C 59.1971,338.084 57.0304,337.084 54.5,337.5C 55.6085,339.214 54.9418,339.881 52.5,339.5C 52.5,338.5 52.5,337.5 52.5,336.5C 51.1667,336.5 49.8333,336.5 48.5,336.5C 48.1667,343.167 47.8333,343.167 47.5,336.5C 43.388,338.674 39.2213,340.008 35,340.5C 33.872,338.655 33.372,336.655 33.5,334.5C 33.3333,292.165 33.5,249.832 34,207.5C 34.9476,205.43 36.4476,203.93 38.5,203C 135.444,201.34 232.444,201.007 329.5,202C 332.583,202.786 334.749,204.619 336,207.5C 336.5,250.499 336.667,293.499 336.5,336.5 Z"/></g>
<g><path style="opacity:1" fill="#ebe9e3" d="M 361.5,47.5 C 362.314,49.631 362.814,51.9644 363,54.5C 363.5,62.4931 363.666,70.4931 363.5,78.5C 364.5,78.5 365.5,78.5 366.5,78.5C 366.5,74.1667 366.5,69.8333 366.5,65.5C 367.499,126.664 367.832,187.998 367.5,249.5C 367.167,249.5 366.833,249.5 366.5,249.5C 366.5,194.833 366.5,140.167 366.5,85.5C 365.791,84.596 364.791,84.2627 363.5,84.5C 363.5,176.833 363.5,269.167 363.5,361.5C 362.5,361.5 361.5,361.5 360.5,361.5C 360.5,354.5 360.5,347.5 360.5,340.5C 360.5,335.167 360.5,329.833 360.5,324.5C 360.5,234.5 360.5,144.5 360.5,54.5C 360.212,51.1337 360.046,47.8004 360,44.5C 360.232,45.7375 360.732,46.7375 361.5,47.5 Z"/></g>
<g><path style="opacity:1" fill="#797f8f" d="M 90.5,216.5 C 91.9221,216.75 92.9221,217.583 93.5,219C 92.1667,221 92.1667,223 93.5,225C 92.552,225.483 91.552,225.649 90.5,225.5C 90.108,222.324 90.108,219.324 90.5,216.5 Z"/></g>
<g><path style="opacity:1" fill="#777d8e" d="M 140.5,216.5 C 141.922,216.75 142.922,217.583 143.5,219C 142.167,221 142.167,223 143.5,225C 142.552,225.483 141.552,225.649 140.5,225.5C 140.108,222.324 140.108,219.324 140.5,216.5 Z"/></g>
<g><path style="opacity:1" fill="#818797" d="M 48.5,215.5 C 50.9775,215.051 52.9775,215.717 54.5,217.5C 52.3984,217.479 50.2317,217.813 48,218.5C 47.4856,224.007 49.4856,225.341 54,222.5C 53.0903,226.911 50.757,227.578 47,224.5C 44.7879,221.021 45.2879,218.021 48.5,215.5 Z"/></g>
<g><path style="opacity:1" fill="#7b8192" d="M 56.5,218.5 C 58.0358,220.025 59.0358,222.025 59.5,224.5C 61.1307,222.941 61.964,220.941 62,218.5C 62.4966,220.81 62.6633,223.143 62.5,225.5C 60.5,225.5 58.5,225.5 56.5,225.5C 56.5,223.167 56.5,220.833 56.5,218.5 Z"/></g>
<g><path style="opacity:1" fill="#7e8494" d="M 64.5,218.5 C 65.8734,218.343 67.2068,218.51 68.5,219C 67.0722,220.916 66.0722,223.083 65.5,225.5C 64.5258,223.257 64.1924,220.924 64.5,218.5 Z"/></g>
<g><path style="opacity:1" fill="#7e8494" d="M 69.5,218.5 C 70.8734,218.343 72.2068,218.51 73.5,219C 72.0722,220.916 71.0722,223.083 70.5,225.5C 69.5258,223.257 69.1924,220.924 69.5,218.5 Z"/></g>
<g><path style="opacity:1" fill="#787e8f" d="M 82.5,218.5 C 88.2354,217.821 89.902,220.155 87.5,225.5C 85.9774,217.679 84.4774,217.679 83,225.5C 82.5034,223.19 82.3367,220.857 82.5,218.5 Z"/></g>
<g><path style="opacity:1" fill="#8f94a2" d="M 113.5,218.5 C 116.238,217.965 118.072,218.965 119,221.5C 120.245,217.502 121.078,217.669 121.5,222C 120.941,226.277 120.274,226.444 119.5,222.5C 117.396,222.201 115.396,222.534 113.5,223.5C 115.338,224.189 117.005,224.522 118.5,224.5C 111.606,226.612 109.939,224.612 113.5,218.5 Z"/></g>
<g><path style="opacity:1" fill="#797f8f" d="M 75.5,218.5 C 78.9496,217.756 80.6162,219.09 80.5,222.5C 78.2341,222.141 76.4007,222.808 75,224.5C 74.3224,222.402 74.4891,220.402 75.5,218.5 Z"/></g>
<g><path style="opacity:1" fill="#7d8393" d="M 131.5,215.5 C 133.048,215.821 133.715,216.821 133.5,218.5C 138.378,218.535 139.711,220.868 137.5,225.5C 135.392,217.687 133.725,218.02 132.5,226.5C 131.511,222.893 131.177,219.226 131.5,215.5 Z"/></g>
<g><path style="opacity:1" fill="#7d8393" d="M 98.5,215.5 C 99.4972,215.47 100.164,215.97 100.5,217C 101.078,218.811 101.578,220.645 102,222.5C 103.739,213.358 105.739,213.358 108,222.5C 108.151,219.881 108.985,217.547 110.5,215.5C 110.866,218.436 110.366,221.436 109,224.5C 108.107,225.711 107.274,225.711 106.5,224.5C 105.846,222.885 105.346,221.218 105,219.5C 104.124,221.725 102.957,223.725 101.5,225.5C 100.093,222.279 99.0926,218.945 98.5,215.5 Z"/></g>
<g><path style="opacity:1" fill="#797f90" d="M 124.5,218.5 C 126.5,218.5 128.5,218.5 130.5,218.5C 130.664,221.187 130.497,223.854 130,226.5C 128.045,228.982 125.879,229.148 123.5,227C 129.659,227.393 129.826,226.56 124,224.5C 123.322,222.402 123.489,220.402 124.5,218.5 Z"/></g>
<g><path style="opacity:1" fill="#f1f2f4" d="M 125.5,219.5 C 128.956,220.536 129.29,222.203 126.5,224.5C 124.296,223.218 123.962,221.551 125.5,219.5 Z"/></g>
<g><path style="opacity:1" fill="#eae5dd" d="M 3.5,263.5 C 1.51196,243.861 0.845292,223.861 1.5,203.5C 2.14987,203.196 2.81654,202.863 3.5,202.5C 4.80955,222.868 4.80955,243.202 3.5,263.5 Z"/></g>
<g><path style="opacity:1" fill="#414353" d="M 81.5,240.5 C 89.7385,239.558 92.5718,242.891 90,250.5C 87.8333,252.667 85.6667,254.833 83.5,257C 86.4816,257.498 89.4816,257.665 92.5,257.5C 92.5,258.5 92.5,259.5 92.5,260.5C 87.8333,260.5 83.1667,260.5 78.5,260.5C 78.3505,259.448 78.5172,258.448 79,257.5C 82.7585,254.249 85.9251,250.582 88.5,246.5C 88.4257,244.261 87.259,243.261 85,243.5C 82.8305,244.522 80.6638,245.522 78.5,246.5C 78.615,244.053 79.615,242.053 81.5,240.5 Z"/></g>
<g><path style="opacity:1" fill="#434555" d="M 105.5,240.5 C 112.327,239.174 115.494,241.84 115,248.5C 114.25,249.126 113.416,249.626 112.5,250C 117.395,252.823 117.729,256.157 113.5,260C 109.428,260.956 105.595,260.456 102,258.5C 100.877,255.044 101.71,252.21 104.5,250C 100.622,246.447 100.955,243.281 105.5,240.5 Z"/></g>
<g><path style="opacity:1" fill="#414353" d="M 122.5,240.5 C 129.827,239.329 132.994,242.329 132,249.5C 129.5,252 127,254.5 124.5,257C 127.482,257.498 130.482,257.665 133.5,257.5C 133.5,258.5 133.5,259.5 133.5,260.5C 128.833,260.5 124.167,260.5 119.5,260.5C 119.351,259.448 119.517,258.448 120,257.5C 123.758,254.249 126.925,250.582 129.5,246.5C 129.426,244.261 128.259,243.261 126,243.5C 123.83,244.522 121.664,245.522 119.5,246.5C 119.615,244.053 120.615,242.053 122.5,240.5 Z"/></g>
<g><path style="opacity:1" fill="#4a4c5b" d="M 51.5,240.5 C 52.8333,240.5 54.1667,240.5 55.5,240.5C 55.5,247.167 55.5,253.833 55.5,260.5C 54.1667,260.5 52.8333,260.5 51.5,260.5C 51.666,255.156 51.4994,249.823 51,244.5C 49.8455,245.743 48.5122,246.743 47,247.5C 46.8333,247 46.6667,246.5 46.5,246C 47.7416,243.728 49.4083,241.894 51.5,240.5 Z"/></g>
<g><path style="opacity:1" fill="#3f4151" d="M 67.5,241.5 C 69.1667,241.5 70.8333,241.5 72.5,241.5C 72.1832,245.702 72.5166,249.702 73.5,253.5C 75.0481,253.821 75.7148,254.821 75.5,256.5C 74.5,256.5 73.5,256.5 72.5,256.5C 72.5,257.833 72.5,259.167 72.5,260.5C 71.5,260.5 70.5,260.5 69.5,260.5C 69.5,259.167 69.5,257.833 69.5,256.5C 66.1667,256.5 62.8333,256.5 59.5,256.5C 61.3704,251.094 64.037,246.094 67.5,241.5 Z"/></g>
<g><path style="opacity:1" fill="#92939c" d="M 67.5,241.5 C 69.2646,240.539 71.2646,240.205 73.5,240.5C 73.5,244.833 73.5,249.167 73.5,253.5C 72.5166,249.702 72.1832,245.702 72.5,241.5C 70.8333,241.5 69.1667,241.5 67.5,241.5 Z"/></g>
<g><path style="opacity:1" fill="#3d3f4f" d="M 141.5,241.5 C 142.5,241.5 143.5,241.5 144.5,241.5C 144.5,247.833 144.5,254.167 144.5,260.5C 143.5,260.5 142.5,260.5 141.5,260.5C 141.5,254.167 141.5,247.833 141.5,241.5 Z"/></g>
<g><path style="opacity:1" fill="#80818c" d="M 141.5,241.5 C 142.568,240.566 143.901,240.232 145.5,240.5C 145.824,247.354 145.491,254.021 144.5,260.5C 144.5,254.167 144.5,247.833 144.5,241.5C 143.5,241.5 142.5,241.5 141.5,241.5 Z"/></g>
<g><path style="opacity:1" fill="#414253" d="M 148.5,240.5 C 149.5,240.5 150.5,240.5 151.5,240.5C 151.337,242.857 151.503,245.19 152,247.5C 156.003,244.499 159.336,245.165 162,249.5C 163.923,257.229 161.09,260.729 153.5,260C 153,259.5 152.5,259 152,258.5C 151.29,259.973 150.124,260.64 148.5,260.5C 148.5,253.833 148.5,247.167 148.5,240.5 Z"/></g>
<g><path style="opacity:1" fill="#f6f6f7" d="M 106.5,243.5 C 108.199,243.34 109.866,243.506 111.5,244C 112.517,245.049 112.684,246.216 112,247.5C 107.085,249.679 105.251,248.346 106.5,243.5 Z"/></g>
<g><path style="opacity:1" fill="#e8e8ea" d="M 68.5,244.5 C 69.4794,247.625 69.8128,250.958 69.5,254.5C 67.5,254.5 65.5,254.5 63.5,254.5C 64.6205,250.926 66.2872,247.592 68.5,244.5 Z"/></g>
<g><path style="opacity:1" fill="#464757" d="M 167.5,245.5 C 169.989,245.298 172.323,245.798 174.5,247C 175.337,248.011 175.67,249.178 175.5,250.5C 172.975,249.36 170.308,248.693 167.5,248.5C 167.5,249.5 167.5,250.5 167.5,251.5C 170.747,251.415 173.581,252.415 176,254.5C 176.843,258.827 175.01,260.827 170.5,260.5C 168.307,260.674 166.473,260.007 165,258.5C 164.409,257.517 164.743,256.85 166,256.5C 167.879,258.013 170.046,258.679 172.5,258.5C 172.67,257.178 172.337,256.011 171.5,255C 164.025,253.998 162.692,250.831 167.5,245.5 Z"/></g>
<g><path style="opacity:1" fill="#f1f1f2" d="M 153.5,248.5 C 158.151,249.174 159.651,251.841 158,256.5C 153.96,259.513 151.793,258.346 151.5,253C 151.519,251.167 152.185,249.667 153.5,248.5 Z"/></g>
<g><path style="opacity:1" fill="#e9e9eb" d="M 106.5,251.5 C 111.895,250.555 113.561,252.555 111.5,257.5C 105.29,258.967 103.623,256.967 106.5,251.5 Z"/></g>
<g><path style="opacity:1" fill="#434555" d="M 94.5,257.5 C 95.5,257.5 96.5,257.5 97.5,257.5C 97.838,260.157 97.1713,262.49 95.5,264.5C 94.5258,262.257 94.1924,259.924 94.5,257.5 Z"/></g>
<g><path style="opacity:0.869" fill="#e5e0d7" d="M 366.5,249.5 C 366.833,249.5 367.167,249.5 367.5,249.5C 368.391,250.261 369.058,251.261 369.5,252.5C 369.262,269.885 368.929,287.551 368.5,305.5C 368.747,306.713 369.414,307.38 370.5,307.5C 370.5,309.833 370.5,312.167 370.5,314.5C 369.732,313.737 369.232,312.737 369,311.5C 369.137,319.235 368.304,326.568 366.5,333.5C 366.5,305.5 366.5,277.5 366.5,249.5 Z"/></g>
<g><path style="opacity:1" fill="#8f96a4" d="M 293.5,283.5 C 294.634,285.966 294.801,288.633 294,291.5C 293.667,289.5 293.333,287.5 293,285.5C 292.346,286.696 291.846,286.696 291.5,285.5C 292.243,284.818 292.909,284.151 293.5,283.5 Z"/></g>
<g><path style="opacity:1" fill="#999fac" d="M 313.5,283.5 C 314.268,284.263 314.768,285.263 315,286.5C 316,285.167 317,285.167 318,286.5C 318.667,287.833 318.667,289.167 318,290.5C 317.517,289.552 317.351,288.552 317.5,287.5C 316.5,287.5 315.5,287.5 314.5,287.5C 314.657,288.873 314.49,290.207 314,291.5C 313.503,288.854 313.336,286.187 313.5,283.5 Z"/></g>
<g><path style="opacity:1" fill="#bec2ca" d="M 297.5,283.5 C 299.484,283.383 301.15,284.05 302.5,285.5C 304.392,282.956 306.225,282.956 308,285.5C 308.667,287.167 308.667,288.833 308,290.5C 304.212,289.289 300.379,289.289 296.5,290.5C 296.398,288.233 296.732,285.9 297.5,283.5 Z"/></g>
<g><path style="opacity:1" fill="#838b9a" d="M 292.5,310.5 C 292.56,309.957 292.893,309.624 293.5,309.5C 294.647,311.765 294.814,314.098 294,316.5C 293.809,314.292 293.309,312.292 292.5,310.5 Z"/></g>
<g><path style="opacity:1" fill="#b9bdc5" d="M 297.5,308.5 C 298.822,308.33 299.989,308.663 301,309.5C 301.497,311.81 301.663,314.143 301.5,316.5C 299.833,316.5 298.167,316.5 296.5,316.5C 296.279,313.721 296.612,311.054 297.5,308.5 Z"/></g>
<g><path style="opacity:1" fill="#bdc2c9" d="M 304.5,308.5 C 308.392,309.742 309.392,312.242 307.5,316C 302.917,316.934 301.417,315.1 303,310.5C 303.717,309.956 304.217,309.289 304.5,308.5 Z"/></g>
<g><path style="opacity:1" fill="#c1c5cc" d="M 311.5,308.5 C 312.5,308.5 313.5,308.5 314.5,308.5C 314.351,309.552 314.517,310.552 315,311.5C 317.407,311.594 319.907,311.427 322.5,311C 323.406,312.699 323.739,314.533 323.5,316.5C 319.107,316.543 318.774,316.043 322.5,315C 320.081,313.07 318.414,313.403 317.5,316C 315.527,316.495 313.527,316.662 311.5,316.5C 311.5,313.833 311.5,311.167 311.5,308.5 Z"/></g>
<g><path style="opacity:1" fill="#e6e2d6" d="M 3.5,278.5 C 4.49096,306.093 4.82429,333.759 4.5,361.5C 4.16667,361.5 3.83333,361.5 3.5,361.5C 1.8763,344.889 1.04297,328.222 1,311.5C 0.801916,313.382 0.301916,315.048 -0.5,316.5C -0.5,314.167 -0.5,311.833 -0.5,309.5C 0.117425,309.389 0.617425,309.056 1,308.5C 0.853705,298.116 1.68704,288.116 3.5,278.5 Z"/></g>
<g><path style="opacity:1" fill="#fcfdf7" d="M 33.5,334.5 C 33.372,336.655 33.872,338.655 35,340.5C 39.2213,340.008 43.388,338.674 47.5,336.5C 47.8333,343.167 48.1667,343.167 48.5,336.5C 49.8333,336.5 51.1667,336.5 52.5,336.5C 52.5,337.5 52.5,338.5 52.5,339.5C 54.9418,339.881 55.6085,339.214 54.5,337.5C 57.0304,337.084 59.1971,338.084 61,340.5C 62.7646,339.761 64.7646,339.761 67,340.5C 68.7058,339.692 69.5391,338.359 69.5,336.5C 73.9707,336.672 74.3041,337.506 70.5,339C 71.7014,339.903 72.5348,341.069 73,342.5C 74.1223,340.58 74.9556,338.58 75.5,336.5C 78.8957,336.633 79.2291,337.633 76.5,339.5C 79.0572,340.534 80.3905,339.534 80.5,336.5C 81.8333,336.5 83.1667,336.5 84.5,336.5C 84.1854,338.226 84.0187,339.893 84,341.5C 85.883,340.347 86.7163,338.681 86.5,336.5C 87.675,336.281 88.675,336.614 89.5,337.5C 87.2524,338.324 87.0858,339.324 89,340.5C 90,339.167 91,339.167 92,340.5C 93.9142,339.324 93.7476,338.324 91.5,337.5C 93.0436,336.378 94.377,336.711 95.5,338.5C 96.5237,337.147 97.857,336.48 99.5,336.5C 99.238,337.978 99.5713,339.311 100.5,340.5C 105.723,341.584 105.723,341.084 100.5,339C 101.704,336.723 103.37,336.223 105.5,337.5C 104.145,338.675 104.312,339.675 106,340.5C 107.458,339.253 108.958,339.253 110.5,340.5C 113.848,339.915 116.848,338.582 119.5,336.5C 121.569,336.824 121.902,337.658 120.5,339C 121.766,339.309 122.933,339.809 124,340.5C 125.751,339.826 127.417,339.493 129,339.5C 129.626,341.991 130.459,341.991 131.5,339.5C 134.6,339.183 137.433,339.516 140,340.5C 140.311,339.258 139.811,338.258 138.5,337.5C 139.167,337.167 139.833,336.833 140.5,336.5C 142.569,336.824 142.902,337.658 141.5,339C 142.833,339.667 144.167,339.667 145.5,339C 144.007,337.844 144.174,337.01 146,336.5C 147.221,337.272 148.221,338.272 149,339.5C 149.483,338.552 149.649,337.552 149.5,336.5C 152.361,336.513 153.361,337.679 152.5,340C 153.825,339.852 154.992,340.018 156,340.5C 158.775,339.331 161.275,337.997 163.5,336.5C 163.535,340.766 164.535,341.599 166.5,339C 165.007,337.844 165.174,337.01 167,336.5C 168.168,337.509 169.335,338.509 170.5,339.5C 170.402,338.384 170.902,337.384 172,336.5C 172.702,337.795 173.369,339.128 174,340.5C 174.667,339.167 175.333,339.167 176,340.5C 176.75,339.874 177.584,339.374 178.5,339C 174.696,337.506 175.029,336.672 179.5,336.5C 179.343,337.873 179.51,339.207 180,340.5C 183.385,339.554 186.552,338.22 189.5,336.5C 189.351,337.552 189.517,338.552 190,339.5C 190.908,337.561 192.408,336.561 194.5,336.5C 194.5,337.5 194.5,338.5 194.5,339.5C 191.843,339.935 189.509,340.935 187.5,342.5C 180.673,343.886 174.006,345.886 167.5,348.5C 164.536,346.879 162.536,347.712 161.5,351C 155.93,354.275 150.597,357.775 145.5,361.5C 128.167,361.5 110.833,361.5 93.5,361.5C 92.0772,359.455 90.0772,358.455 87.5,358.5C 87.5,359.5 87.5,360.5 87.5,361.5C 69.1667,361.5 50.8333,361.5 32.5,361.5C 32.1734,352.318 32.5067,343.318 33.5,334.5 Z"/></g>
<g><path style="opacity:1" fill="#b4b9be" d="M 317.5,337.5 C 317.5,338.833 317.5,340.167 317.5,341.5C 315.833,341.5 314.167,341.5 312.5,341.5C 312.5,340.5 312.5,339.5 312.5,338.5C 312.343,337.127 312.51,335.793 313,334.5C 314.31,335.897 315.81,336.897 317.5,337.5 Z"/></g>
<g><path style="opacity:1" fill="#1d1e1a" d="M 10.5,324.5 C 13.1667,324.5 15.8333,324.5 18.5,324.5C 18.5,330.833 18.5,337.167 18.5,343.5C 15.8333,343.5 13.1667,343.5 10.5,343.5C 10.5,337.167 10.5,330.833 10.5,324.5 Z"/></g>
<g><path style="opacity:1" fill="#1d1e1a" d="M 351.5,324.5 C 354.5,325.833 357.5,325.833 360.5,324.5C 360.5,329.833 360.5,335.167 360.5,340.5C 359.542,340.953 358.708,341.619 358,342.5C 355.959,341.577 353.792,341.244 351.5,341.5C 351.5,335.833 351.5,330.167 351.5,324.5 Z"/></g>
<g><path style="opacity:1" fill="#fbfcf6" d="M 312.5,338.5 C 312.5,339.5 312.5,340.5 312.5,341.5C 314.167,341.5 315.833,341.5 317.5,341.5C 317.5,340.167 317.5,338.833 317.5,337.5C 319.042,336.699 320.708,336.366 322.5,336.5C 322.5,337.5 322.5,338.5 322.5,339.5C 325.701,337.812 327.867,338.812 329,342.5C 329.868,338.955 331.368,338.289 333.5,340.5C 335.55,339.923 336.55,338.59 336.5,336.5C 337.493,344.65 337.826,352.983 337.5,361.5C 274.5,361.5 211.5,361.5 148.5,361.5C 152.928,358.109 157.594,354.942 162.5,352C 171.016,349.109 179.349,345.942 187.5,342.5C 193.585,340.862 199.752,339.529 206,338.5C 217.832,341.462 229.498,344.795 241,348.5C 245.053,344.557 249.553,341.224 254.5,338.5C 255.79,339.058 256.623,340.058 257,341.5C 257.333,340.833 257.667,340.167 258,339.5C 259.399,339.501 260.899,339.835 262.5,340.5C 263.192,339.975 263.692,339.308 264,338.5C 264.308,339.308 264.808,339.975 265.5,340.5C 265.906,339.443 265.906,338.109 265.5,336.5C 267.124,336.36 268.29,337.027 269,338.5C 269.804,337.196 270.971,336.529 272.5,336.5C 274.872,337.363 274.872,338.529 272.5,340C 273.416,340.374 274.25,340.874 275,341.5C 275.667,338.833 276.333,338.833 277,341.5C 278.067,340.809 279.234,340.309 280.5,340C 280.167,339.667 279.833,339.333 279.5,339C 280.646,338.355 281.646,337.522 282.5,336.5C 284.052,341.887 286.552,342.553 290,338.5C 290.333,339.167 290.667,339.833 291,340.5C 291.671,339.748 292.504,339.414 293.5,339.5C 293.369,340.376 293.702,341.043 294.5,341.5C 295.258,340.189 296.258,339.689 297.5,340C 296.289,340.893 296.289,341.726 297.5,342.5C 298.41,340.345 299.577,338.345 301,336.5C 301.005,339.229 302.171,341.229 304.5,342.5C 306.288,341.717 307.288,340.384 307.5,338.5C 308.117,338.611 308.617,338.944 309,339.5C 309.333,337.833 309.667,336.167 310,334.5C 310.333,336.833 310.667,339.167 311,341.5C 311.232,340.263 311.732,339.263 312.5,338.5 Z"/></g>
<g><path style="opacity:1" fill="#cfd3d4" d="M 307.5,338.5 C 307.288,340.384 306.288,341.717 304.5,342.5C 302.171,341.229 301.005,339.229 301,336.5C 299.577,338.345 298.41,340.345 297.5,342.5C 296.289,341.726 296.289,340.893 297.5,340C 296.258,339.689 295.258,340.189 294.5,341.5C 293.702,341.043 293.369,340.376 293.5,339.5C 293.714,337.856 293.38,336.356 292.5,335C 295.831,332.848 298.998,333.015 302,335.5C 305.466,333.65 307.299,334.65 307.5,338.5 Z"/></g>
<g><path style="opacity:1" fill="#77a3f3" d="M 254.5,338.5 C 249.553,341.224 245.053,344.557 241,348.5C 229.498,344.795 217.832,341.462 206,338.5C 199.752,339.529 193.585,340.862 187.5,342.5C 189.509,340.935 191.843,339.935 194.5,339.5C 197.537,338.652 200.37,337.318 203,335.5C 211.592,338.623 220.425,341.123 229.5,343C 234.11,344.29 238.777,344.624 243.5,344C 255.686,336.172 267.519,328.006 279,319.5C 280.28,319.613 281.113,320.28 281.5,321.5C 272.264,326.725 263.264,332.392 254.5,338.5 Z"/></g>
<g><path style="opacity:0.171" fill="#f3fad9" d="M 3.5,361.5 C 2.16667,361.5 0.833333,361.5 -0.5,361.5C -0.5,346.5 -0.5,331.5 -0.5,316.5C 0.301916,315.048 0.801916,313.382 1,311.5C 1.04297,328.222 1.8763,344.889 3.5,361.5 Z"/></g>
<g><path style="opacity:0.176" fill="#f3fbd8" d="M 370.5,314.5 C 370.5,330.167 370.5,345.833 370.5,361.5C 369.167,361.5 367.833,361.5 366.5,361.5C 366.5,352.167 366.5,342.833 366.5,333.5C 368.304,326.568 369.137,319.235 369,311.5C 369.232,312.737 369.732,313.737 370.5,314.5 Z"/></g>
<g><path style="opacity:1" fill="#2f312a" d="M 360.5,340.5 C 360.5,347.5 360.5,354.5 360.5,361.5C 357.5,361.5 354.5,361.5 351.5,361.5C 351.5,354.833 351.5,348.167 351.5,341.5C 353.792,341.244 355.959,341.577 358,342.5C 358.708,341.619 359.542,340.953 360.5,340.5 Z"/></g>
<g><path style="opacity:1" fill="#81aaf1" d="M 187.5,342.5 C 179.349,345.942 171.016,349.109 162.5,352C 157.594,354.942 152.928,358.109 148.5,361.5C 147.5,361.5 146.5,361.5 145.5,361.5C 150.597,357.775 155.93,354.275 161.5,351C 162.536,347.712 164.536,346.879 167.5,348.5C 174.006,345.886 180.673,343.886 187.5,342.5 Z"/></g>
<g><path style="opacity:1" fill="#70a0ef" d="M 93.5,361.5 C 91.5,361.5 89.5,361.5 87.5,361.5C 87.5,360.5 87.5,359.5 87.5,358.5C 90.0772,358.455 92.0772,359.455 93.5,361.5 Z"/></g>
</svg>
