<?xml version="1.0" encoding="UTF-8"?>
<!DOCTYPE svg PUBLIC "-//W3C//DTD SVG 1.1//EN" "http://www.w3.org/Graphics/SVG/1.1/DTD/svg11.dtd">
<svg xmlns="http://www.w3.org/2000/svg" version="1.1" width="275px" height="400px" style="shape-rendering:geometricPrecision; text-rendering:geometricPrecision; image-rendering:optimizeQuality; fill-rule:evenodd; clip-rule:evenodd" xmlns:xlink="http://www.w3.org/1999/xlink">
<g><path style="opacity:0.996" fill="#070707" d="M 5.5,-0.5 C 7.83333,-0.5 10.1667,-0.5 12.5,-0.5C 12.3333,118.5 12.5,237.5 13,356.5C 13.1988,365.22 16.3654,372.553 22.5,378.5C 26.6021,383.728 31.9355,387.228 38.5,389C 45.4921,389.5 52.4921,389.666 59.5,389.5C 111.167,390.833 162.833,390.833 214.5,389.5C 221.175,389.666 227.842,389.5 234.5,389C 240.399,387.568 245.399,384.735 249.5,380.5C 255.683,374.47 259.517,367.136 261,358.5C 261.5,238.834 261.667,119.167 261.5,-0.5C 263.833,-0.5 266.167,-0.5 268.5,-0.5C 268.5,117.833 268.5,236.167 268.5,354.5C 266.573,375.159 255.573,388.326 235.5,394C 177.855,395.459 120.188,395.959 62.5,395.5C 60.8333,395.5 59.1667,395.5 57.5,395.5C 38.1368,397.473 22.8035,390.806 11.5,375.5C 8.43528,369.916 6.60194,363.916 6,357.5C 5.5,238.167 5.33333,118.834 5.5,-0.5 Z"/></g>
<g><path style="opacity:1" fill="#f2f3f5" d="M 12.5,-0.5 C 16.1667,-0.5 19.8333,-0.5 23.5,-0.5C 23.3333,75.1674 23.5,150.834 24,226.5C 24.5,228.333 25.6667,229.5 27.5,230C 100.5,230.667 173.5,230.667 246.5,230C 248.333,229.5 249.5,228.333 250,226.5C 250.5,150.834 250.667,75.1674 250.5,-0.5C 254.167,-0.5 257.833,-0.5 261.5,-0.5C 261.667,119.167 261.5,238.834 261,358.5C 259.517,367.136 255.683,374.47 249.5,380.5C 248.87,373.112 248.87,365.779 249.5,358.5C 250.664,322.669 250.831,286.669 250,250.5C 248.786,248.951 247.286,247.785 245.5,247C 172.833,246.333 100.167,246.333 27.5,247C 25.0771,248.571 23.7438,250.737 23.5,253.5C 22.5014,294.997 22.168,336.663 22.5,378.5C 16.3654,372.553 13.1988,365.22 13,356.5C 12.5,237.5 12.3333,118.5 12.5,-0.5 Z"/></g>
<g><path style="opacity:1" fill="#fdfdfd" d="M 23.5,-0.5 C 99.1667,-0.5 174.833,-0.5 250.5,-0.5C 250.667,75.1674 250.5,150.834 250,226.5C 249.5,228.333 248.333,229.5 246.5,230C 173.5,230.667 100.5,230.667 27.5,230C 25.6667,229.5 24.5,228.333 24,226.5C 23.5,150.834 23.3333,75.1674 23.5,-0.5 Z"/></g>
<g><path style="opacity:1" fill="#959aa7" d="M 34.5,2.5 C 36.4835,2.38321 38.1502,3.04988 39.5,4.5C 37.9974,5.05216 36.3307,5.05216 34.5,4.5C 34.5,6.16667 34.5,7.83333 34.5,9.5C 36.3904,9.7035 37.8904,9.03683 39,7.5C 39.4562,9.71319 38.4562,10.7132 36,10.5C 32.018,8.56278 31.518,5.89612 34.5,2.5 Z"/></g>
<g><path style="opacity:1" fill="#6a7183" d="M 66.5,3.5 C 67.2161,5.55634 67.8828,7.72301 68.5,10C 68.1667,10.1667 67.8333,10.3333 67.5,10.5C 66.5258,8.25731 66.1924,5.92397 66.5,3.5 Z"/></g>
<g><path style="opacity:1" fill="#6a7183" d="M 103.5,3.5 C 104.216,5.55634 104.883,7.72301 105.5,10C 105.167,10.1667 104.833,10.3333 104.5,10.5C 103.526,8.25731 103.192,5.92397 103.5,3.5 Z"/></g>
<g><path style="opacity:1" fill="#7f8495" d="M 46.5,5.5 C 47.552,5.35055 48.552,5.51722 49.5,6C 48.1068,7.17109 47.2735,8.67109 47,10.5C 46.5065,8.86586 46.3398,7.19919 46.5,5.5 Z"/></g>
<g><path style="opacity:1" fill="#969ba7" d="M 61.5,4.5 C 62.4959,4.41423 63.3292,4.74756 64,5.5C 64.6667,7.16667 64.6667,8.83333 64,10.5C 63.0914,5.27021 61.9247,5.27021 60.5,10.5C 59.2291,8.19371 59.5624,6.19371 61.5,4.5 Z"/></g>
<g><path style="opacity:1" fill="#9296a4" d="M 91.5,9.5 C 90.218,8.29177 90.218,6.95844 91.5,5.5C 93.0026,4.94784 94.6693,4.94784 96.5,5.5C 97.0527,1.54427 97.8861,1.54427 99,5.5C 99.414,5.04265 99.914,4.70931 100.5,4.5C 101.641,6.42131 101.808,8.42131 101,10.5C 100.781,9.06199 100.281,7.72865 99.5,6.5C 98.2646,10.6057 95.5979,12.4391 91.5,12C 92.5,11.6667 93.5,11.3333 94.5,11C 93.2625,10.7679 92.2625,10.2679 91.5,9.5 Z"/></g>
<g><path style="opacity:1" fill="#edeef0" d="M 91.5,9.5 C 91.5,8.5 91.5,7.5 91.5,6.5C 92.5,6.5 93.5,6.5 94.5,6.5C 94.5,7.5 94.5,8.5 94.5,9.5C 93.5,9.5 92.5,9.5 91.5,9.5 Z"/></g>
<g><path style="opacity:1" fill="#9398a6" d="M 52.5,4.5 C 54.1059,5.35912 55.7725,5.52579 57.5,5C 58.4061,6.69946 58.7394,8.5328 58.5,10.5C 55.1592,11.1571 53.1592,9.82372 52.5,6.5C 51.7189,7.72865 51.2189,9.06199 51,10.5C 50.2568,8.1261 50.7568,6.1261 52.5,4.5 Z"/></g>
<g><path style="opacity:1" fill="#8a8f9e" d="M 72.5,3.5 C 73.3149,4.42925 74.1482,5.42925 75,6.5C 76.7313,2.66488 78.0646,2.99822 79,7.5C 79.2189,6.06199 79.7189,4.72865 80.5,3.5C 80.8333,3.83333 81.1667,4.16667 81.5,4.5C 80.846,6.11511 80.346,7.78178 80,9.5C 79.586,9.95735 79.086,10.2907 78.5,10.5C 77.7189,9.27135 77.2189,7.93801 77,6.5C 76.4169,8.00158 75.5836,9.33492 74.5,10.5C 72.8287,8.49024 72.162,6.1569 72.5,3.5 Z"/></g>
<g><path style="opacity:1" fill="#7b8192" d="M 40.5,5.5 C 41.4345,6.56764 41.7678,7.90097 41.5,9.5C 42.5,9.5 43.5,9.5 44.5,9.5C 45.0031,4.49998 45.3364,4.83331 45.5,10.5C 43.8333,10.5 42.1667,10.5 40.5,10.5C 40.5,8.83333 40.5,7.16667 40.5,5.5 Z"/></g>
<g><path style="opacity:1" fill="#8a8f9e" d="M 83.5,4.5 C 88.5187,6.31982 88.5187,7.81982 83.5,9C 87.2259,10.0432 86.8926,10.5432 82.5,10.5C 82.3253,8.3792 82.6586,6.3792 83.5,4.5 Z"/></g>
<g><path style="opacity:1" fill="#3d3e4f" d="M 36.5,21.5 C 37.5,21.5 38.5,21.5 39.5,21.5C 39.8275,26.544 39.4941,31.544 38.5,36.5C 37.8333,32.5 37.1667,28.5 36.5,24.5C 35.3914,25.5896 34.3914,25.5896 33.5,24.5C 34.3398,23.265 35.3398,22.265 36.5,21.5 Z"/></g>
<g><path style="opacity:1" fill="#3e4050" d="M 48.5,21.5 C 49.8333,21.5 51.1667,21.5 52.5,21.5C 52.0211,25.4344 52.6878,29.1011 54.5,32.5C 53.3539,33.7187 52.3539,35.0521 51.5,36.5C 50.6143,35.675 50.281,34.675 50.5,33.5C 47.8333,33.5 45.1667,33.5 42.5,33.5C 44.0488,29.2816 46.0488,25.2816 48.5,21.5 Z"/></g>
<g><path style="opacity:1" fill="#4a4b5b" d="M 58.5,21.5 C 61.1194,21.2317 63.6194,21.565 66,22.5C 66.7605,27.4821 64.9272,31.3154 60.5,34C 62.9005,34.1858 65.2338,34.6858 67.5,35.5C 63.8333,36.8333 60.1667,36.8333 56.5,35.5C 59.5466,32.4552 62.2133,29.1219 64.5,25.5C 62.4872,22.8776 60.3205,22.8776 58,25.5C 57.5,25.1667 57,24.8333 56.5,24.5C 57.1925,23.4822 57.8592,22.4822 58.5,21.5 Z"/></g>
<g><path style="opacity:1" fill="#454757" d="M 90.5,21.5 C 95.9933,20.178 98.4933,22.178 98,27.5C 95.9824,29.3501 94.1491,31.3501 92.5,33.5C 94.8333,34.1667 97.1667,34.8333 99.5,35.5C 95.8333,36.8333 92.1667,36.8333 88.5,35.5C 91.5466,32.4552 94.2133,29.1219 96.5,25.5C 94.2955,22.9469 91.9621,22.9469 89.5,25.5C 89.1667,25.1667 88.8333,24.8333 88.5,24.5C 89.1925,23.4822 89.8592,22.4822 90.5,21.5 Z"/></g>
<g><path style="opacity:1" fill="#393b4c" d="M 105.5,21.5 C 106.809,23.5706 107.475,26.0706 107.5,29C 107.167,31.5 106.833,34 106.5,36.5C 105.506,31.544 105.173,26.544 105.5,21.5 Z"/></g>
<g><path style="opacity:1" fill="#444656" d="M 110.5,21.5 C 112.117,22.5893 112.95,24.256 113,26.5C 119.694,24.8705 122.027,27.5372 120,34.5C 119.5,35 119,35.5 118.5,36C 116.074,35.9521 113.741,36.1188 111.5,36.5C 110.506,31.544 110.173,26.544 110.5,21.5 Z"/></g>
<g><path style="opacity:1" fill="#ececed" d="M 49.5,23.5 C 50.4731,25.9479 50.8064,28.6146 50.5,31.5C 48.712,31.7852 47.0453,31.4519 45.5,30.5C 47.11,28.2746 48.4434,25.9413 49.5,23.5 Z"/></g>
<g><path style="opacity:1" fill="#494a5a" d="M 123.5,25.5 C 126.665,24.9635 129.331,25.7969 131.5,28C 122.438,26.9724 122.272,28.1391 131,31.5C 131.502,34.7146 130.002,36.3812 126.5,36.5C 124.893,36.363 123.559,35.6964 122.5,34.5C 124.424,34.433 126.424,34.0997 128.5,33.5C 127.009,31.9884 125.176,30.9884 123,30.5C 122.36,28.735 122.527,27.0683 123.5,25.5 Z"/></g>
<g><path style="opacity:1" fill="#ececed" d="M 113.5,27.5 C 116.233,27.1961 117.899,28.3628 118.5,31C 116.5,35.6667 114.5,35.6667 112.5,31C 112.989,29.8615 113.322,28.6948 113.5,27.5 Z"/></g>
<g><path style="opacity:1" fill="#444656" d="M 77.5,21.5 C 80.1194,21.2317 82.6194,21.565 85,22.5C 85.8632,24.7489 85.3632,26.5822 83.5,28C 88.0992,32.7643 87.0992,35.5976 80.5,36.5C 74.1657,35.329 73.1657,32.4956 77.5,28C 74.9387,25.8441 74.9387,23.6774 77.5,21.5 Z"/></g>
<g><path style="opacity:1" fill="#eeeeef" d="M 78.5,23.5 C 80.6648,23.1159 82.3315,23.7826 83.5,25.5C 82.3315,27.2174 80.6648,27.8841 78.5,27.5C 78.5,26.1667 78.5,24.8333 78.5,23.5 Z"/></g>
<g><path style="opacity:1" fill="#efeff0" d="M 78.5,29.5 C 82.1378,28.7366 83.6378,30.0699 83,33.5C 78.4155,35.4126 76.9155,34.0793 78.5,29.5 Z"/></g>
<g><path style="opacity:1" fill="#525463" d="M 69.5,33.5 C 70.675,33.281 71.675,33.6143 72.5,34.5C 70.619,41.0145 69.619,40.6811 69.5,33.5 Z"/></g>
<g><path style="opacity:1" fill="#bec2ca" d="M 217.5,53.5 C 219.187,54.8673 220.853,55.8673 222.5,56.5C 224.332,55.7515 225.999,54.7515 227.5,53.5C 229.384,54.6927 229.884,56.3594 229,58.5C 226.263,59.6105 223.429,59.7772 220.5,59C 221.5,58.6667 222.5,58.3333 223.5,58C 222.234,57.6905 221.067,57.1905 220,56.5C 219.751,57.624 219.251,58.624 218.5,59.5C 217.135,57.4464 216.801,55.4464 217.5,53.5 Z"/></g>
<g><path style="opacity:1" fill="#b5b9c3" d="M 231.5,54.5 C 234.548,55.8233 237.548,56.3233 240.5,56C 238.009,56.6259 238.009,57.4593 240.5,58.5C 240,58.8333 239.5,59.1667 239,59.5C 236.663,59.1015 234.163,59.1015 231.5,59.5C 231.5,57.8333 231.5,56.1667 231.5,54.5 Z"/></g>
<g><path style="opacity:1" fill="#c4c8cf" d="M 220.5,72.5 C 222.722,73.3862 224.888,73.3862 227,72.5C 229.59,73.6868 230.09,75.5202 228.5,78C 226.892,78.658 225.725,78.158 225,76.5C 223.89,78.0368 222.39,78.7035 220.5,78.5C 220.5,76.5 220.5,74.5 220.5,72.5 Z"/></g>
<g><path style="opacity:1" fill="#bbbfc7" d="M 231.5,72.5 C 233.903,72.393 235.736,73.393 237,75.5C 238,75.1667 239,74.8333 240,74.5C 240.49,75.7932 240.657,77.1266 240.5,78.5C 237.654,77.9054 234.654,77.9054 231.5,78.5C 231.5,76.5 231.5,74.5 231.5,72.5 Z"/></g>
<g><path style="opacity:1" fill="#709df8" d="M 195.5,89.5 C 199.589,86.0656 203.923,83.0656 208.5,80.5C 208.5,81.5 208.5,82.5 208.5,83.5C 204.058,85.2205 199.724,87.2205 195.5,89.5 Z"/></g>
<g><path style="opacity:1" fill="#79a4f8" d="M 195.5,89.5 C 195.027,90.9063 194.027,91.573 192.5,91.5C 192.973,90.0937 193.973,89.427 195.5,89.5 Z"/></g>
<g><path style="opacity:1" fill="#c5c8d0" d="M 225.5,90.5 C 226.496,90.4142 227.329,90.7476 228,91.5C 228.667,93.1667 228.667,94.8333 228,96.5C 227.282,97.4506 226.449,97.6172 225.5,97C 224.773,95.6012 224.273,94.1012 224,92.5C 223.252,94.3325 222.252,95.9991 221,97.5C 220.735,95.8374 221.235,94.3374 222.5,93C 221.833,92.6667 221.167,92.3333 220.5,92C 222.382,91.8019 224.048,91.3019 225.5,90.5 Z"/></g>
<g><path style="opacity:1" fill="#79a4f8" d="M 192.5,91.5 C 192.027,92.9063 191.027,93.573 189.5,93.5C 189.973,92.0937 190.973,91.427 192.5,91.5 Z"/></g>
<g><path style="opacity:1" fill="#7ca4f8" d="M 189.5,93.5 C 185.68,96.2526 182.014,99.2526 178.5,102.5C 168.04,97.7394 157.04,95.5727 145.5,96C 136.785,98.9611 128.118,101.794 119.5,104.5C 119.804,103.85 120.137,103.183 120.5,102.5C 130.699,99.767 140.699,96.4337 150.5,92.5C 159.099,95.0864 167.766,97.4198 176.5,99.5C 180.965,97.7674 185.298,95.7674 189.5,93.5 Z"/></g>
<g><path style="opacity:1" fill="#7ea6f9" d="M 119.5,104.5 C 117.371,106.95 114.704,108.617 111.5,109.5C 113.629,107.05 116.296,105.383 119.5,104.5 Z"/></g>
<g><path style="opacity:1" fill="#5c8ff7" d="M 69.5,112.5 C 65.9748,112.478 62.6415,112.978 59.5,114C 61.6414,112.692 63.6414,111.192 65.5,109.5C 66.9014,110.521 68.2347,111.521 69.5,112.5 Z"/></g>
<g><path style="opacity:1" fill="#79a3f7" d="M 111.5,109.5 C 110.341,111.25 108.674,112.25 106.5,112.5C 107.659,110.75 109.326,109.75 111.5,109.5 Z"/></g>
<g><path style="opacity:1" fill="#85aaf8" d="M 69.5,112.5 C 71.8984,112.259 73.8984,112.926 75.5,114.5C 73.1016,114.741 71.1016,114.074 69.5,112.5 Z"/></g>
<g><path style="opacity:1" fill="#b7bcc5" d="M 231.5,109.5 C 234.375,110.623 237.375,111.456 240.5,112C 240.554,113.351 240.054,114.518 239,115.5C 236.663,115.101 234.163,115.101 231.5,115.5C 231.5,113.5 231.5,111.5 231.5,109.5 Z"/></g>
<g><path style="opacity:1" fill="#9db7fa" d="M 75.5,114.5 C 78.0101,114.054 80.0101,114.72 81.5,116.5C 79.2143,116.405 77.2143,115.738 75.5,114.5 Z"/></g>
<g><path style="opacity:1" fill="#7aa4f8" d="M 106.5,112.5 C 105.341,114.25 103.674,115.25 101.5,115.5C 102.659,113.75 104.326,112.75 106.5,112.5 Z"/></g>
<g><path style="opacity:1" fill="#c1c4cc" d="M 217.5,109.5 C 218.75,109.577 219.583,110.244 220,111.5C 220.689,110.643 221.522,109.977 222.5,109.5C 224.426,110.061 226.426,110.227 228.5,110C 229.554,111.388 229.72,112.888 229,114.5C 226.796,114.909 224.63,115.242 222.5,115.5C 221.353,115.182 220.519,114.516 220,113.5C 219.692,114.308 219.192,114.975 218.5,115.5C 217.135,113.446 216.801,111.446 217.5,109.5 Z"/></g>
<g><path style="opacity:1" fill="#9db7fa" d="M 81.5,116.5 C 84.0101,116.054 86.0101,116.72 87.5,118.5C 85.2143,118.405 83.2143,117.738 81.5,116.5 Z"/></g>
<g><path style="opacity:1" fill="#76a2f8" d="M 101.5,115.5 C 100.341,117.25 98.674,118.25 96.5,118.5C 97.6594,116.75 99.326,115.75 101.5,115.5 Z"/></g>
<g><path style="opacity:1" fill="#76a1f8" d="M 50.5,119.5 C 52.3307,117.251 54.6641,116.085 57.5,116C 55.4234,117.705 53.09,118.872 50.5,119.5 Z"/></g>
<g><path style="opacity:1" fill="#759ef8" d="M 87.5,118.5 C 90.5,118.5 93.5,118.5 96.5,118.5C 95.8091,120.022 94.6424,121.022 93,121.5C 91.1418,120.394 89.3085,119.394 87.5,118.5 Z"/></g>
<g><path style="opacity:1" fill="#74a0f8" d="M 50.5,119.5 C 48.6644,121.588 46.3311,122.921 43.5,123.5C 45.3356,121.412 47.6689,120.079 50.5,119.5 Z"/></g>
<g><path style="opacity:1" fill="#6393f7" d="M 43.5,123.5 C 41.1568,125.672 38.4901,127.339 35.5,128.5C 35.5,127.5 35.5,126.5 35.5,125.5C 38.3274,125.416 40.994,124.75 43.5,123.5 Z"/></g>
<g><path style="opacity:1" fill="#f2efea" d="M 2.5,-0.5 C 3.5,-0.5 4.5,-0.5 5.5,-0.5C 5.33333,118.834 5.5,238.167 6,357.5C 6.60194,363.916 8.43528,369.916 11.5,375.5C 11.5912,377.698 10.9245,378.031 9.5,376.5C 5.47072,369.384 3.47072,361.717 3.5,353.5C 3.95219,348.002 3.28552,342.668 1.5,337.5C 2.49597,224.855 2.8293,112.188 2.5,-0.5 Z"/></g>
<g><path style="opacity:1" fill="#b4b9c2" d="M 220.5,128.5 C 223.598,128.413 223.932,128.913 221.5,130C 223.925,130.293 225.758,131.459 227,133.5C 227.783,131.567 227.283,130.067 225.5,129C 227.92,128.085 229.253,128.918 229.5,131.5C 229.566,133.266 228.732,134.266 227,134.5C 225.333,133.167 223.667,133.167 222,134.5C 220.743,134.15 220.409,133.483 221,132.5C 221.914,133.654 222.747,133.487 223.5,132C 222.552,131.517 221.552,131.351 220.5,131.5C 220.5,130.5 220.5,129.5 220.5,128.5 Z"/></g>
<g><path style="opacity:1" fill="#c3c7ce" d="M 231.5,128.5 C 233.484,128.383 235.15,129.05 236.5,130.5C 239.93,129.258 241.263,130.591 240.5,134.5C 237.654,133.905 234.654,133.905 231.5,134.5C 231.5,132.5 231.5,130.5 231.5,128.5 Z"/></g>
<g><path style="opacity:1" fill="#b8bcc5" d="M 231.5,147.5 C 233.582,147.472 235.416,148.139 237,149.5C 238.049,148.483 239.216,148.316 240.5,149C 238.009,149.626 238.009,150.459 240.5,151.5C 240.192,152.308 239.692,152.975 239,153.5C 237.989,152.663 236.822,152.33 235.5,152.5C 235.167,148.5 234.833,148.5 234.5,152.5C 233.5,152.5 232.5,152.5 231.5,152.5C 231.5,150.833 231.5,149.167 231.5,147.5 Z"/></g>
<g><path style="opacity:1" fill="#c9ccd3" d="M 222.5,146.5 C 223.75,146.577 224.583,147.244 225,148.5C 226.079,146.606 227.413,146.273 229,147.5C 230.023,152.618 228.523,153.951 224.5,151.5C 222.588,151.488 220.588,151.821 218.5,152.5C 217.643,151.264 216.977,149.931 216.5,148.5C 217.325,147.614 218.325,147.281 219.5,147.5C 220.193,150.967 221.193,150.634 222.5,146.5 Z"/></g>
<g><path style="opacity:1" fill="#bbbfc8" d="M 175.5,162.5 C 177.785,163.546 180.118,163.546 182.5,162.5C 182.5,164.5 182.5,166.5 182.5,168.5C 179.203,168.671 178.869,168.005 181.5,166.5C 179.693,165.201 178.027,165.368 176.5,167C 176.833,167.333 177.167,167.667 177.5,168C 174.029,168.687 173.695,167.687 176.5,165C 174.381,164.658 174.047,163.825 175.5,162.5 Z"/></g>
<g><path style="opacity:1" fill="#bcc0c8" d="M 208.5,162.5 C 209.756,162.461 210.756,162.961 211.5,164C 211.034,165.299 211.034,166.799 211.5,168.5C 209.508,168.672 207.842,168.005 206.5,166.5C 205.304,166.846 205.304,167.346 206.5,168C 205.167,168.667 203.833,168.667 202.5,168C 204.29,165.188 206.29,163.355 208.5,162.5 Z"/></g>
<g><path style="opacity:1" fill="#babfc7" d="M 61.5,162.5 C 63.5841,163.248 65.5841,163.248 67.5,162.5C 68.8333,164.5 68.8333,166.5 67.5,168.5C 67.0569,164.191 65.7236,163.691 63.5,167C 63.8333,167.333 64.1667,167.667 64.5,168C 63.365,168.749 62.365,168.583 61.5,167.5C 62.1667,166.5 62.8333,165.5 63.5,164.5C 63.1543,163.304 62.6543,163.304 62,164.5C 61.5357,163.906 61.369,163.239 61.5,162.5 Z"/></g>
<g><path style="opacity:1" fill="#aab0ba" d="M 152.5,162.5 C 153.234,163.878 153.901,165.378 154.5,167C 154,167.5 153.5,168 153,168.5C 150.595,168.036 148.095,167.869 145.5,168C 147.049,166.786 148.215,165.286 149,163.5C 149.333,164.5 149.667,165.5 150,166.5C 150.662,165.016 151.496,163.683 152.5,162.5 Z"/></g>
<g><path style="opacity:1" fill="#b6bbc4" d="M 85.5,193.5 C 88.9549,194.128 90.1215,196.128 89,199.5C 88.0514,195.622 86.8847,195.622 85.5,199.5C 84.2638,200.246 82.9305,200.579 81.5,200.5C 81.3398,198.801 81.5065,197.134 82,195.5C 82.3333,196.5 82.6667,197.5 83,198.5C 83.7848,196.751 84.6182,195.084 85.5,193.5 Z"/></g>
<g><path style="opacity:1" fill="#c5c9d0" d="M 40.5,193.5 C 42.8268,193.665 44.9935,194.331 47,195.5C 50.5183,195.447 54.0183,194.947 57.5,194C 61.0397,194.329 62.2064,196.162 61,199.5C 60.1932,195.551 59.6932,195.551 59.5,199.5C 56.4532,200.145 54.2865,199.145 53,196.5C 52.5172,197.448 52.3505,198.448 52.5,199.5C 50.8008,199.66 49.1341,199.494 47.5,199C 49.7947,198.016 49.4614,197.183 46.5,196.5C 44.5332,199.446 42.1999,199.946 39.5,198C 43.3762,198.349 43.3762,197.516 39.5,195.5C 39.8627,194.817 40.1961,194.15 40.5,193.5 Z"/></g>
<g><path style="opacity:1" fill="#d6e1f4" d="M 117.5,194.5 C 127.35,195.379 130.35,200.379 126.5,209.5C 120.217,214.148 115.05,213.148 111,206.5C 110.312,200.871 112.479,196.871 117.5,194.5 Z"/></g>
<g><path style="opacity:1" fill="#b9bec6" d="M 146.5,194.5 C 149.563,193.725 152.563,193.725 155.5,194.5C 156.5,195 157.5,195.5 158.5,196C 157.346,196.914 157.513,197.747 159,198.5C 159.483,197.552 159.649,196.552 159.5,195.5C 161.973,194.691 164.306,194.358 166.5,194.5C 167.631,196.074 167.798,197.741 167,199.5C 165.867,197.789 164.367,197.289 162.5,198C 163.167,198.333 163.833,198.667 164.5,199C 160.436,201.745 157.603,200.912 156,196.5C 155.517,197.448 155.351,198.448 155.5,199.5C 153.833,199.5 152.167,199.5 150.5,199.5C 150.323,192.866 149.823,192.866 149,199.5C 148.95,197.256 148.117,195.589 146.5,194.5 Z"/></g>
<g><path style="opacity:1" fill="#b6bbc4" d="M 169.5,193.5 C 170.458,193.953 171.292,194.619 172,195.5C 173.16,193.203 174.16,193.536 175,196.5C 175.359,193.456 176.026,193.122 177,195.5C 179.316,193.541 181.316,193.541 183,195.5C 184.011,194.663 185.178,194.33 186.5,194.5C 186.5,196.5 186.5,198.5 186.5,200.5C 182.663,200.438 179.163,199.438 176,197.5C 174.84,199.797 173.84,199.464 173,196.5C 172.751,197.624 172.251,198.624 171.5,199.5C 170.523,197.589 169.857,195.589 169.5,193.5 Z"/></g>
<g><path style="opacity:1" fill="#fde9d4" d="M 224.5,194.5 C 232.962,194.797 236.462,199.13 235,207.5C 229.667,214.167 224.333,214.167 219,207.5C 218.333,204.833 218.333,202.167 219,199.5C 220.73,197.598 222.563,195.931 224.5,194.5 Z"/></g>
<g><path style="opacity:1" fill="#b3b7c1" d="M 62.5,195.5 C 63.2679,196.263 63.7679,197.263 64,198.5C 64.2492,197.376 64.7492,196.376 65.5,195.5C 67.2518,198.833 66.2518,200.499 62.5,200.5C 62.5,198.833 62.5,197.167 62.5,195.5 Z"/></g>
<g><path style="opacity:1" fill="#b4b8c2" d="M 74.5,193.5 C 75.2216,193.918 75.7216,194.584 76,195.5C 77,194.167 78,194.167 79,195.5C 79.3333,194.833 79.6667,194.167 80,193.5C 80.6667,195.5 80.6667,197.5 80,199.5C 79.2747,197.842 78.108,197.342 76.5,198C 78.5951,198.556 78.7618,199.056 77,199.5C 76.0546,199.095 75.3879,198.428 75,197.5C 74.1072,198.711 73.2739,198.711 72.5,197.5C 73.1799,196.14 73.8466,194.807 74.5,193.5 Z"/></g>
<g><path style="opacity:0.129" fill="#c6c2be" d="M -0.5,-0.5 C 0.5,-0.5 1.5,-0.5 2.5,-0.5C 2.8293,112.188 2.49597,224.855 1.5,337.5C 3.28552,342.668 3.95219,348.002 3.5,353.5C 2.67526,349.353 2.17526,345.019 2,340.5C 1.50074,345.489 1.33407,350.489 1.5,355.5C 0.833333,268.5 0.166667,181.5 -0.5,94.5C -0.5,79.1667 -0.5,63.8333 -0.5,48.5C 0.833333,44.8333 0.833333,41.1667 -0.5,37.5C -0.5,24.8333 -0.5,12.1667 -0.5,-0.5 Z"/></g>
<g><path style="opacity:1" fill="#93b2e3" d="M 119.5,200.5 C 122.598,200.413 122.932,200.913 120.5,202C 123.167,202.667 123.167,203.333 120.5,204C 121.956,204.423 122.456,205.256 122,206.5C 120.355,206.307 118.521,206.14 116.5,206C 120.5,205.333 120.5,204.667 116.5,204C 120.5,203.333 120.5,202.667 116.5,202C 117.737,201.768 118.737,201.268 119.5,200.5 Z"/></g>
<g><path style="opacity:1" fill="#faad56" d="M 227.5,200.5 C 228.5,200.5 229.5,200.5 230.5,200.5C 229.052,206.969 228.052,206.969 227.5,200.5 Z"/></g>
<g><path style="opacity:1" fill="#faaa50" d="M 223.5,201.5 C 224.496,201.414 225.329,201.748 226,202.5C 226.798,204.259 226.631,205.926 225.5,207.5C 224.232,205.696 223.565,203.696 223.5,201.5 Z"/></g>
<g><path style="opacity:1" fill="#525362" d="M 45.5,205.5 C 46.7479,206.334 47.4146,207.667 47.5,209.5C 47.3333,210.833 47.1667,212.167 47,213.5C 46.6667,211.5 46.3333,209.5 46,207.5C 45.3457,208.696 44.8457,208.696 44.5,207.5C 44.8627,206.817 45.1961,206.15 45.5,205.5 Z"/></g>
<g><path style="opacity:1" fill="#626370" d="M 40.5,205.5 C 41.7479,206.334 42.4146,207.667 42.5,209.5C 42.3333,210.833 42.1667,212.167 42,213.5C 41.6667,211.5 41.3333,209.5 41,207.5C 40.3457,208.696 39.8457,208.696 39.5,207.5C 39.8627,206.817 40.1961,206.15 40.5,205.5 Z"/></g>
<g><path style="opacity:1" fill="#888993" d="M 58.5,205.5 C 60.1992,205.34 61.8659,205.506 63.5,206C 59.7324,207.177 59.8991,208.344 64,209.5C 64.3076,213.367 62.6409,214.367 59,212.5C 58.5034,210.19 58.3367,207.857 58.5,205.5 Z"/></g>
<g><path style="opacity:1" fill="#868791" d="M 148.5,205.5 C 149.748,206.334 150.415,207.667 150.5,209.5C 150.167,210.833 149.833,212.167 149.5,213.5C 148.25,210.728 147.917,208.061 148.5,205.5 Z"/></g>
<g><path style="opacity:1" fill="#727480" d="M 53.5,206.5 C 54.6225,208.288 54.7891,210.288 54,212.5C 52.6667,213.833 51.3333,213.833 50,212.5C 50.0464,210.687 49.8797,209.021 49.5,207.5C 50.5739,205.466 51.9073,205.133 53.5,206.5 Z"/></g>
<g><path style="opacity:1" fill="#ebebed" d="M 53.5,206.5 C 53.3605,208.337 52.6939,208.67 51.5,207.5C 51.9569,206.702 52.6236,206.369 53.5,206.5 Z"/></g>
<g><path style="opacity:1" fill="#efeff0" d="M 59.5,209.5 C 60.5,209.5 61.5,209.5 62.5,209.5C 61.7542,213.31 60.7542,213.31 59.5,209.5 Z"/></g>
<g><path style="opacity:1" fill="#bfc2c9" d="M 69.5,208.5 C 72.1044,210.215 74.7711,211.048 77.5,211C 77.9426,212.518 77.2759,213.685 75.5,214.5C 73.5841,213.752 71.5841,213.752 69.5,214.5C 69.5,212.5 69.5,210.5 69.5,208.5 Z"/></g>
<g><path style="opacity:1" fill="#696a77" d="M 159.5,206.5 C 160.542,205.209 161.708,205.209 163,206.5C 163.758,208.769 163.591,210.936 162.5,213C 160.926,213.699 159.593,213.365 158.5,212C 160.095,212.617 161.428,212.284 162.5,211C 161.5,210.667 160.5,210.333 159.5,210C 163.445,208.591 163.445,207.425 159.5,206.5 Z"/></g>
<g><path style="opacity:1" fill="#82838d" d="M 168.5,205.5 C 172.82,205.959 173.487,207.792 170.5,211C 173.23,212.232 173.063,213.065 170,213.5C 169.167,213.167 168.333,212.833 167.5,212.5C 168.648,210.851 169.981,209.351 171.5,208C 170.251,206.176 169.085,206.343 168,208.5C 167.53,207.423 167.697,206.423 168.5,205.5 Z"/></g>
<g><path style="opacity:1" fill="#858691" d="M 152.5,205.5 C 153.833,205.5 155.167,205.5 156.5,205.5C 156.318,207.591 156.652,209.591 157.5,211.5C 157,212.881 156,213.547 154.5,213.5C 152.734,213.566 151.734,212.732 151.5,211C 151.708,209.189 152.041,207.356 152.5,205.5 Z"/></g>
<g><path style="opacity:1" fill="#f7f7f8" d="M 153.5,206.5 C 155.337,206.639 155.67,207.306 154.5,208.5C 153.702,208.043 153.369,207.376 153.5,206.5 Z"/></g>
<g><path style="opacity:0.184" fill="#d7d5d2" d="M 272.5,-0.5 C 272.833,-0.5 273.167,-0.5 273.5,-0.5C 273.173,8.68218 273.507,17.6822 274.5,26.5C 274.5,47.5 274.5,68.5 274.5,89.5C 273.501,171.332 273.167,253.332 273.5,335.5C 273.167,335.5 272.833,335.5 272.5,335.5C 272.5,223.5 272.5,111.5 272.5,-0.5 Z"/></g>
<g><path style="opacity:1" fill="#fdfdfd" d="M 249.5,358.5 C 246.615,358.806 243.948,358.473 241.5,357.5C 241.784,354.223 241.451,351.057 240.5,348C 214.835,347.5 189.169,347.333 163.5,347.5C 154.833,347.5 146.167,347.5 137.5,347.5C 128.167,347.5 118.833,347.5 109.5,347.5C 84.1645,347.333 58.8311,347.5 33.5,348C 32.5495,351.057 32.2161,354.223 32.5,357.5C 29.7131,358.477 26.7131,358.81 23.5,358.5C 23.5,323.5 23.5,288.5 23.5,253.5C 23.7438,250.737 25.0771,248.571 27.5,247C 100.167,246.333 172.833,246.333 245.5,247C 247.286,247.785 248.786,248.951 250,250.5C 250.831,286.669 250.664,322.669 249.5,358.5 Z"/></g>
<g><path style="opacity:1" fill="#8c816f" d="M 270.5,-0.5 C 271.167,-0.5 271.833,-0.5 272.5,-0.5C 272.5,111.5 272.5,223.5 272.5,335.5C 270.502,223.838 269.835,111.838 270.5,-0.5 Z"/></g>
<g><path style="opacity:1" fill="#8b8c96" d="M 57.5,256.5 C 59.045,257.23 59.8784,258.563 60,260.5C 61.6667,257.833 63.3333,257.833 65,260.5C 66.6884,258.152 68.5217,257.985 70.5,260C 66.6238,259.651 66.6238,260.484 70.5,262.5C 70.3333,262.833 70.1667,263.167 70,263.5C 66.2036,263.902 62.3702,264.236 58.5,264.5C 57.1667,259.167 55.8333,259.167 54.5,264.5C 51.8333,264.5 49.1667,264.5 46.5,264.5C 45.1667,262.167 45.1667,259.833 46.5,257.5C 47.2508,258.376 47.7508,259.376 48,260.5C 48.6891,259.643 49.5224,258.977 50.5,258.5C 53.5007,259.83 55.834,259.164 57.5,256.5 Z"/></g>
<g><path style="opacity:1" fill="#6b6c79" d="M 34.5,256.5 C 36.6807,256.284 38.3474,257.117 39.5,259C 37.8925,258.981 36.2259,258.815 34.5,258.5C 34.1159,260.665 34.7826,262.332 36.5,263.5C 38.7954,262.568 41.1287,261.735 43.5,261C 39.7297,260.116 39.7297,259.449 43.5,259C 44.4061,260.699 44.7394,262.533 44.5,264.5C 40.8287,263.855 37.162,263.522 33.5,263.5C 32.073,260.884 32.4063,258.551 34.5,256.5 Z"/></g>
<g><path style="opacity:1" fill="#f2efea" d="M 268.5,-0.5 C 269.167,-0.5 269.833,-0.5 270.5,-0.5C 269.835,111.838 270.502,223.838 272.5,335.5C 272.833,335.5 273.167,335.5 273.5,335.5C 273.824,342.354 273.491,349.021 272.5,355.5C 272.828,350.125 272.495,344.792 271.5,339.5C 270.801,346.889 270.135,354.222 269.5,361.5C 268.532,359.393 268.198,357.059 268.5,354.5C 268.5,236.167 268.5,117.833 268.5,-0.5 Z"/></g>
<g><path style="opacity:1" fill="#b8bcc4" d="M 97.5,273.5 C 98.7498,273.577 99.5831,274.244 100,275.5C 102.333,274.833 104.667,274.167 107,273.5C 107.667,275.167 107.667,276.833 107,278.5C 106.193,274.551 105.693,274.551 105.5,278.5C 100.252,279.11 94.9183,279.11 89.5,278.5C 89.33,277.178 89.6634,276.011 90.5,275C 92.7695,274.242 94.9361,274.409 97,275.5C 97.4643,274.906 97.631,274.239 97.5,273.5 Z"/></g>
<g><path style="opacity:1" fill="#9a9eab" d="M 51.5,273.5 C 52.6129,274.946 52.7796,276.613 52,278.5C 51.3333,274.5 50.6667,274.5 50,278.5C 48.8861,274.544 48.0527,274.544 47.5,278.5C 43.4621,280.302 41.9621,278.969 43,274.5C 43.8068,278.449 44.3068,278.449 44.5,274.5C 47.0593,274.802 49.3926,274.468 51.5,273.5 Z"/></g>
<g><path style="opacity:1" fill="#adb1bb" d="M 57.5,274.5 C 59.6752,274.605 61.8419,274.605 64,274.5C 64.8068,278.449 65.3068,278.449 65.5,274.5C 67.1992,274.34 68.8659,274.506 70.5,275C 69.0267,275.71 68.3601,276.876 68.5,278.5C 66.0421,279.623 63.8754,279.623 62,278.5C 61.3333,274.5 60.6667,274.5 60,278.5C 58.2942,277.692 57.4609,276.359 57.5,274.5 Z"/></g>
<g><path style="opacity:1" fill="#b1b5bf" d="M 32.5,274.5 C 33.404,275.209 33.7373,276.209 33.5,277.5C 36.1667,276.5 38.8333,275.5 41.5,274.5C 41.5432,278.893 41.0432,279.226 40,275.5C 39.5172,276.448 39.3505,277.448 39.5,278.5C 37.4884,279.014 35.4884,279.18 33.5,279C 32.6198,277.644 32.2865,276.144 32.5,274.5 Z"/></g>
<g><path style="opacity:1" fill="#b3b6c0" d="M 108.5,274.5 C 110.821,275.625 113.154,275.792 115.5,275C 114.833,275.333 114.167,275.667 113.5,276C 115.405,276.826 115.739,277.993 114.5,279.5C 113.167,278.167 111.833,278.167 110.5,279.5C 108.783,278.332 108.116,276.665 108.5,274.5 Z"/></g>
<g><path style="opacity:1" fill="#c0c3cb" d="M 74.5,273.5 C 76.4412,273.869 78.2745,274.536 80,275.5C 80.3333,274.833 80.6667,274.167 81,273.5C 81.4935,275.134 81.6602,276.801 81.5,278.5C 78.5314,279.329 75.5314,279.495 72.5,279C 71.0804,276.426 71.747,274.593 74.5,273.5 Z"/></g>
<g><path style="opacity:1" fill="#a5a9b4" d="M 82.5,273.5 C 84.1132,273.944 85.2798,274.944 86,276.5C 86.3333,275.833 86.6667,275.167 87,274.5C 87.5205,276.289 87.1871,277.956 86,279.5C 85.0853,278.672 84.4186,277.672 84,276.5C 83.6667,277.167 83.3333,277.833 83,278.5C 82.5065,276.866 82.3398,275.199 82.5,273.5 Z"/></g>
<g><path style="opacity:1" fill="#b2b5bf" d="M 45.5,297.5 C 46.9311,297.881 47.7645,298.881 48,300.5C 49.3561,299.62 50.8561,299.286 52.5,299.5C 52.5,301.167 52.5,302.833 52.5,304.5C 50.4086,304.318 48.4086,304.652 46.5,305.5C 45.52,302.914 45.1866,300.247 45.5,297.5 Z"/></g>
<g><path style="opacity:1" fill="#a8acb7" d="M 59.5,299.5 C 62.5464,300.394 65.5464,300.561 68.5,300C 67.8333,300.333 67.1667,300.667 66.5,301C 70.1322,302.373 70.2988,303.873 67,305.5C 64.5661,304.678 62.0661,304.344 59.5,304.5C 59.5,302.833 59.5,301.167 59.5,299.5 Z"/></g>
<g><path style="opacity:1" fill="#858a99" d="M 87.5,298.5 C 88.2891,298.783 88.9558,299.283 89.5,300C 88.7734,301.399 88.2734,302.899 88,304.5C 87.0913,302.342 86.9246,300.342 87.5,298.5 Z"/></g>
<g><path style="opacity:1" fill="#868c9b" d="M 72.5,297.5 C 73.4614,299.265 73.7947,301.265 73.5,303.5C 74.8333,303.5 76.1667,303.5 77.5,303.5C 77.33,302.178 77.6634,301.011 78.5,300C 80.7801,299.788 82.7801,298.955 84.5,297.5C 85.2058,299.766 85.0391,302.099 84,304.5C 83.6667,303.167 83.3333,301.833 83,300.5C 81.9025,301.967 80.4025,302.801 78.5,303C 79.8333,303.333 81.1667,303.667 82.5,304C 79.1832,304.498 75.8499,304.665 72.5,304.5C 72.5,302.167 72.5,299.833 72.5,297.5 Z"/></g>
<g><path style="opacity:1" fill="#9398a5" d="M 32.5,299.5 C 33.0627,301.32 34.2294,302.653 36,303.5C 38.5,302.667 41,301.833 43.5,301C 39.7741,299.957 40.1074,299.457 44.5,299.5C 44.9231,302.288 43.9231,304.288 41.5,305.5C 40.5224,305.023 39.6891,304.357 39,303.5C 34.5519,305.661 32.3852,304.328 32.5,299.5 Z"/></g>
<g><path style="opacity:1" fill="#b7bbc5" d="M 228.5,313.5 C 229.484,310.93 230.651,310.93 232,313.5C 234.204,313.091 236.37,312.758 238.5,312.5C 241.427,313.188 242.094,314.855 240.5,317.5C 239.518,312.298 238.352,312.298 237,317.5C 234.87,317.413 232.703,317.413 230.5,317.5C 229.828,316.051 229.161,314.718 228.5,313.5 Z"/></g>
<g><path style="opacity:1" fill="#a0a5b2" d="M 219.5,310.5 C 224.041,310.331 224.374,310.998 220.5,312.5C 221.376,313.251 222.376,313.751 223.5,314C 219.5,315 219.5,316 223.5,317C 222.207,317.49 220.873,317.657 219.5,317.5C 219.5,315.167 219.5,312.833 219.5,310.5 Z"/></g>
<g><path style="opacity:1" fill="#acb1bc" d="M 228.5,313.5 C 228.5,314.833 228.5,316.167 228.5,317.5C 227.167,317.5 225.833,317.5 224.5,317.5C 224.5,315.833 224.5,314.167 224.5,312.5C 225.959,312.433 227.292,312.766 228.5,313.5 Z"/></g>
<g><path style="opacity:1" fill="#3b3d4d" d="M 36.5,316.5 C 37.5,316.5 38.5,316.5 39.5,316.5C 39.8275,321.544 39.4941,326.544 38.5,331.5C 37.8333,327.5 37.1667,323.5 36.5,319.5C 35.3914,320.59 34.3914,320.59 33.5,319.5C 34.3398,318.265 35.3398,317.265 36.5,316.5 Z"/></g>
<g><path style="opacity:1" fill="#444555" d="M 47.5,316.5 C 50.8333,316.5 54.1667,316.5 57.5,316.5C 56.5274,321.454 54.6941,326.121 52,330.5C 50.9505,331.517 49.7839,331.684 48.5,331C 50.6453,326.907 52.9786,322.907 55.5,319C 52.3248,319.053 49.6581,318.22 47.5,316.5 Z"/></g>
<g><path style="opacity:1" fill="#3c3e4e" d="M 78.5,316.5 C 79.8333,316.5 81.1667,316.5 82.5,316.5C 82.0211,320.434 82.6878,324.101 84.5,327.5C 83.3539,328.719 82.3539,330.052 81.5,331.5C 80.6143,330.675 80.281,329.675 80.5,328.5C 78.1667,328.5 75.8333,328.5 73.5,328.5C 73.3433,327.127 73.51,325.793 74,324.5C 75.3557,321.671 76.8557,319.004 78.5,316.5 Z"/></g>
<g><path style="opacity:1" fill="#363949" d="M 113.5,316.5 C 114.809,318.571 115.475,321.071 115.5,324C 115.167,326.5 114.833,329 114.5,331.5C 113.506,326.544 113.173,321.544 113.5,316.5 Z"/></g>
<g><path style="opacity:1" fill="#494b5b" d="M 92.5,320.5 C 95.3646,320.055 97.8646,320.722 100,322.5C 100.591,323.483 100.257,324.15 99,324.5C 97.4029,323.115 95.5695,322.449 93.5,322.5C 93.5,324.833 93.5,327.167 93.5,329.5C 95.5695,329.551 97.4029,328.885 99,327.5C 100.726,328.648 100.559,329.815 98.5,331C 93.2481,332.856 90.5814,331.022 90.5,325.5C 90.4365,323.486 91.1032,321.819 92.5,320.5 Z"/></g>
<g><path style="opacity:1" fill="#4c4e5d" d="M 103.5,320.5 C 106.365,320.055 108.865,320.722 111,322.5C 111.498,325.482 111.665,328.482 111.5,331.5C 108.397,331.33 105.23,330.996 102,330.5C 101.333,329.167 101.333,327.833 102,326.5C 104.052,325.277 106.219,324.277 108.5,323.5C 106.865,322.319 105.198,322.319 103.5,323.5C 102.438,322.575 102.438,321.575 103.5,320.5 Z"/></g>
<g><path style="opacity:1" fill="#f0f0f2" d="M 79.5,319.5 C 80.4682,321.607 80.8016,323.941 80.5,326.5C 78.8008,326.66 77.1341,326.494 75.5,326C 76.719,323.722 78.0523,321.555 79.5,319.5 Z"/></g>
<g><path style="opacity:1" fill="#474958" d="M 62.5,316.5 C 68.4434,315.281 70.7768,317.447 69.5,323C 73.0902,328.445 71.5902,331.278 65,331.5C 59.3327,330.841 58.166,328.174 61.5,323.5C 60.073,320.884 60.4063,318.551 62.5,316.5 Z"/></g>
<g><path style="opacity:1" fill="#f0f0f1" d="M 63.5,318.5 C 64.8333,318.5 66.1667,318.5 67.5,318.5C 67.5,319.833 67.5,321.167 67.5,322.5C 63.56,323.234 62.2266,321.901 63.5,318.5 Z"/></g>
<g><path style="opacity:1" fill="#414253" d="M 195.5,324.5 C 196.5,324.5 197.5,324.5 198.5,324.5C 198.664,327.187 198.497,329.854 198,332.5C 197.667,330.167 197.333,327.833 197,325.5C 195.893,326.712 195.393,326.379 195.5,324.5 Z"/></g>
<g><path style="opacity:1" fill="#efeff0" d="M 63.5,324.5 C 67.1378,323.737 68.6378,325.07 68,328.5C 63.4155,330.413 61.9155,329.079 63.5,324.5 Z"/></g>
<g><path style="opacity:1" fill="#f3f3f4" d="M 104.5,326.5 C 105.978,326.238 107.311,326.571 108.5,327.5C 107.68,329.111 106.346,329.778 104.5,329.5C 104.5,328.5 104.5,327.5 104.5,326.5 Z"/></g>
<g><path style="opacity:1" fill="#646573" d="M 205.5,323.5 C 207.384,323.712 208.717,324.712 209.5,326.5C 208.352,328.149 207.019,329.649 205.5,331C 206.833,331.333 208.167,331.667 209.5,332C 207.5,332.667 205.5,332.667 203.5,332C 204.64,330.027 205.973,328.193 207.5,326.5C 206.349,325.269 205.183,325.269 204,326.5C 203.761,325.212 204.261,324.212 205.5,323.5 Z"/></g>
<g><path style="opacity:1" fill="#6a6b78" d="M 219.5,323.5 C 221.635,323.147 222.968,323.98 223.5,326C 223.026,327.704 222.859,329.538 223,331.5C 221.035,332.885 219.202,332.718 217.5,331C 218.549,330.508 219.549,330.674 220.5,331.5C 222.946,330.017 222.612,328.851 219.5,328C 220.308,327.692 220.975,327.192 221.5,326.5C 220.02,325.887 218.687,325.554 217.5,325.5C 218.243,324.818 218.909,324.151 219.5,323.5 Z"/></g>
<g><path style="opacity:1" fill="#636472" d="M 233.5,326.5 C 237.908,326.062 239.575,328.062 238.5,332.5C 236.833,332.5 235.167,332.5 233.5,332.5C 233.329,329.203 233.995,328.869 235.5,331.5C 236.833,330.167 236.833,328.833 235.5,327.5C 234.056,328.981 233.389,328.648 233.5,326.5 Z"/></g>
<g><path style="opacity:1" fill="#434555" d="M 43.5,329.5 C 45.9725,330.749 46.1391,332.415 44,334.5C 43.5065,332.866 43.3398,331.199 43.5,329.5 Z"/></g>
<g><path style="opacity:1" fill="#515362" d="M 212.5,326.5 C 212.415,325.005 213.081,324.005 214.5,323.5C 215.221,325.686 215.887,327.853 216.5,330C 215.874,330.75 215.374,331.584 215,332.5C 213.951,330.893 212.451,330.227 210.5,330.5C 210.229,328.62 210.896,327.287 212.5,326.5 Z"/></g>
<g><path style="opacity:1" fill="#d2d2d6" d="M 212.5,326.5 C 213.117,326.389 213.617,326.056 214,325.5C 214.49,326.793 214.657,328.127 214.5,329.5C 213.448,329.649 212.448,329.483 211.5,329C 212.252,328.329 212.586,327.496 212.5,326.5 Z"/></g>
<g><path style="opacity:1" fill="#5b5c6b" d="M 227.5,326.5 C 229.429,326.231 231.095,326.731 232.5,328C 231.451,328.492 230.451,328.326 229.5,327.5C 228.167,328.833 228.167,330.167 229.5,331.5C 230.451,330.674 231.451,330.508 232.5,331C 231.095,332.269 229.429,332.769 227.5,332.5C 227.5,330.5 227.5,328.5 227.5,326.5 Z"/></g>
<g><path style="opacity:1" fill="#4c94fe" d="M 109.5,347.5 C 110.414,350.728 110.747,354.061 110.5,357.5C 84.5,357.5 58.5,357.5 32.5,357.5C 32.2161,354.223 32.5495,351.057 33.5,348C 58.8311,347.5 84.1645,347.333 109.5,347.5 Z"/></g>
<g><path style="opacity:1" fill="#fec974" d="M 109.5,347.5 C 118.833,347.5 128.167,347.5 137.5,347.5C 139.299,350.505 139.966,353.838 139.5,357.5C 129.833,357.5 120.167,357.5 110.5,357.5C 110.747,354.061 110.414,350.728 109.5,347.5 Z"/></g>
<g><path style="opacity:1" fill="#f98869" d="M 137.5,347.5 C 146.167,347.5 154.833,347.5 163.5,347.5C 164.324,350.764 164.658,354.098 164.5,357.5C 156.167,357.5 147.833,357.5 139.5,357.5C 139.966,353.838 139.299,350.505 137.5,347.5 Z"/></g>
<g><path style="opacity:1" fill="#eaecee" d="M 163.5,347.5 C 189.169,347.333 214.835,347.5 240.5,348C 241.451,351.057 241.784,354.223 241.5,357.5C 215.833,357.5 190.167,357.5 164.5,357.5C 164.658,354.098 164.324,350.764 163.5,347.5 Z"/></g>
<g><path style="opacity:0.402" fill="#9d9995" d="M 3.5,353.5 C 3.47072,361.717 5.47072,369.384 9.5,376.5C 10.0722,378.255 10.9055,379.922 12,381.5C 15.0379,384.369 17.8712,387.369 20.5,390.5C 19.2113,391.501 17.8779,391.334 16.5,390C 16.8333,389.667 17.1667,389.333 17.5,389C 15.6667,387.167 13.8333,385.333 12,383.5C 11.6667,383.833 11.3333,384.167 11,384.5C 9.5,382.333 8,380.167 6.5,378C 6.83333,377.667 7.16667,377.333 7.5,377C 4.87583,376.424 4.20916,375.09 5.5,373C 3.69923,372.683 3.36589,372.016 4.5,371C 2.43107,370.676 2.09773,369.842 3.5,368.5C 3.02335,367.522 2.35668,366.689 1.5,366C 1.74606,362.651 1.74606,359.151 1.5,355.5C 1.33407,350.489 1.50074,345.489 2,340.5C 2.17526,345.019 2.67526,349.353 3.5,353.5 Z"/></g>
<g><path style="opacity:0.996" fill="#928b81" d="M 272.5,355.5 C 272.177,359.457 272.177,363.29 272.5,367C 270.431,367.324 270.098,368.158 271.5,369.5C 270.438,370.77 269.438,371.937 268.5,373C 269.315,375.877 268.315,378.044 265.5,379.5C 264.167,379.833 264.167,380.167 265.5,380.5C 265.068,381.71 264.401,382.71 263.5,383.5C 263.5,383.167 263.5,382.833 263.5,382.5C 262.527,380.932 262.36,379.265 263,377.5C 266.556,372.722 268.723,367.389 269.5,361.5C 270.135,354.222 270.801,346.889 271.5,339.5C 272.495,344.792 272.828,350.125 272.5,355.5 Z"/></g>
<g><path style="opacity:1" fill="#f3f5f6" d="M 23.5,253.5 C 23.5,288.5 23.5,323.5 23.5,358.5C 26.7131,358.81 29.7131,358.477 32.5,357.5C 58.5,357.5 84.5,357.5 110.5,357.5C 120.167,357.5 129.833,357.5 139.5,357.5C 147.833,357.5 156.167,357.5 164.5,357.5C 190.167,357.5 215.833,357.5 241.5,357.5C 243.948,358.473 246.615,358.806 249.5,358.5C 248.87,365.779 248.87,373.112 249.5,380.5C 245.399,384.735 240.399,387.568 234.5,389C 227.842,389.5 221.175,389.666 214.5,389.5C 162.833,389.5 111.167,389.5 59.5,389.5C 52.4921,389.666 45.4921,389.5 38.5,389C 31.9355,387.228 26.6021,383.728 22.5,378.5C 22.168,336.663 22.5014,294.997 23.5,253.5 Z"/></g>
<g><path style="opacity:0.008" fill="#000000" d="M 265.5,379.5 C 266.833,380.167 266.833,380.167 265.5,379.5 Z"/></g>
<g><path style="opacity:1" fill="#d5d7da" d="M 112.5,381.5 C 106.158,381.334 99.8246,381.5 93.5,382C 92.4019,382.77 92.4019,383.603 93.5,384.5C 90.6029,384.681 87.7695,384.348 85,383.5C 83.6667,384.167 82.3333,384.833 81,385.5C 79.9079,384.704 78.7412,384.037 77.5,383.5C 67.528,384.618 57.528,384.784 47.5,384C 45.2936,381.791 44.9602,379.291 46.5,376.5C 51.8181,376.35 57.1514,376.016 62.5,375.5C 64.5522,376.512 66.7188,377.179 69,377.5C 75.8061,377.492 82.6394,377.158 89.5,376.5C 97.1226,377.648 104.789,378.314 112.5,378.5C 112.5,379.5 112.5,380.5 112.5,381.5 Z"/></g>
<g><path style="opacity:1" fill="#303030" d="M 112.5,381.5 C 135.5,381.5 158.5,381.5 181.5,381.5C 181.5,382.5 181.5,383.5 181.5,384.5C 152.167,384.5 122.833,384.5 93.5,384.5C 92.4019,383.603 92.4019,382.77 93.5,382C 99.8246,381.5 106.158,381.334 112.5,381.5 Z"/></g>
<g><path style="opacity:0.008" fill="#000000" d="M 262.5,383.5 C 262.833,383.5 263.167,383.5 263.5,383.5C 263.315,384.17 262.981,384.17 262.5,383.5 Z"/></g>
<g><path style="opacity:0.016" fill="#000000" d="M 261.5,384.5 C 261.833,384.5 262.167,384.5 262.5,384.5C 262.315,385.17 261.981,385.17 261.5,384.5 Z"/></g>
<g><path style="opacity:0.016" fill="#000000" d="M 260.5,385.5 C 260.833,385.5 261.167,385.5 261.5,385.5C 261.315,386.17 260.981,386.17 260.5,385.5 Z"/></g>
<g><path style="opacity:0.016" fill="#000000" d="M 259.5,386.5 C 259.833,386.5 260.167,386.5 260.5,386.5C 260.315,387.17 259.981,387.17 259.5,386.5 Z"/></g>
<g><path style="opacity:0.016" fill="#000000" d="M 258.5,387.5 C 258.833,387.5 259.167,387.5 259.5,387.5C 259.315,388.17 258.981,388.17 258.5,387.5 Z"/></g>
<g><path style="opacity:1" fill="#dbd6cd" d="M 268.5,354.5 C 268.198,357.059 268.532,359.393 269.5,361.5C 268.723,367.389 266.556,372.722 263,377.5C 262.36,379.265 262.527,380.932 263.5,382.5C 262.833,382.5 262.5,382.833 262.5,383.5C 261.833,383.5 261.5,383.833 261.5,384.5C 260.833,384.5 260.5,384.833 260.5,385.5C 259.833,385.5 259.5,385.833 259.5,386.5C 258.833,386.5 258.5,386.833 258.5,387.5C 257.833,387.5 257.5,387.833 257.5,388.5C 256.833,388.5 256.5,388.833 256.5,389.5C 255.833,389.5 255.5,389.833 255.5,390.5C 254.167,390.5 252.833,390.5 251.5,390.5C 251.5,391.5 251.5,392.5 251.5,393.5C 248.481,395.38 245.481,397.047 242.5,398.5C 240.009,397.706 237.676,398.039 235.5,399.5C 177.833,399.5 120.167,399.5 62.5,399.5C 118.665,398.667 174.999,398.167 231.5,398C 237.148,397.34 242.481,395.673 247.5,393C 243.259,393.959 238.926,394.959 234.5,396C 176.999,396.832 119.665,396.665 62.5,395.5C 120.188,395.959 177.855,395.459 235.5,394C 255.573,388.326 266.573,375.159 268.5,354.5 Z"/></g>
<g><path style="opacity:0.012" fill="#000000" d="M 257.5,388.5 C 257.833,388.5 258.167,388.5 258.5,388.5C 258.315,389.17 257.981,389.17 257.5,388.5 Z"/></g>
<g><path style="opacity:0.008" fill="#000000" d="M 256.5,389.5 C 256.833,389.5 257.167,389.5 257.5,389.5C 257.315,390.17 256.981,390.17 256.5,389.5 Z"/></g>
<g><path style="opacity:0.851" fill="#696764" d="M 255.5,390.5 C 255.833,390.5 256.167,390.5 256.5,390.5C 255.101,391.89 253.434,392.89 251.5,393.5C 251.5,392.5 251.5,391.5 251.5,390.5C 252.833,390.5 254.167,390.5 255.5,390.5 Z"/></g>
<g><path style="opacity:0.012" fill="#000000" d="M 22.5,393.5 C 22.8333,393.5 23.1667,393.5 23.5,393.5C 23.3147,394.17 22.9813,394.17 22.5,393.5 Z"/></g>
<g><path style="opacity:1" fill="#dcd8d0" d="M 11.5,375.5 C 22.8035,390.806 38.1368,397.473 57.5,395.5C 54.6862,396.165 51.6862,396.498 48.5,396.5C 41.6681,396.361 35.0015,395.528 28.5,394C 32.6457,395.937 36.979,397.271 41.5,398C 47.0158,398.173 52.3491,398.673 57.5,399.5C 51.1667,399.5 44.8333,399.5 38.5,399.5C 36.4006,398.388 34.0673,397.721 31.5,397.5C 30.8106,396.226 29.9772,396.226 29,397.5C 28.6827,395.699 28.016,395.366 27,396.5C 25.8446,395.662 24.6779,394.662 23.5,393.5C 23.1667,392.167 22.8333,392.167 22.5,393.5C 21.7611,393.631 21.0944,393.464 20.5,393C 21.5981,392.23 21.5981,391.397 20.5,390.5C 17.8712,387.369 15.0379,384.369 12,381.5C 10.9055,379.922 10.0722,378.255 9.5,376.5C 10.9245,378.031 11.5912,377.698 11.5,375.5 Z"/></g>
<g><path style="opacity:0.004" fill="#000000" d="M 31.5,397.5 C 30.8333,398.167 30.8333,398.167 31.5,397.5 Z"/></g>
<g><path style="opacity:1" fill="#f5f3ee" d="M 62.5,399.5 C 60.8333,399.5 59.1667,399.5 57.5,399.5C 52.3491,398.673 47.0158,398.173 41.5,398C 36.979,397.271 32.6457,395.937 28.5,394C 35.0015,395.528 41.6681,396.361 48.5,396.5C 51.6862,396.498 54.6862,396.165 57.5,395.5C 59.1667,395.5 60.8333,395.5 62.5,395.5C 119.665,396.665 176.999,396.832 234.5,396C 238.926,394.959 243.259,393.959 247.5,393C 242.481,395.673 237.148,397.34 231.5,398C 174.999,398.167 118.665,398.667 62.5,399.5 Z"/></g>
</svg>
