<svg width="137" height="32" viewBox="0 0 137 32" fill="none" xmlns="http://www.w3.org/2000/svg">
<g clip-path="url(#clip0_625_332)">
<path d="M0 26.4024L3.60474 20.0024H9.58289C13.5054 20.0024 16.8219 22.9707 17.3403 26.9452L18 32.0024H10.1739L9.04578 29.3116C8.30583 27.5468 6.60818 26.4024 4.72979 26.4024H0Z" fill="#23A605"/>
<path d="M36 26.4024L32.3952 20.0024H26.4171C22.4946 20.0024 19.1781 22.9707 18.6597 26.9452L18 32.0024H25.8261L26.9542 29.3116C27.6942 27.5468 29.3918 26.4024 31.2702 26.4024H36Z" fill="#23A605"/>
<path d="M3.60437 20.0024L14.8691 0.00244141H17.9996L17.6891 7.62168C17.4211 14.1949 12.3222 19.4901 5.89687 19.8677L3.60437 20.0024Z" fill="#23A605"/>
<path d="M32.3952 20.0024L21.1305 0.00244141H18L18.3105 7.62168C18.5785 14.1949 23.6774 19.4901 30.1027 19.8677L32.3952 20.0024Z" fill="#23A605"/>
</g>
<path d="M56.82 26H49.68V6.4H56.82C62.924 6.4 66.984 10.404 66.984 16.172C66.984 21.912 62.924 26 56.82 26ZM53.88 9.9V22.5H56.82C60.572 22.5 62.672 19.896 62.672 16.172C62.672 12.42 60.572 9.9 56.82 9.9H53.88ZM70.9316 10.068C69.6436 10.068 68.6356 9.116 68.6356 7.856C68.6356 6.568 69.6436 5.616 70.9316 5.616C72.2196 5.616 73.2276 6.568 73.2276 7.856C73.2276 9.116 72.2196 10.068 70.9316 10.068ZM68.9436 26V11.608H72.9196V26H68.9436ZM82.4748 26.168C77.6868 26.168 74.8028 23.284 74.8028 18.832C74.8028 14.352 77.7428 11.44 82.1948 11.44C86.5068 11.44 89.4188 14.128 89.4748 18.356C89.4748 18.776 89.4468 19.252 89.3628 19.7H78.9188V19.896C79.0028 21.94 80.3188 23.172 82.3068 23.172C83.9028 23.172 85.0228 22.472 85.3588 21.128H89.2508C88.8028 23.928 86.3108 26.168 82.4748 26.168ZM79.0028 17.124H85.4988C85.2188 15.36 84.0148 14.38 82.2228 14.38C80.5148 14.38 79.2268 15.416 79.0028 17.124ZM92.3336 21.884V14.94H89.9536V11.608H92.3336V7.576H96.2816V11.608H99.5856V14.94H96.2816V21.24C96.2816 22.248 96.6736 22.668 97.7096 22.668H99.6696V26H96.4496C93.7056 26 92.3336 24.628 92.3336 21.884ZM110.962 26H106.622L113.79 6.4H118.83L125.942 26H121.434L119.922 21.716H112.474L110.962 26ZM116.17 10.88L113.594 18.328H118.774L116.17 10.88ZM127.461 26V6.4H131.661V26H127.461Z" fill="#37394A"/>
<defs>
<clipPath id="clip0_625_332">
<rect width="36" height="32" fill="white"/>
</clipPath>
</defs>
</svg>
