<svg width="35" height="35" viewBox="0 0 35 35" fill="none" xmlns="http://www.w3.org/2000/svg">
<path d="M3.33947 29.644C4.93727 31.9296 11.8923 33.724 15.1771 29.4449C18.7301 31.1443 24.5903 30.6175 29.3615 27.9569C30.025 27.587 30.6527 27.1199 31.0371 26.4646C31.9049 24.9852 31.9254 22.9326 30.3423 19.904C27.7027 13.3149 22.9554 7.53096 21.0387 5.20497C20.6451 4.84614 18.1345 4.33653 16.6034 3.84686C15.9272 3.63731 14.6679 3.49839 13.1618 5.48315C12.4478 6.42412 9.2042 8.7351 13.3197 10.2892C13.9573 10.4514 14.426 10.7506 17.3348 10.2192C17.7136 10.1535 18.6595 10.2192 19.326 11.3891L20.718 13.3799C20.8475 13.5652 20.9316 13.7784 20.9574 14.003C21.2013 16.125 21.1934 18.7817 22.3765 20.127C20.5491 18.8056 15.7737 17.2362 12.1756 21.702M3.31677 19.2173C5.02721 17.5907 9.98478 15.0211 15.2312 18.625" stroke="#0D0D12" stroke-width="2.12353" stroke-linecap="round" stroke-linejoin="round"/>
</svg>
