<svg width="182" height="73" viewBox="0 0 182 73" fill="none" xmlns="http://www.w3.org/2000/svg">
<g filter="url(#filter0_ddd_625_1021)">
<rect x="12.1428" y="6" width="157.714" height="48" rx="8.57143" fill="white"/>
<rect x="12.5714" y="6.42857" width="156.857" height="47.1429" rx="8.14286" stroke="url(#paint0_linear_625_1021)" stroke-width="0.857143"/>
<path d="M34.102 26.8983L35.7872 25.2123C35.5878 25.013 35.4407 24.7676 35.3588 24.4978C35.2769 24.2281 35.2628 23.9423 35.3178 23.6658C35.3727 23.3893 35.495 23.1306 35.6738 22.9127C35.8526 22.6947 36.0824 22.5242 36.3428 22.4163C36.6032 22.3083 36.8862 22.2663 37.1668 22.2939C37.4473 22.3214 37.7168 22.4178 37.9512 22.5743C38.1856 22.7309 38.3778 22.9428 38.5108 23.1914C38.6438 23.44 38.7134 23.7175 38.7134 23.9994C38.9954 23.9992 39.2731 24.0686 39.5219 24.2014C39.7706 24.3341 39.9828 24.5262 40.1396 24.7606C40.2963 24.995 40.3929 25.2644 40.4206 25.545C40.4484 25.8256 40.4065 26.1088 40.2986 26.3693C40.1908 26.6299 40.0204 26.8598 39.8024 27.0387C39.5845 27.2176 39.3258 27.34 39.0492 27.395C38.7727 27.4501 38.4868 27.436 38.217 27.3542C37.9471 27.2723 37.7017 27.1251 37.5023 26.9257L35.9423 28.4866M28.857 33.4285L29.7142 34.2856M33.55 38.0793C36.8972 34.7313 37.7115 30.1182 35.368 27.7756C33.0255 25.4322 28.4123 26.2465 25.0652 29.5936M27.4888 35.6531C29.8314 37.9966 32.546 39.0817 33.5488 38.078C34.5534 37.0734 33.4683 34.3597 31.1248 32.0171C28.7823 29.6737 26.0677 28.5886 25.0648 29.5923C24.0603 30.5968 25.1454 33.3106 27.4888 35.6531Z" stroke="#CFBA02" stroke-width="1.71429" stroke-linecap="round" stroke-linejoin="round"/>
<path d="M49.2561 36.5V24.4213H53.7511C56.1199 24.4213 57.7606 26.0117 57.7606 28.3806V28.3973C57.7606 30.7578 56.1199 32.3733 53.7511 32.3733H51.1311V36.5H49.2561ZM53.2823 26.0033H51.1311V30.7997H53.2823C54.9146 30.7997 55.8521 29.9208 55.8521 28.4057V28.389C55.8521 26.8823 54.9146 26.0033 53.2823 26.0033ZM59.1493 36.5V27.6942H60.9573V29.2009H60.9992C61.2838 28.1713 62.0204 27.5268 63.0248 27.5268C63.2843 27.5268 63.5103 27.5686 63.6526 27.5938V29.2762C63.5103 29.2176 63.1922 29.1758 62.8407 29.1758C61.6772 29.1758 60.9573 29.9375 60.9573 31.2517V36.5H59.1493ZM68.1384 36.6758C65.6105 36.6758 63.9615 34.9263 63.9615 32.0971V32.0804C63.9615 29.2679 65.6273 27.5268 68.1301 27.5268C70.6412 27.5268 72.3153 29.2595 72.3153 32.0804V32.0971C72.3153 34.9347 70.658 36.6758 68.1384 36.6758ZM68.1468 35.1607C69.5614 35.1607 70.4654 34.0391 70.4654 32.0971V32.0804C70.4654 30.1551 69.5447 29.0419 68.1301 29.0419C66.7405 29.0419 65.8114 30.1551 65.8114 32.0804V32.0971C65.8114 34.0474 66.7322 35.1607 68.1468 35.1607ZM76.7676 36.6758C75.0266 36.6758 74.1895 35.9392 74.1895 34.1814V29.1339H72.9256V27.6942H74.1895V25.4007H76.0394V27.6942H77.6884V29.1339H76.0394V34.0725C76.0394 34.9682 76.4412 35.236 77.2029 35.236C77.3954 35.236 77.5545 35.2193 77.6884 35.2026V36.6004C77.4791 36.6339 77.1359 36.6758 76.7676 36.6758ZM82.6932 36.6758C80.1067 36.6758 78.5414 34.9096 78.5414 32.1306V32.1222C78.5414 29.3683 80.1318 27.5268 82.6011 27.5268C85.0704 27.5268 86.5855 29.3013 86.5855 31.9464V32.5575H80.3494C80.3829 34.2232 81.2953 35.1942 82.735 35.1942C83.8065 35.1942 84.518 34.6417 84.744 33.9805L84.7691 33.9135H86.485L86.4683 34.0056C86.1837 35.4035 84.8277 36.6758 82.6932 36.6758ZM82.6095 29.0084C81.4376 29.0084 80.5336 29.8036 80.3745 31.2768H84.7942C84.6435 29.7533 83.7897 29.0084 82.6095 29.0084ZM88.9368 26.3382C88.3509 26.3382 87.8821 25.8694 87.8821 25.3002C87.8821 24.7227 88.3509 24.2539 88.9368 24.2539C89.5311 24.2539 89.9915 24.7227 89.9915 25.3002C89.9915 25.8694 89.5311 26.3382 88.9368 26.3382ZM88.0328 36.5V27.6942H89.8408V36.5H88.0328ZM91.6732 36.5V27.6942H93.4812V29.0251H93.523C93.9834 28.1295 94.8874 27.5268 96.2184 27.5268C98.1519 27.5268 99.2652 28.774 99.2652 30.7997V36.5H97.4488V31.1429C97.4488 29.8203 96.8294 29.0753 95.5738 29.0753C94.3015 29.0753 93.4812 29.9961 93.4812 31.3689V36.5H91.6732Z" fill="#24242D"/>
<path d="M125.054 36.7009C122.585 36.7009 120.308 34.9849 120.308 30.6406V30.6239C120.308 26.5977 122.108 24.2204 125.129 24.2204C127.281 24.2204 128.896 25.4509 129.281 27.2506L129.306 27.351H127.423L127.398 27.2673C127.055 26.3633 126.268 25.7941 125.113 25.7941C123.037 25.7941 122.191 27.7946 122.116 30.1886C122.108 30.2974 122.108 30.4063 122.108 30.5151H122.149C122.627 29.4269 123.849 28.5731 125.489 28.5731C127.8 28.5731 129.465 30.2556 129.465 32.5407V32.5575C129.465 34.9682 127.599 36.7009 125.054 36.7009ZM122.476 32.5658C122.476 33.9972 123.598 35.1272 125.029 35.1272C126.46 35.1272 127.599 34.014 127.599 32.6077V32.591C127.599 31.1345 126.527 30.0965 125.054 30.0965C123.589 30.0965 122.476 31.1261 122.476 32.5575V32.5658ZM131.942 36.5L137.308 26.0452V26.0033H130.938V24.4213H139.158V26.0452L133.909 36.5H131.942ZM148.045 39.6055C145.785 39.6055 144.354 38.5592 144.086 37.2115L144.078 37.1362H145.869L145.903 37.2031C146.145 37.764 146.907 38.149 148.037 38.149C149.477 38.149 150.272 37.3789 150.272 36.1484V34.9431H150.23C149.728 35.8973 148.723 36.5084 147.46 36.5084C145.25 36.5084 143.793 34.7757 143.793 32.0301V32.0218C143.793 29.2595 145.266 27.5268 147.501 27.5268C148.74 27.5268 149.711 28.1964 150.23 29.1925H150.272V27.6942H152.088V36.2573C152.088 38.2662 150.531 39.6055 148.045 39.6055ZM147.97 35.0352C149.351 35.0352 150.272 33.8717 150.272 32.0552V32.0469C150.272 30.2388 149.343 29.0753 147.97 29.0753C146.539 29.0753 145.643 30.2305 145.643 32.0469V32.0552C145.643 33.8968 146.539 35.0352 147.97 35.0352ZM153.845 36.5V27.6942H155.653V29.2009H155.695C155.98 28.1713 156.717 27.5268 157.721 27.5268C157.98 27.5268 158.206 27.5686 158.349 27.5938V29.2762C158.206 29.2176 157.888 29.1758 157.537 29.1758C156.373 29.1758 155.653 29.9375 155.653 31.2517V36.5H153.845Z" fill="#24242D" fill-opacity="0.92"/>
</g>
<defs>
<filter id="filter0_ddd_625_1021" x="0.142822" y="0.857143" width="181.714" height="72" filterUnits="userSpaceOnUse" color-interpolation-filters="sRGB">
<feFlood flood-opacity="0" result="BackgroundImageFix"/>
<feColorMatrix in="SourceAlpha" type="matrix" values="0 0 0 0 0 0 0 0 0 0 0 0 0 0 0 0 0 0 127 0" result="hardAlpha"/>
<feMorphology radius="1.28571" operator="dilate" in="SourceAlpha" result="effect1_dropShadow_625_1021"/>
<feOffset/>
<feComposite in2="hardAlpha" operator="out"/>
<feColorMatrix type="matrix" values="0 0 0 0 0.137255 0 0 0 0 0.65098 0 0 0 0 0.0196078 0 0 0 0.24 0"/>
<feBlend mode="normal" in2="BackgroundImageFix" result="effect1_dropShadow_625_1021"/>
<feColorMatrix in="SourceAlpha" type="matrix" values="0 0 0 0 0 0 0 0 0 0 0 0 0 0 0 0 0 0 127 0" result="hardAlpha"/>
<feOffset dy="2.66667"/>
<feGaussianBlur stdDeviation="2.66667"/>
<feComposite in2="hardAlpha" operator="out"/>
<feColorMatrix type="matrix" values="0 0 0 0 0.215686 0 0 0 0 0.223529 0 0 0 0 0.290196 0 0 0 0.04 0"/>
<feBlend mode="normal" in2="effect1_dropShadow_625_1021" result="effect2_dropShadow_625_1021"/>
<feColorMatrix in="SourceAlpha" type="matrix" values="0 0 0 0 0 0 0 0 0 0 0 0 0 0 0 0 0 0 127 0" result="hardAlpha"/>
<feMorphology radius="1.71429" operator="dilate" in="SourceAlpha" result="effect3_dropShadow_625_1021"/>
<feOffset dy="6.85714"/>
<feGaussianBlur stdDeviation="5.14286"/>
<feComposite in2="hardAlpha" operator="out"/>
<feColorMatrix type="matrix" values="0 0 0 0 0.792157 0 0 0 0 0.988235 0 0 0 0 0.12549 0 0 0 0.08 0"/>
<feBlend mode="normal" in2="effect2_dropShadow_625_1021" result="effect3_dropShadow_625_1021"/>
<feBlend mode="normal" in="SourceGraphic" in2="effect3_dropShadow_625_1021" result="shape"/>
</filter>
<linearGradient id="paint0_linear_625_1021" x1="91" y1="6" x2="91" y2="54" gradientUnits="userSpaceOnUse">
<stop stop-color="#23A605" stop-opacity="0.12"/>
<stop offset="1" stop-color="#23A605" stop-opacity="0.06"/>
</linearGradient>
</defs>
</svg>
