<svg width="149" height="142" viewBox="0 0 149 142" fill="none" xmlns="http://www.w3.org/2000/svg">
<g filter="url(#filter0_d_625_1489)">
<rect x="4.63257" y="23.2812" width="122" height="112.758" rx="11.0909" transform="rotate(-10 4.63257 23.2812)" fill="#BCD9E9"/>
<rect x="5.43559" y="23.8435" width="120.614" height="111.371" rx="10.3977" transform="rotate(-10 5.43559 23.8435)" stroke="url(#paint0_linear_625_1489)" stroke-opacity="0.32" stroke-width="1.38636"/>
<path d="M55.8355 83.7629L54.0262 73.5018L57.8448 72.8285C59.8572 72.4737 61.4892 73.579 61.844 75.5914L61.8465 75.6056C62.2001 77.6109 61.0483 79.2291 59.0359 79.5839L56.8102 79.9764L57.4284 83.4821L55.8355 83.7629ZM57.6835 74.2427L55.856 74.5649L56.5745 78.6395L58.402 78.3173C59.7886 78.0728 60.4534 77.1857 60.2265 75.8986L60.2239 75.8844C59.9983 74.6044 59.0702 73.9982 57.6835 74.2427ZM64.24 82.281L62.9209 74.8003L64.4569 74.5295L64.6826 75.8094L64.7181 75.8032C64.8057 74.8859 65.3349 74.228 66.1882 74.0775C66.4086 74.0387 66.6069 74.0404 66.7316 74.0404L66.9836 75.4697C66.8539 75.4412 66.5774 75.4533 66.2788 75.506C65.2903 75.6803 64.7929 76.4352 64.9898 77.5516L65.7759 82.0102L64.24 82.281ZM71.9028 81.0838C69.7553 81.4625 68.0923 80.2233 67.6685 77.8198L67.666 77.8056C67.2447 75.4163 68.399 73.6877 70.5252 73.3128C72.6585 72.9367 74.3402 74.1578 74.7628 76.5542L74.7653 76.5685C75.1903 78.9791 74.0432 80.7064 71.9028 81.0838ZM71.6829 79.7955C72.8847 79.5836 73.4846 78.4953 73.1938 76.8456L73.1912 76.8313C72.9029 75.1958 71.9539 74.388 70.7521 74.5999C69.5717 74.808 68.9492 75.893 69.2376 77.5285L69.2401 77.5427C69.5322 79.1996 70.4812 80.0074 71.6829 79.7955ZM79.2335 79.7912C77.7544 80.052 76.933 79.5516 76.6697 78.0583L75.9136 73.7704L74.8398 73.9598L74.6242 72.7367L75.6979 72.5474L75.3544 70.599L76.9259 70.3219L77.2694 72.2703L78.6703 72.0232L78.886 73.2463L77.4851 73.4933L78.2249 77.6888C78.359 78.4497 78.7405 78.617 79.3876 78.5029C79.5511 78.4741 79.6837 78.436 79.795 78.4018L80.0044 79.5893C79.8316 79.6491 79.5464 79.736 79.2335 79.7912ZM84.2673 78.9036C82.0701 79.291 80.4757 78.0251 80.0595 75.6643L80.0582 75.6572C79.6457 73.3177 80.7209 71.515 82.8187 71.1451C84.9164 70.7753 86.4693 72.0558 86.8655 74.3029L86.957 74.822L81.6594 75.7561C81.9373 77.1662 82.8579 77.8544 84.081 77.6387C84.9912 77.4782 85.5128 76.9023 85.6058 76.3067L85.6171 76.246L87.0748 75.989L87.0744 76.0697C87.042 77.2999 86.0806 78.5839 84.2673 78.9036ZM83.0477 72.4025C82.0522 72.5781 81.4033 73.389 81.4889 74.6644L85.2435 74.0023C84.8873 72.7307 84.0503 72.2257 83.0477 72.4025ZM88.0229 69.1863C87.5251 69.2741 87.0567 68.9461 86.9715 68.4626C86.8849 67.9719 87.2129 67.5035 87.7107 67.4157C88.2156 67.3267 88.6769 67.6559 88.7634 68.1466C88.8487 68.6301 88.5278 69.0973 88.0229 69.1863ZM88.7771 77.9544L87.4581 70.4737L88.994 70.2029L90.3131 77.6836L88.7771 77.9544ZM91.8697 77.4091L90.5506 69.9284L92.0866 69.6576L92.286 70.7882L92.3215 70.782C92.5785 69.9521 93.2562 69.3047 94.3868 69.1054C96.0294 68.8157 97.162 69.7085 97.4654 71.4293L98.3193 76.2719L96.7762 76.544L95.9738 71.993C95.7757 70.8694 95.1379 70.3294 94.0712 70.5174C92.9904 70.708 92.4314 71.6131 92.637 72.7793L93.4057 77.1383L91.8697 77.4091Z" fill="#37394A"/>
<path d="M62.1768 109.6L61.6371 106.539L53.9359 107.897L53.5692 105.817L58.3002 94.4133L61.7562 93.8039L63.5768 104.129L65.6994 103.755L66.053 105.76L63.9303 106.134L64.4701 109.196L62.1768 109.6ZM55.8066 105.532L61.3104 104.562L59.8171 96.0924L59.7531 96.1037L55.7953 105.468L55.8066 105.532ZM74.0073 107.778C70.3274 108.427 67.5904 105.753 66.729 100.868L66.7252 100.846C65.8638 95.9611 67.5232 92.523 71.2031 91.8742C74.8724 91.2272 77.6182 93.8885 78.4796 98.7737L78.4834 98.795C79.3448 103.68 77.6766 107.131 74.0073 107.778ZM73.6556 105.783C75.8423 105.398 76.7235 102.911 76.0728 99.2201L76.069 99.1987C75.4182 95.5082 73.7433 93.4939 71.5567 93.8795C69.3594 94.2669 68.4851 96.7307 69.1358 100.421L69.1396 100.443C69.7903 104.133 71.4584 106.171 73.6556 105.783Z" fill="#37394A"/>
<path d="M87.3382 108.552C85.7392 108.834 84.5984 108.259 84.2179 107.338L84.1956 107.285L85.2845 107.093L85.3192 107.144C85.6068 107.575 86.2733 107.752 87.1568 107.596C88.2955 107.396 88.8318 106.653 88.6551 105.651L88.5092 104.824L88.4843 104.828C88.2247 105.612 87.5593 106.204 86.6322 106.367C85.002 106.655 83.6567 105.538 83.3002 103.516L83.2991 103.51C82.9447 101.5 83.8405 99.995 85.4831 99.7054C86.3978 99.5441 87.2073 99.9146 87.7328 100.566L87.7577 100.562L87.5646 99.4666L88.6472 99.2757L89.7564 105.566C90.0208 107.066 89.0929 108.243 87.3382 108.552ZM86.6996 105.367C87.801 105.173 88.3819 104.102 88.1285 102.665L88.1274 102.659C87.8762 101.234 86.9587 100.433 85.8636 100.626C84.7126 100.829 84.1532 101.877 84.4066 103.315L84.4077 103.321C84.6666 104.789 85.5486 105.57 86.6996 105.367ZM90.7331 105.58L89.5921 99.1091L90.6747 98.9182L90.8678 100.013L90.8927 100.009C90.9788 99.2239 91.4554 98.6523 92.1834 98.5239C92.3701 98.491 92.5373 98.4936 92.6266 98.4907L92.8121 99.5422C92.7195 99.5264 92.4838 99.5359 92.2224 99.582C91.3825 99.7301 90.938 100.412 91.1114 101.395L91.8157 105.389L90.7331 105.58ZM95.9994 104.78C94.7114 105.007 93.7094 104.382 93.502 103.206L93.4998 103.193C93.3056 102.092 94.0425 101.25 95.5142 100.901L97.3498 100.468L97.2543 99.9265C97.115 99.1363 96.5141 98.7483 95.6119 98.9074C94.7781 99.0544 94.3257 99.5448 94.3033 100.145L94.3007 100.204L93.2554 100.388L93.2495 100.318C93.1553 99.2379 93.9309 98.2158 95.4553 97.947C96.986 97.6771 98.0901 98.3357 98.3183 99.6299L99.1071 104.104L98.0245 104.294L97.8391 103.243L97.8142 103.247C97.5597 104.024 96.8642 104.627 95.9994 104.78ZM94.6096 103.01C94.7193 103.633 95.2986 103.935 96.0764 103.798C97.0968 103.618 97.7568 102.776 97.5911 101.837L97.4979 101.308L95.7868 101.719C94.9307 101.921 94.5009 102.394 94.6074 102.998L94.6096 103.01ZM100.027 103.941L98.8861 97.4704L99.9687 97.2795L100.136 98.2252L100.16 98.2208C100.34 97.5284 100.911 96.985 101.745 96.8379C102.629 96.6822 103.362 97.0212 103.781 97.762L103.806 97.7576C104.03 96.9162 104.707 96.3157 105.615 96.1555C106.897 95.9295 107.873 96.6236 108.1 97.9116L108.887 102.379L107.805 102.57L107.061 98.3513C106.904 97.4616 106.319 97.0194 105.467 97.1697C104.608 97.3211 104.118 98.0684 104.273 98.9519L104.999 103.065L103.916 103.256L103.151 98.9188C103.013 98.1348 102.399 97.7106 101.597 97.8521C100.738 98.0035 100.235 98.7914 100.394 99.6936L101.11 103.75L100.027 103.941Z" fill="#37394A"/>
<g clip-path="url(#clip0_625_1489)">
<path d="M71.0317 37.0772L72.9967 34.2693C72.6647 34.0369 72.3951 33.7262 72.2118 33.3647C72.0285 33.0032 71.9372 32.6021 71.946 32.1969C71.9548 31.7917 72.0633 31.3949 72.2621 31.0417C72.4608 30.6884 72.7436 30.3897 73.0854 30.1718C73.4271 29.954 73.8174 29.8238 74.2215 29.7928C74.6256 29.7618 75.0311 29.8309 75.4021 29.994C75.7731 30.1572 76.0982 30.4093 76.3485 30.728C76.5988 31.0468 76.7667 31.4224 76.8371 31.8215C77.2363 31.7508 77.6468 31.7797 78.0322 31.9056C78.4175 32.0315 78.7659 32.2505 79.0464 32.5432C79.3269 32.8359 79.5308 33.1933 79.6402 33.5837C79.7495 33.974 79.7609 34.3854 79.6732 34.7812C79.5856 35.177 79.4017 35.5451 79.1378 35.8528C78.8739 36.1606 78.5381 36.3985 78.1603 36.5454C77.7825 36.6924 77.3742 36.7439 76.9717 36.6953C76.5692 36.6468 76.1849 36.4997 75.8529 36.2671L74.0338 38.8666M65.2358 47.6325L66.6634 48.6321M73.0416 53.0458C76.9448 47.4699 76.9461 40.735 73.0432 38.0033C69.1414 35.2701 62.8131 37.5747 58.9096 43.1495M63.854 51.1239C67.7558 53.857 71.8702 54.7158 73.0395 53.0443C74.2111 51.3711 71.9972 47.7998 68.0943 45.0681C64.1925 42.3349 60.0781 41.4762 58.9088 43.1477C57.7373 44.8208 59.9512 48.3922 63.854 51.1239Z" stroke="#395EFF" stroke-width="2.46465" stroke-linecap="round" stroke-linejoin="round"/>
</g>
</g>
<defs>
<filter id="filter0_d_625_1489" x="-1.11827" y="-0.77923" width="151.228" height="143.731" filterUnits="userSpaceOnUse" color-interpolation-filters="sRGB">
<feFlood flood-opacity="0" result="BackgroundImageFix"/>
<feColorMatrix in="SourceAlpha" type="matrix" values="0 0 0 0 0 0 0 0 0 0 0 0 0 0 0 0 0 0 127 0" result="hardAlpha"/>
<feOffset dy="2.87542"/>
<feGaussianBlur stdDeviation="2.87542"/>
<feComposite in2="hardAlpha" operator="out"/>
<feColorMatrix type="matrix" values="0 0 0 0 0.215686 0 0 0 0 0.223529 0 0 0 0 0.290196 0 0 0 0.04 0"/>
<feBlend mode="normal" in2="BackgroundImageFix" result="effect1_dropShadow_625_1489"/>
<feBlend mode="normal" in="SourceGraphic" in2="effect1_dropShadow_625_1489" result="shape"/>
</filter>
<linearGradient id="paint0_linear_625_1489" x1="4.63257" y1="79.66" x2="126.633" y2="79.66" gradientUnits="userSpaceOnUse">
<stop stop-color="#7E96FF" stop-opacity="0.64"/>
<stop offset="0.307692" stop-color="#7E96FF"/>
<stop offset="1" stop-color="#7E96FF" stop-opacity="0.52"/>
</linearGradient>
<clipPath id="clip0_625_1489">
<rect width="29.5758" height="29.5758" fill="white" transform="translate(52.7104 29.8196) rotate(-10)"/>
</clipPath>
</defs>
</svg>
