<svg width="218" height="104" viewBox="0 0 218 104" fill="none" xmlns="http://www.w3.org/2000/svg">
<g filter="url(#filter0_ddd_625_1262)">
<g clip-path="url(#clip0_625_1262)">
<rect x="15.4185" y="4.88916" width="192.279" height="68" rx="9.66316" transform="rotate(4 15.4185 4.88916)" fill="white"/>
<text transform="translate(27.0251 18.4736) rotate(4)" fill="#808898" xml:space="preserve" style="white-space: pre" font-family="SF Pro Display" font-size="15.0316" letter-spacing="-0.002em"><tspan x="0.228405" y="12.8433">Starting Weight</tspan></text>
<text transform="translate(25.4546 40.9346) rotate(4)" fill="#24242D" xml:space="preserve" style="white-space: pre" font-family="SF Pro Display" font-size="20.0421" letter-spacing="-0.002em"><tspan x="0.0541801" y="17.1243">118,5</tspan></text>
<text transform="translate(76.9897 49.5504) rotate(4)" fill="#666D80" xml:space="preserve" style="white-space: pre" font-family="SF Pro Display" font-size="15.0316" letter-spacing="-0.002em"><tspan x="0.333495" y="12.8433">lbs</tspan></text>
<g filter="url(#filter1_ddd_625_1262)">
<rect x="163.42" y="34.2528" width="30.0632" height="30.0632" rx="15.0316" transform="rotate(4 163.42 34.2528)" fill="white"/>
<path fill-rule="evenodd" clip-rule="evenodd" d="M177.461 50.9181C176.075 51.2571 174.497 51.6431 172.751 51.016C172.479 50.9186 172.157 50.7798 171.911 50.6698C171.786 50.614 171.677 50.5639 171.6 50.5277C171.561 50.5096 171.53 50.495 171.508 50.4847L171.483 50.4728L171.473 50.4684C171.473 50.4684 171.473 50.4683 171.736 49.9185L171.473 50.4684C171.161 50.3193 171.029 49.9454 171.178 49.6333C171.327 49.3211 171.701 49.1889 172.013 49.3379L171.743 49.9028C172.013 49.338 172.013 49.3379 172.013 49.3379L172.02 49.3413L172.043 49.3519C172.062 49.3613 172.092 49.375 172.128 49.3921C172.202 49.4262 172.305 49.4736 172.423 49.5264C172.662 49.6336 172.949 49.7565 173.174 49.8371C174.541 50.3281 175.78 50.0394 177.218 49.688C177.236 49.6835 177.254 49.6791 177.272 49.6746C178.658 49.3356 180.236 48.9496 181.982 49.5767C182.253 49.6741 182.576 49.8129 182.822 49.9229C182.946 49.9787 183.055 50.0288 183.133 50.065C183.172 50.0831 183.203 50.0977 183.225 50.108L183.25 50.1199L183.259 50.1243C183.259 50.1243 183.259 50.1244 182.989 50.6896L183.259 50.1243C183.571 50.2734 183.704 50.6473 183.555 50.9594C183.406 51.2716 183.032 51.4038 182.72 51.2547L182.713 51.2514L182.69 51.2408C182.67 51.2314 182.641 51.2177 182.604 51.2007C182.531 51.1665 182.428 51.1191 182.31 51.0663C182.07 50.9591 181.783 50.8363 181.559 50.7556C180.192 50.2646 178.952 50.5533 177.515 50.9047C177.497 50.9092 177.479 50.9136 177.461 50.9181Z" fill="#23A605"/>
<path fill-rule="evenodd" clip-rule="evenodd" d="M177.198 54.6668C175.813 55.0058 174.235 55.3919 172.488 54.7648C172.217 54.6674 171.895 54.5285 171.649 54.4186C171.524 54.3627 171.415 54.3126 171.338 54.2765C171.299 54.2584 171.267 54.2437 171.246 54.2335L171.221 54.2216L171.211 54.2171C171.211 54.2171 171.211 54.2171 171.474 53.6672L171.211 54.2171C170.899 54.0681 170.767 53.6941 170.916 53.382C171.065 53.0699 171.439 52.9377 171.751 53.0867L171.481 53.6515C171.751 53.0867 171.751 53.0867 171.751 53.0867L171.758 53.09L171.78 53.1007C171.8 53.11 171.829 53.1237 171.866 53.1408C171.939 53.175 172.042 53.2223 172.16 53.2751C172.4 53.3823 172.687 53.5052 172.912 53.5859C174.279 54.0769 175.518 53.7881 176.955 53.4367C176.974 53.4323 176.992 53.4278 177.01 53.4234C178.396 53.0844 179.974 52.6983 181.72 53.3254C181.991 53.4228 182.314 53.5617 182.559 53.6716C182.684 53.7275 182.793 53.7776 182.871 53.8137C182.91 53.8318 182.941 53.8465 182.963 53.8567L182.988 53.8686L182.997 53.8731C182.997 53.8731 182.997 53.8731 182.727 54.4383L182.997 53.8731C183.309 54.0221 183.442 54.396 183.293 54.7082C183.143 55.0203 182.77 55.1525 182.457 55.0035L182.45 55.0001L182.428 54.9895C182.408 54.9802 182.379 54.9665 182.342 54.9494C182.269 54.9152 182.166 54.8678 182.048 54.8151C181.808 54.7078 181.521 54.585 181.297 54.5043C179.93 54.0133 178.69 54.3021 177.253 54.6535C177.235 54.6579 177.217 54.6624 177.198 54.6668Z" fill="#23A605"/>
<path fill-rule="evenodd" clip-rule="evenodd" d="M177.723 47.1694C176.337 47.5083 174.759 47.8944 173.013 47.2673C172.742 47.1699 172.419 47.031 172.173 46.9211C172.048 46.8652 171.94 46.8152 171.862 46.779C171.823 46.7609 171.792 46.7462 171.77 46.736L171.745 46.7241L171.736 46.7196C171.736 46.7196 171.735 46.7196 171.998 46.1698L171.736 46.7196C171.423 46.5706 171.291 46.1967 171.44 45.8845C171.589 45.5724 171.963 45.4402 172.275 45.5892L172.006 46.154C172.275 45.5892 172.275 45.5892 172.275 45.5892L172.282 45.5926L172.305 45.6032C172.325 45.6126 172.354 45.6263 172.39 45.6433C172.464 45.6775 172.567 45.7249 172.685 45.7776C172.924 45.8849 173.212 46.0077 173.436 46.0884C174.803 46.5794 176.042 46.2906 177.48 45.9392C177.498 45.9348 177.516 45.9303 177.534 45.9259C178.92 45.5869 180.498 45.2008 182.244 45.8279C182.515 45.9253 182.838 46.0642 183.084 46.1742C183.209 46.23 183.317 46.2801 183.395 46.3162C183.434 46.3343 183.465 46.349 183.487 46.3592L183.512 46.3711L183.521 46.3756C183.521 46.3756 183.521 46.3756 183.252 46.9408L183.521 46.3756C183.834 46.5246 183.966 46.8986 183.817 47.2107C183.668 47.5228 183.294 47.6551 182.982 47.506L182.975 47.5027L182.952 47.492C182.932 47.4827 182.903 47.469 182.867 47.4519C182.793 47.4178 182.69 47.3704 182.572 47.3176C182.332 47.2104 182.045 47.0875 181.821 47.0068C180.454 46.5159 179.215 46.8046 177.777 47.156C177.759 47.1604 177.741 47.1649 177.723 47.1694Z" fill="#23A605"/>
</g>
</g>
<rect x="15.9788" y="5.53377" width="191.071" height="66.7921" rx="9.05921" transform="rotate(4 15.9788 5.53377)" stroke="url(#paint0_linear_625_1262)" stroke-width="1.20789"/>
</g>
<defs>
<filter id="filter0_ddd_625_1262" x="-0.598637" y="0.0575801" width="219.101" height="103.794" filterUnits="userSpaceOnUse" color-interpolation-filters="sRGB">
<feFlood flood-opacity="0" result="BackgroundImageFix"/>
<feColorMatrix in="SourceAlpha" type="matrix" values="0 0 0 0 0 0 0 0 0 0 0 0 0 0 0 0 0 0 127 0" result="hardAlpha"/>
<feMorphology radius="1.20789" operator="dilate" in="SourceAlpha" result="effect1_dropShadow_625_1262"/>
<feOffset/>
<feComposite in2="hardAlpha" operator="out"/>
<feColorMatrix type="matrix" values="0 0 0 0 0.137255 0 0 0 0 0.65098 0 0 0 0 0.0196078 0 0 0 0.24 0"/>
<feBlend mode="normal" in2="BackgroundImageFix" result="effect1_dropShadow_625_1262"/>
<feColorMatrix in="SourceAlpha" type="matrix" values="0 0 0 0 0 0 0 0 0 0 0 0 0 0 0 0 0 0 127 0" result="hardAlpha"/>
<feOffset dy="2.50526"/>
<feGaussianBlur stdDeviation="2.50526"/>
<feComposite in2="hardAlpha" operator="out"/>
<feColorMatrix type="matrix" values="0 0 0 0 0.215686 0 0 0 0 0.223529 0 0 0 0 0.290196 0 0 0 0.04 0"/>
<feBlend mode="normal" in2="effect1_dropShadow_625_1262" result="effect2_dropShadow_625_1262"/>
<feColorMatrix in="SourceAlpha" type="matrix" values="0 0 0 0 0 0 0 0 0 0 0 0 0 0 0 0 0 0 127 0" result="hardAlpha"/>
<feMorphology radius="1.61053" operator="dilate" in="SourceAlpha" result="effect3_dropShadow_625_1262"/>
<feOffset dy="6.44211"/>
<feGaussianBlur stdDeviation="4.83158"/>
<feComposite in2="hardAlpha" operator="out"/>
<feColorMatrix type="matrix" values="0 0 0 0 0.792157 0 0 0 0 0.988235 0 0 0 0 0.12549 0 0 0 0.08 0"/>
<feBlend mode="normal" in2="effect2_dropShadow_625_1262" result="effect3_dropShadow_625_1262"/>
<feBlend mode="normal" in="SourceGraphic" in2="effect3_dropShadow_625_1262" result="shape"/>
</filter>
<filter id="filter1_ddd_625_1262" x="151.302" y="26.737" width="52.1293" height="52.1291" filterUnits="userSpaceOnUse" color-interpolation-filters="sRGB">
<feFlood flood-opacity="0" result="BackgroundImageFix"/>
<feColorMatrix in="SourceAlpha" type="matrix" values="0 0 0 0 0 0 0 0 0 0 0 0 0 0 0 0 0 0 127 0" result="hardAlpha"/>
<feOffset dy="2.50526"/>
<feGaussianBlur stdDeviation="5.01053"/>
<feComposite in2="hardAlpha" operator="out"/>
<feColorMatrix type="matrix" values="0 0 0 0 0.0117647 0 0 0 0 0.027451 0 0 0 0 0.0705882 0 0 0 0.1 0"/>
<feBlend mode="normal" in2="BackgroundImageFix" result="effect1_dropShadow_625_1262"/>
<feColorMatrix in="SourceAlpha" type="matrix" values="0 0 0 0 0 0 0 0 0 0 0 0 0 0 0 0 0 0 127 0" result="hardAlpha"/>
<feMorphology radius="1.25263" operator="erode" in="SourceAlpha" result="effect2_dropShadow_625_1262"/>
<feOffset dy="1.25263"/>
<feGaussianBlur stdDeviation="1.25263"/>
<feComposite in2="hardAlpha" operator="out"/>
<feColorMatrix type="matrix" values="0 0 0 0 0.0117647 0 0 0 0 0.027451 0 0 0 0 0.0705882 0 0 0 0.08 0"/>
<feBlend mode="normal" in2="effect1_dropShadow_625_1262" result="effect2_dropShadow_625_1262"/>
<feColorMatrix in="SourceAlpha" type="matrix" values="0 0 0 0 0 0 0 0 0 0 0 0 0 0 0 0 0 0 127 0" result="hardAlpha"/>
<feMorphology radius="1.20789" operator="dilate" in="SourceAlpha" result="effect3_dropShadow_625_1262"/>
<feOffset/>
<feComposite in2="hardAlpha" operator="out"/>
<feColorMatrix type="matrix" values="0 0 0 0 0.137255 0 0 0 0 0.65098 0 0 0 0 0.0196078 0 0 0 1 0"/>
<feBlend mode="normal" in2="effect2_dropShadow_625_1262" result="effect3_dropShadow_625_1262"/>
<feBlend mode="normal" in="SourceGraphic" in2="effect3_dropShadow_625_1262" result="shape"/>
</filter>
<linearGradient id="paint0_linear_625_1262" x1="111.558" y1="4.88916" x2="111.558" y2="72.8892" gradientUnits="userSpaceOnUse">
<stop stop-color="#23A605" stop-opacity="0.12"/>
<stop offset="1" stop-color="#23A605" stop-opacity="0.06"/>
</linearGradient>
<clipPath id="clip0_625_1262">
<rect x="15.4185" y="4.88916" width="192.279" height="68" rx="9.66316" transform="rotate(4 15.4185 4.88916)" fill="white"/>
</clipPath>
</defs>
</svg>
