<svg width="206" height="91" viewBox="0 0 206 91" fill="none" xmlns="http://www.w3.org/2000/svg">
<g filter="url(#filter0_ddd_625_1252)">
<rect x="4.71875" y="15.8765" width="192.279" height="68" rx="9.66316" transform="rotate(-4 4.71875 15.8765)" fill="white"/>
<rect x="5.36336" y="16.4368" width="191.071" height="66.7921" rx="9.05921" transform="rotate(-4 5.36336 16.4368)" stroke="url(#paint0_linear_625_1252)" stroke-width="1.20789"/>
<path d="M22.8662 40.4124L22.2263 31.2602L18.99 31.4865L18.8912 30.0734L26.9964 29.5067L27.0952 30.9198L23.8663 31.1455L24.5063 40.2977L22.8662 40.4124ZM29.2086 40.1087C27.671 40.2162 26.5726 39.3439 26.4758 37.9601L26.4748 37.9455C26.3811 36.6056 27.3635 35.7128 29.1789 35.4755L31.2642 35.2046L31.2238 34.6262C31.1644 33.7769 30.5794 33.3028 29.5983 33.3714C28.6831 33.4354 28.1495 33.9068 28.0607 34.531L28.0507 34.5979L26.5571 34.7024L26.5587 34.6213C26.5759 33.2884 27.6542 32.1903 29.5506 32.0577C31.4323 31.9261 32.6954 32.8384 32.8034 34.3833L33.1746 39.6916L31.5858 39.8027L31.5008 38.5873L31.4715 38.5893C31.0827 39.4479 30.2263 40.0376 29.2086 40.1087ZM28.0694 37.8119C28.1165 38.4855 28.7027 38.8712 29.552 38.8119C30.6649 38.734 31.4542 37.921 31.384 36.9179L31.342 36.3175L29.4685 36.5663C28.5208 36.6914 28.0228 37.1456 28.0684 37.7972L28.0694 37.8119ZM34.6822 39.5862L34.1435 31.8837L35.725 31.7731L35.8172 33.091L35.8538 33.0885C36.0398 32.1705 36.6447 31.5616 37.5233 31.5002C37.7503 31.4843 37.9505 31.5071 38.0765 31.5204L38.1794 32.9921C38.0514 32.9495 37.7706 32.9324 37.4631 32.9539C36.4453 33.025 35.8623 33.7353 35.9426 34.8848L36.2637 39.4756L34.6822 39.5862ZM42.8009 41.7481C40.824 41.8864 39.508 41.0587 39.1912 39.8963L39.1793 39.8309L40.7462 39.7213L40.7796 39.7778C41.0262 40.2536 41.716 40.5438 42.7045 40.4746C43.9638 40.3866 44.6123 39.6643 44.537 38.588L44.4633 37.5337L44.4267 37.5363C44.0457 38.4017 43.2045 38.9976 42.0989 39.0749C40.166 39.2101 38.786 37.7836 38.6181 35.382L38.6176 35.3747C38.4486 32.9585 39.6312 31.3528 41.5862 31.2161C42.6698 31.1403 43.5601 31.6667 44.0749 32.5062L44.1115 32.5037L44.0199 31.1931L45.6087 31.082L46.1325 38.5721C46.2554 40.3293 44.9754 41.5961 42.8009 41.7481ZM42.4554 37.755C43.6635 37.6706 44.3977 36.5965 44.2866 35.0077L44.2861 35.0004C44.1755 33.4189 43.2917 32.458 42.0909 32.542C40.8389 32.6295 40.1261 33.6947 40.2372 35.2835L40.2377 35.2908C40.3503 36.9016 41.2034 37.8426 42.4554 37.755ZM50.9824 38.6009C48.72 38.7591 47.2428 37.3099 47.0728 34.8791L47.0723 34.8718C46.9039 32.4629 48.1824 30.7548 50.3423 30.6038C52.5022 30.4528 53.936 31.9123 54.0978 34.226L54.1351 34.7605L48.6804 35.1419C48.8116 36.5969 49.6691 37.3904 50.9284 37.3024C51.8656 37.2368 52.4541 36.7101 52.6114 36.1178L52.6293 36.0577L54.1302 35.9528L54.1212 36.0343C53.9578 37.2745 52.8495 38.4703 50.9824 38.6009ZM50.4402 31.8993C49.4152 31.9709 48.6731 32.7218 48.6241 34.0202L52.4899 33.7498C52.265 32.4265 51.4726 31.8271 50.4402 31.8993ZM58.2888 38.09C56.7659 38.1964 55.9887 37.6033 55.8812 36.0658L55.5724 31.6507L54.4668 31.728L54.3788 30.4687L55.4844 30.3914L55.3441 28.3852L56.9622 28.2721L57.1025 30.2782L58.5449 30.1774L58.6329 31.4367L57.1905 31.5376L57.4926 35.8574C57.5474 36.6409 57.9152 36.8506 58.5815 36.804C58.7499 36.7922 58.888 36.7678 59.0041 36.745L59.0896 37.9677C58.9086 38.0098 58.611 38.0674 58.2888 38.09ZM65.7668 37.4125L62.1799 27.0464L63.8858 26.9271L66.4345 35.0703L66.4637 35.0682L68.1178 26.6312L69.67 26.5226L72.4822 34.6474L72.5188 34.6448L73.9093 26.2262L75.6153 26.1069L73.4986 36.8719L71.9244 36.9819L69.0976 29.1746L69.061 29.1771L67.341 37.3025L65.7668 37.4125ZM79.9006 36.5787C77.6381 36.7369 76.1609 35.2878 75.991 32.8569L75.9904 32.8496C75.822 30.4408 77.1005 28.7327 79.2604 28.5817C81.4203 28.4306 82.8541 29.8902 83.0159 32.2038L83.0533 32.7383L77.5986 33.1198C77.7297 34.5747 78.5872 35.3683 79.8465 35.2802C80.7837 35.2147 81.3723 34.6879 81.5295 34.0957L81.5474 34.0356L83.0484 33.9306L83.0394 34.0122C82.8759 35.2523 81.7676 36.4482 79.9006 36.5787ZM79.3584 29.8771C78.3333 29.9488 77.5912 30.6996 77.5422 31.998L81.4081 31.7277C81.1831 30.4043 80.3907 29.8049 79.3584 29.8771ZM84.7296 27.1544C84.2171 27.1903 83.7784 26.8089 83.7436 26.3111C83.7082 25.8059 84.0896 25.3672 84.6021 25.3313C85.1219 25.295 85.5533 25.6768 85.5886 26.182C85.6235 26.6799 85.2494 27.1181 84.7296 27.1544ZM84.5604 36.0984L84.0218 28.3959L85.6033 28.2853L86.1419 35.9878L84.5604 36.0984ZM91.3099 38.356C89.3331 38.4943 88.017 37.6666 87.7003 36.5042L87.6884 36.4388L89.2552 36.3292L89.2886 36.3858C89.5353 36.8615 90.2251 37.1517 91.2135 37.0826C92.4729 36.9945 93.1213 36.2723 93.0461 35.196L92.9723 34.1416L92.9357 34.1442C92.5548 35.0096 91.7136 35.6055 90.608 35.6828C88.675 35.818 87.2951 34.3915 87.1271 31.9899L87.1266 31.9826C86.9577 29.5664 88.1403 27.9607 90.0952 27.824C91.1788 27.7482 92.0691 28.2746 92.584 29.1141L92.6206 29.1116L92.529 27.801L94.1178 27.6899L94.6415 35.18C94.7644 36.9373 93.4845 38.204 91.3099 38.356ZM90.9645 34.363C92.1726 34.2785 92.9068 33.2044 92.7957 31.6156L92.7952 31.6083C92.6846 30.0268 91.8007 29.0659 90.6 29.1499C89.3479 29.2374 88.6352 30.3026 88.7463 31.8914L88.7468 31.8987C88.8594 33.5095 89.7125 34.4505 90.9645 34.363ZM96.2518 35.2808L95.513 24.7155L97.0945 24.6049L97.3833 28.7344L97.4199 28.7318C97.7675 27.8099 98.5585 27.2322 99.708 27.1518C101.355 27.0366 102.525 28.1909 102.655 30.0506L102.988 34.8098L101.406 34.9204L101.095 30.4614C101.005 29.1874 100.308 28.471 99.195 28.5488C98.1041 28.6251 97.4376 29.5105 97.5215 30.7113L97.8333 35.1702L96.2518 35.2808ZM107.208 34.6692C105.685 34.7757 104.908 34.1826 104.8 32.645L104.492 28.23L103.386 28.3073L103.298 27.0479L104.403 26.9706L104.263 24.9645L105.881 24.8513L106.022 26.8575L107.464 26.7566L107.552 28.016L106.11 28.1168L106.412 32.4367C106.466 33.2201 106.834 33.4298 107.501 33.3832C107.669 33.3715 107.807 33.3471 107.923 33.3242L108.009 34.547C107.828 34.5891 107.53 34.6467 107.208 34.6692Z" fill="#808898"/>
<path d="M25.6805 66.7963L24.847 54.8765L24.7981 54.8799L21.2952 57.6754L21.1505 55.6058L24.6759 52.7106L26.8334 52.5597L27.8184 66.6468L25.6805 66.7963ZM36.3076 66.2886C33.1934 66.5064 30.8704 64.9913 30.7038 62.6093L30.7024 62.5898C30.5782 60.813 31.7588 59.3178 33.5661 58.7892L33.5627 58.7404C31.9595 58.4012 30.8526 57.3014 30.7481 55.8078L30.7468 55.7883C30.5966 53.6406 32.488 51.9289 35.2898 51.733C38.0915 51.537 40.2125 52.9681 40.3627 55.1159L40.364 55.1354C40.4685 56.629 39.5254 57.8722 37.985 58.4312L37.9884 58.48C39.8518 58.7519 41.2192 60.0689 41.3434 61.8457L41.3448 61.8652C41.5113 64.2472 39.4315 66.0702 36.3076 66.2886ZM35.7178 57.8539C37.2895 57.744 38.2999 56.7611 38.2105 55.4822L38.2091 55.4627C38.119 54.174 36.9726 53.3517 35.4106 53.4609C33.8486 53.5701 32.8376 54.5433 32.9277 55.832L32.929 55.8515C33.0185 57.1304 34.1558 57.9632 35.7178 57.8539ZM36.1854 64.5412C37.9817 64.4155 39.1889 63.3011 39.0892 61.8758L39.0878 61.8562C38.9875 60.4212 37.646 59.4751 35.84 59.6014C34.0339 59.7277 32.8372 60.8512 32.9375 62.2863L32.9389 62.3058C33.0386 63.7311 34.3891 64.6668 36.1854 64.5412ZM47.6187 50.8708C50.4986 50.6695 53.2939 52.4851 53.6481 57.5517L53.6495 57.5712C53.9779 62.2669 52.0728 65.1862 48.5486 65.4326C46.0397 65.6081 44.0552 64.3048 43.4594 62.2373L43.4219 62.1222L45.6087 61.9692L45.6545 62.0641C46.1285 63.0905 47.0926 63.6902 48.4398 63.596C50.8609 63.4267 51.6837 61.0245 51.5763 58.2263C51.5772 58.0987 51.5684 57.9718 51.5595 57.8449L51.5107 57.8483C51.043 59.1563 49.6873 60.2518 47.7739 60.3856C45.0795 60.574 42.9898 58.7483 42.8034 56.0832L42.8021 56.0636C42.6054 53.2521 44.6411 51.079 47.6187 50.8708ZM48.1475 58.574C49.8657 58.4539 51.0801 57.1623 50.9634 55.4929L50.9627 55.4832C50.846 53.8138 49.4456 52.5874 47.7665 52.7048C46.1069 52.8208 44.8603 54.2128 44.975 55.8528L44.9763 55.8724C45.0951 57.571 46.4391 58.6935 48.1475 58.574ZM55.1529 67.5803L55.6039 62.526L57.7126 62.3786L56.6368 67.4765L55.1529 67.5803ZM60.089 64.3902L59.9839 62.8868L64.5943 57.5515C66.3376 55.546 66.7055 54.7747 66.629 53.6814L66.6277 53.6618C66.5244 52.3251 65.4422 51.4394 64.0169 51.539C62.3671 51.6544 61.2636 52.8499 61.3438 54.2766L61.3479 54.3351L59.2783 54.4799L59.2742 54.4213C59.0981 51.9026 61.1083 49.9275 63.8613 49.735C66.5655 49.5459 68.6172 51.1094 68.7763 53.3841L68.7776 53.4036C68.8903 55.0144 68.2185 56.2091 65.8648 58.8851L62.8825 62.2525L62.8887 62.3403L69.5954 61.8714L69.7244 63.7164L60.089 64.3902Z" fill="#24242D"/>
<path d="M77.0319 64.2078L76.2931 53.6425L77.5671 53.5534L78.3059 64.1187L77.0319 64.2078ZM83.7921 63.8822C82.7012 63.9585 81.8135 63.4688 81.2756 62.6161L81.2463 62.6182L81.3364 63.9068L80.0624 63.9959L79.3236 53.4306L80.5976 53.3415L80.8931 57.5662L80.9223 57.5641C81.3368 56.6522 82.1849 56.0485 83.2612 55.9732C85.1721 55.8396 86.5834 57.2933 86.7514 59.6949L86.7519 59.7022C86.9198 62.1037 85.7397 63.746 83.7921 63.8822ZM83.4644 62.7721C84.8116 62.6779 85.571 61.5432 85.4486 59.7933L85.4481 59.786C85.3268 58.0507 84.4163 57.0255 83.0691 57.1197C81.7878 57.2093 80.9436 58.394 81.0624 60.0927L81.0629 60.1C81.1822 61.806 82.1757 62.8622 83.4644 62.7721ZM90.9814 63.3795C89.1876 63.5049 88.04 62.6655 87.791 61.3144L87.779 61.249L89.053 61.1599L89.0728 61.2321C89.2798 61.9828 89.8748 62.39 90.9145 62.3173C91.9469 62.2452 92.5317 61.7702 92.4836 61.0819L92.483 61.0746C92.4446 60.5255 92.1376 60.2379 91.2588 60.086L90.0302 59.8776C88.5711 59.6338 87.8289 59.0162 87.7521 57.9179L87.7516 57.9106C87.66 56.6 88.7445 55.5898 90.3919 55.4746C92.0612 55.3578 93.191 56.2574 93.3752 57.5247L93.3892 57.6194L92.1738 57.7044L92.1629 57.6536C92.0087 56.9213 91.4106 56.4702 90.4661 56.5362C89.5435 56.6007 89.0037 57.0873 89.0508 57.7609L89.0513 57.7682C89.0876 58.2881 89.4569 58.6228 90.3132 58.7689L91.5418 58.9773C93.1054 59.2432 93.7044 59.812 93.7802 60.8956L93.7807 60.9029C93.8739 62.2355 92.6801 63.2607 90.9814 63.3795Z" fill="#666D80"/>
<g filter="url(#filter1_ddd_625_1252)">
<rect x="155.367" y="24.3569" width="30.0632" height="30.0632" rx="15.0316" transform="rotate(-4 155.367 24.3569)" fill="white"/>
<g clip-path="url(#clip0_625_1252)">
<path d="M168.048 41.6376C167.386 41.6839 166.83 41.4823 166.393 41.0355C165.956 40.5887 165.642 39.9023 165.416 38.8874C165.083 37.3918 165.219 36.1021 165.8 35.2559C166.142 34.7576 166.615 34.4503 167.167 34.3675C167.641 34.2961 168.365 34.4394 169.132 35.525C169.612 36.2049 170.005 37.125 170.21 38.0495C170.459 39.1655 170.391 40.0046 170.002 40.6142C169.693 41.0984 169.189 41.4203 168.503 41.5725C168.353 41.6053 168.201 41.6271 168.048 41.6376ZM169.471 45.5032C169.084 45.5302 168.683 45.4338 168.313 45.2204C167.779 44.9106 167.389 44.4028 167.228 43.8071C167.114 43.3836 167.141 43.0389 167.308 42.7526C167.579 42.2878 168.115 42.1499 168.683 42.0037C168.742 41.9884 168.803 41.9729 168.865 41.9566C168.995 41.9221 169.128 41.8793 169.257 41.8376C169.74 41.682 170.24 41.5208 170.68 41.7896C170.975 41.9691 171.157 42.2966 171.239 42.79C171.333 43.3593 171.25 43.9399 171.006 44.425C170.742 44.9469 170.318 45.3095 169.811 45.4461C169.7 45.4761 169.586 45.4952 169.471 45.5032ZM175.007 38.3256C174.854 38.3358 174.701 38.3347 174.548 38.3224C173.848 38.2684 173.303 38.0195 172.93 37.582C172.46 37.0325 172.275 36.2114 172.367 35.0713C172.442 34.1264 172.702 33.1614 173.081 32.4242C173.685 31.2468 174.384 31.001 174.865 31.0021C175.422 31.0038 175.932 31.2386 176.34 31.6818C177.037 32.4386 177.354 33.7005 177.232 35.2347C177.149 36.2705 176.937 36.9902 176.563 37.4978C176.189 38.0055 175.669 38.2793 175.007 38.3256ZM174.136 42.3517C174.021 42.3597 173.906 42.3566 173.791 42.3425C173.27 42.2777 172.799 41.9778 172.467 41.4975C172.157 41.0512 171.994 40.4878 172.008 39.9109C172.02 39.4098 172.154 39.0613 172.422 38.8422C172.821 38.515 173.338 38.6048 173.838 38.6919C173.972 38.715 174.109 38.7389 174.243 38.7551L174.43 38.7765C175.012 38.842 175.562 38.9034 175.896 39.3265C176.101 39.5867 176.175 39.925 176.122 40.3596C176.045 40.972 175.729 41.5294 175.244 41.9105C174.905 42.1737 174.522 42.3247 174.136 42.3517Z" fill="#F99B30"/>
</g>
</g>
</g>
<defs>
<filter id="filter0_ddd_625_1252" x="-0.291777" y="-0.0415182" width="206.575" height="91.2682" filterUnits="userSpaceOnUse" color-interpolation-filters="sRGB">
<feFlood flood-opacity="0" result="BackgroundImageFix"/>
<feColorMatrix in="SourceAlpha" type="matrix" values="0 0 0 0 0 0 0 0 0 0 0 0 0 0 0 0 0 0 127 0" result="hardAlpha"/>
<feMorphology radius="1.20789" operator="dilate" in="SourceAlpha" result="effect1_dropShadow_625_1252"/>
<feOffset/>
<feComposite in2="hardAlpha" operator="out"/>
<feColorMatrix type="matrix" values="0 0 0 0 0.137255 0 0 0 0 0.65098 0 0 0 0 0.0196078 0 0 0 0.24 0"/>
<feBlend mode="normal" in2="BackgroundImageFix" result="effect1_dropShadow_625_1252"/>
<feColorMatrix in="SourceAlpha" type="matrix" values="0 0 0 0 0 0 0 0 0 0 0 0 0 0 0 0 0 0 127 0" result="hardAlpha"/>
<feOffset dy="2.50526"/>
<feGaussianBlur stdDeviation="2.50526"/>
<feComposite in2="hardAlpha" operator="out"/>
<feColorMatrix type="matrix" values="0 0 0 0 0.215686 0 0 0 0 0.223529 0 0 0 0 0.290196 0 0 0 0.04 0"/>
<feBlend mode="normal" in2="effect1_dropShadow_625_1252" result="effect2_dropShadow_625_1252"/>
<feColorMatrix in="SourceAlpha" type="matrix" values="0 0 0 0 0 0 0 0 0 0 0 0 0 0 0 0 0 0 127 0" result="hardAlpha"/>
<feOffset dy="2.50526"/>
<feGaussianBlur stdDeviation="2.50526"/>
<feComposite in2="hardAlpha" operator="out"/>
<feColorMatrix type="matrix" values="0 0 0 0 0.215686 0 0 0 0 0.223529 0 0 0 0 0.290196 0 0 0 0.04 0"/>
<feBlend mode="normal" in2="effect2_dropShadow_625_1252" result="effect3_dropShadow_625_1252"/>
<feBlend mode="normal" in="SourceGraphic" in2="effect3_dropShadow_625_1252" result="shape"/>
</filter>
<filter id="filter1_ddd_625_1252" x="145.346" y="14.7441" width="52.129" height="52.1291" filterUnits="userSpaceOnUse" color-interpolation-filters="sRGB">
<feFlood flood-opacity="0" result="BackgroundImageFix"/>
<feColorMatrix in="SourceAlpha" type="matrix" values="0 0 0 0 0 0 0 0 0 0 0 0 0 0 0 0 0 0 127 0" result="hardAlpha"/>
<feOffset dy="2.50526"/>
<feGaussianBlur stdDeviation="5.01053"/>
<feComposite in2="hardAlpha" operator="out"/>
<feColorMatrix type="matrix" values="0 0 0 0 0.0117647 0 0 0 0 0.027451 0 0 0 0 0.0705882 0 0 0 0.1 0"/>
<feBlend mode="normal" in2="BackgroundImageFix" result="effect1_dropShadow_625_1252"/>
<feColorMatrix in="SourceAlpha" type="matrix" values="0 0 0 0 0 0 0 0 0 0 0 0 0 0 0 0 0 0 127 0" result="hardAlpha"/>
<feMorphology radius="1.25263" operator="erode" in="SourceAlpha" result="effect2_dropShadow_625_1252"/>
<feOffset dy="1.25263"/>
<feGaussianBlur stdDeviation="1.25263"/>
<feComposite in2="hardAlpha" operator="out"/>
<feColorMatrix type="matrix" values="0 0 0 0 0.0117647 0 0 0 0 0.027451 0 0 0 0 0.0705882 0 0 0 0.08 0"/>
<feBlend mode="normal" in2="effect1_dropShadow_625_1252" result="effect2_dropShadow_625_1252"/>
<feColorMatrix in="SourceAlpha" type="matrix" values="0 0 0 0 0 0 0 0 0 0 0 0 0 0 0 0 0 0 127 0" result="hardAlpha"/>
<feMorphology radius="1.25263" operator="dilate" in="SourceAlpha" result="effect3_dropShadow_625_1252"/>
<feOffset/>
<feComposite in2="hardAlpha" operator="out"/>
<feColorMatrix type="matrix" values="0 0 0 0 0.976471 0 0 0 0 0.607843 0 0 0 0 0.188235 0 0 0 0.7 0"/>
<feBlend mode="normal" in2="effect2_dropShadow_625_1252" result="effect3_dropShadow_625_1252"/>
<feBlend mode="normal" in="SourceGraphic" in2="effect3_dropShadow_625_1252" result="shape"/>
</filter>
<linearGradient id="paint0_linear_625_1252" x1="100.858" y1="15.8765" x2="100.858" y2="83.8765" gradientUnits="userSpaceOnUse">
<stop stop-color="#23A605" stop-opacity="0.12"/>
<stop offset="1" stop-color="#23A605" stop-opacity="0.06"/>
</linearGradient>
<clipPath id="clip0_625_1252">
<rect width="15.0316" height="15.0316" fill="white" transform="translate(163.388 31.3301) rotate(-4)"/>
</clipPath>
</defs>
</svg>
